<svg width="608" height="606" viewBox="0 0 608 606" fill="none" xmlns="http://www.w3.org/2000/svg">
<path d="M373.64 65.2783L346.147 1.96387H480.691L507.766 37.7864L373.64 65.2783Z" fill="#262628"/>
<path d="M606.904 16.9592L515.264 37.7864L487.356 1.96387H606.904V16.9592Z" fill="#262628"/>
<path d="M606.904 24.457V255.639L518.597 41.5353L606.904 24.457Z" fill="#262628"/>
<path d="M513.598 461.411L472.36 341.863L606.904 273.967V396.43L549.421 432.253L544.422 444.749L513.598 461.411Z" fill="#262628"/>
<path d="M529.427 500.566L516.93 467.659L549.421 448.915L556.085 436.002L606.904 404.761V478.906L529.427 500.566Z" fill="#262628"/>
<path d="M516.93 605.119L426.54 533.473L606.904 485.987V605.119H516.93Z" fill="#262628"/>
<path d="M137.459 605.119L317.823 467.659L408.629 537.639L419.043 533.473L504.851 605.119H137.459Z" fill="#262628"/>
<path d="M133.71 598.87L106.218 546.386L27.9082 605.119H127.462L133.71 598.87Z" fill="#262628"/>
<path d="M0 605.119H16.6617L103.303 539.305L0 342.696V605.119Z" fill="#262628"/>
<path d="M84.9749 286.879L46.6529 417.674L0 329.783V224.398L84.9749 286.879Z" fill="#262628"/>
<path d="M13.746 143.172L0 146.504V188.992L15.8287 171.497L13.746 143.172Z" fill="#262628"/>
<path d="M167.867 111.515L22.0768 143.172V173.58L0 199.405V217.317L88.3072 278.965L167.867 111.515Z" fill="#262628"/>
<path d="M138.582 594.691L50.844 428.101L93.047 290.387L312.946 465.862L138.582 594.691Z" fill="#262628"/>
<path d="M411.871 529.69L520.982 502.651L414.415 204.631L345.153 357.023L198.554 363.686L411.871 529.69Z" fill="#262628"/>
<path d="M93.047 280.391L177.624 107.873L366.752 71.0361L409.891 194.886L340.284 350.457L188.559 357.023L93.047 280.391Z" fill="#262628"/>
<path d="M523.96 71.0361L411.789 165.613L470.918 333.749L604.376 265.443L523.96 71.0361Z" fill="#262628"/>
<path d="M409.891 157.206L378.443 71.0361L510.851 42.6628L518.206 63.68L409.891 157.206Z" fill="#262628"/>
<path d="M0.455576 139.837V0.809669L78.138 0L164.646 105.619L0.455576 139.837Z" fill="#262628"/>
<path d="M226.551 0H87.171H85.1153L174.746 102.94L226.551 0Z" fill="#262628"/>
<path d="M523.96 70.3347L411.789 164.911L470.918 333.047L604.376 264.742L523.96 70.3347Z" fill="#EC4D08"/>
<path d="M137.738 594.304L50 427.715L92.203 290L312.102 465.475L137.738 594.304Z" fill="#9C2D10"/>
<path d="M412.317 530.058L521.428 503.02L414.861 205L345.599 357.391L199 364.055L412.317 530.058Z" fill="#FE8A39"/>
<path d="M93 280.355L177.577 107.837L366.705 71L409.844 194.85L340.237 350.421L188.512 356.986L93 280.355Z" fill="#C53909"/>
<path d="M366.141 65.2783L339.899 1.54736H234.097L181.196 101.518L366.141 65.2783Z" fill="#262628"/>
<path d="M607.5 275.5L473.5 342.5L514 461.5L544.5 445L549.5 432.5L607.5 397V275.5Z" fill="#FD6912"/>
<path d="M135.309 451.152V466H133.423L127.477 454.548V466H125.601V451.152H127.477L133.453 462.635V451.152H135.309ZM140.51 451.152V466H138.634V451.152H140.51ZM151.473 464.399V466H145.313V464.399H151.473ZM145.65 451.152V466H143.774V451.152H145.65ZM155.583 451.152V466H153.706V451.152H155.583ZM160.59 457.832V459.443H155.226V457.832H160.59ZM161.436 451.152V452.763H155.226V451.152H161.436ZM171.817 457.536V459.137H165.383V457.536H171.817ZM165.638 451.152V466H163.761V451.152H165.638ZM173.48 451.152V466H171.603V451.152H173.48ZM184.697 464.399V466H178.252V464.399H184.697ZM178.589 451.152V466H176.712V451.152H178.589ZM183.83 457.536V459.137H178.252V457.536H183.83ZM184.595 451.152V452.763H178.252V451.152H184.595ZM189.052 451.152V466H187.175V451.152H189.052ZM192.906 451.152H194.722L198.607 463.257L202.482 451.152H204.297L199.311 466H197.883L192.906 451.152ZM192.315 451.152H193.906L194.181 460.208V466H192.315V451.152ZM203.288 451.152H204.879V466H203.012V460.208L203.288 451.152Z" fill="black"/>
<path d="M217.097 225.247C217.097 224.9 217.056 224.595 216.975 224.329C216.893 224.057 216.75 223.813 216.546 223.595C216.342 223.378 216.057 223.17 215.69 222.973C215.323 222.776 214.857 222.575 214.293 222.371C213.681 222.154 213.127 221.913 212.63 221.647C212.134 221.375 211.709 221.066 211.356 220.719C211.009 220.373 210.74 219.975 210.55 219.526C210.36 219.078 210.265 218.564 210.265 217.986C210.265 217.409 210.363 216.875 210.56 216.385C210.764 215.896 211.05 215.471 211.417 215.111C211.791 214.743 212.239 214.458 212.763 214.254C213.286 214.05 213.871 213.948 214.517 213.948C215.482 213.948 216.295 214.162 216.954 214.591C217.621 215.012 218.124 215.566 218.464 216.253C218.803 216.933 218.973 217.66 218.973 218.435H217.097C217.097 217.878 217.005 217.385 216.822 216.956C216.645 216.521 216.366 216.181 215.985 215.937C215.612 215.685 215.122 215.559 214.517 215.559C213.973 215.559 213.524 215.665 213.171 215.875C212.824 216.086 212.566 216.372 212.396 216.732C212.233 217.092 212.151 217.504 212.151 217.966C212.151 218.279 212.206 218.564 212.314 218.823C212.423 219.074 212.59 219.309 212.814 219.526C213.045 219.744 213.331 219.944 213.671 220.128C214.017 220.311 214.425 220.488 214.894 220.658C215.622 220.896 216.244 221.161 216.761 221.454C217.277 221.746 217.699 222.076 218.025 222.443C218.351 222.803 218.589 223.214 218.739 223.677C218.895 224.132 218.973 224.649 218.973 225.227C218.973 225.832 218.871 226.379 218.668 226.869C218.47 227.358 218.181 227.776 217.801 228.123C217.42 228.47 216.961 228.738 216.424 228.929C215.887 229.112 215.282 229.204 214.609 229.204C214.024 229.204 213.45 229.109 212.885 228.918C212.328 228.728 211.821 228.443 211.366 228.062C210.91 227.681 210.547 227.212 210.275 226.655C210.003 226.09 209.867 225.438 209.867 224.697H211.743C211.743 225.206 211.818 225.645 211.968 226.012C212.117 226.372 212.324 226.672 212.59 226.909C212.855 227.147 213.157 227.324 213.497 227.44C213.844 227.549 214.214 227.603 214.609 227.603C215.153 227.603 215.608 227.508 215.975 227.317C216.349 227.127 216.628 226.855 216.812 226.502C217.002 226.148 217.097 225.73 217.097 225.247ZM225.51 226.746L229.079 214.152H231.119L226.51 229H225.072L225.51 226.746ZM222.308 214.152L225.847 226.746L226.316 229H224.878L220.269 214.152H222.308ZM237.176 215.468L233.118 229H231.201L235.983 214.152H237.187L237.176 215.468ZM240.46 229L236.401 215.468L236.381 214.152H237.595L242.377 229H240.46ZM240.46 223.503V225.115H233.301V223.503H240.46ZM244.427 214.152H248.578C249.543 214.152 250.352 214.322 251.005 214.662C251.664 215.002 252.16 215.505 252.494 216.171C252.833 216.831 253.003 217.643 253.003 218.608C253.003 219.288 252.891 219.91 252.667 220.475C252.443 221.032 252.116 221.508 251.688 221.902C251.26 222.29 250.74 222.579 250.128 222.769L249.618 222.983H245.916L245.896 221.382H248.557C249.128 221.382 249.604 221.26 249.985 221.015C250.366 220.764 250.651 220.427 250.842 220.006C251.032 219.584 251.127 219.118 251.127 218.608C251.127 218.037 251.042 217.538 250.872 217.109C250.702 216.681 250.43 216.351 250.056 216.12C249.689 215.882 249.196 215.763 248.578 215.763H246.304V229H244.427V214.152ZM251.555 229L248.598 222.269L250.546 222.259L253.564 228.878V229H251.555ZM259.469 214.152V229H257.613V214.152H259.469ZM263.375 214.152V215.763H253.717V214.152H263.375ZM273.623 220.536V222.137H267.189V220.536H273.623ZM267.444 214.152V229H265.567V214.152H267.444ZM275.286 214.152V229H273.409V214.152H275.286ZM286.503 227.399V229H280.058V227.399H286.503ZM280.395 214.152V229H278.518V214.152H280.395ZM285.636 220.536V222.137H280.058V220.536H285.636ZM286.401 214.152V215.763H280.058V214.152H286.401ZM290.858 214.152V229H288.981V214.152H290.858ZM294.712 214.152H296.528L300.413 226.257L304.288 214.152H306.103L301.117 229H299.689L294.712 214.152ZM294.121 214.152H295.712L295.987 223.208V229H294.121V214.152ZM305.094 214.152H306.685V229H304.818V223.208L305.094 214.152Z" fill="black"/>
<path d="M517.657 368.536V370.137H511.223V368.536H517.657ZM511.477 362.152V377H509.601V362.152H511.477ZM519.32 362.152V377H517.443V362.152H519.32ZM530.537 375.399V377H524.092V375.399H530.537ZM524.429 362.152V377H522.552V362.152H524.429ZM529.67 368.536V370.137H524.092V368.536H529.67ZM530.435 362.152V363.763H524.092V362.152H530.435ZM540.633 375.399V377H534.473V375.399H540.633ZM534.81 362.152V377H532.934V362.152H534.81ZM550.922 368.536V370.137H544.488V368.536H550.922ZM544.743 362.152V377H542.866V362.152H544.743ZM552.585 362.152V377H550.708V362.152H552.585ZM563.802 375.399V377H557.357V375.399H563.802ZM557.694 362.152V377H555.817V362.152H557.694ZM562.935 368.536V370.137H557.357V368.536H562.935ZM563.7 362.152V363.763H557.357V362.152H563.7ZM568.157 362.152V377H566.28V362.152H568.157ZM572.012 362.152H573.827L577.712 374.257L581.587 362.152H583.402L578.416 377H576.988L572.012 362.152ZM571.42 362.152H573.011L573.286 371.208V377H571.42V362.152ZM582.393 362.152H583.984V377H582.118V371.208L582.393 362.152Z" fill="black"/>
<path d="M472.414 207.468L468.356 221H466.439L471.221 206.152H472.425L472.414 207.468ZM475.698 221L471.639 207.468L471.619 206.152H472.833L477.615 221H475.698ZM475.698 215.503V217.115H468.539V215.503H475.698ZM487.354 219.399V221H481.195V219.399H487.354ZM481.531 206.152V221H479.655V206.152H481.531ZM491.464 206.152V221H489.587V206.152H491.464ZM496.471 212.832V214.443H491.107V212.832H496.471ZM497.317 206.152V207.763H491.107V206.152H497.317ZM507.699 212.536V214.137H501.264V212.536H507.699ZM501.519 206.152V221H499.643V206.152H501.519ZM509.361 206.152V221H507.485V206.152H509.361ZM520.579 219.399V221H514.134V219.399H520.579ZM514.47 206.152V221H512.594V206.152H514.47ZM519.712 212.536V214.137H514.134V212.536H519.712ZM520.477 206.152V207.763H514.134V206.152H520.477ZM524.933 206.152V221H523.057V206.152H524.933ZM528.788 206.152H530.603L534.488 218.257L538.364 206.152H540.179L535.192 221H533.764L528.788 206.152ZM528.196 206.152H529.787L530.063 215.208V221H528.196V206.152ZM539.169 206.152H540.76V221H538.894V215.208L539.169 206.152Z" fill="black"/>
<path d="M306.68 420.746L310.249 408.152H312.289L307.68 423H306.242L306.68 420.746ZM303.478 408.152L307.017 420.746L307.486 423H306.048L301.439 408.152H303.478ZM318.346 409.468L314.288 423H312.371L317.153 408.152H318.357L318.346 409.468ZM321.63 423L317.571 409.468L317.551 408.152H318.765L323.547 423H321.63ZM321.63 417.503V419.115H314.471V417.503H321.63ZM333.286 421.399V423H327.127V421.399H333.286ZM327.463 408.152V423H325.587V408.152H327.463ZM343.576 414.536V416.137H337.141V414.536H343.576ZM337.396 408.152V423H335.52V408.152H337.396ZM345.238 408.152V423H343.362V408.152H345.238ZM353.468 409.468L349.409 423H347.492L352.274 408.152H353.478L353.468 409.468ZM356.751 423L352.693 409.468L352.672 408.152H353.886L358.668 423H356.751ZM356.751 417.503V419.115H349.592V417.503H356.751ZM368.407 421.399V423H362.248V421.399H368.407ZM362.584 408.152V423H360.708V408.152H362.584ZM378.34 421.399V423H372.181V421.399H378.34ZM372.517 408.152V423H370.641V408.152H372.517ZM385.591 409.468L381.532 423H379.615L384.398 408.152H385.601L385.591 409.468ZM388.874 423L384.816 409.468L384.795 408.152H386.009L390.792 423H388.874ZM388.874 417.503V419.115H381.715V417.503H388.874ZM399.327 419.247C399.327 418.9 399.286 418.595 399.205 418.329C399.123 418.057 398.98 417.813 398.776 417.595C398.572 417.378 398.287 417.17 397.92 416.973C397.553 416.776 397.087 416.575 396.523 416.371C395.911 416.154 395.357 415.913 394.86 415.647C394.364 415.375 393.939 415.066 393.586 414.719C393.239 414.373 392.97 413.975 392.78 413.526C392.59 413.078 392.495 412.564 392.495 411.986C392.495 411.409 392.593 410.875 392.79 410.385C392.994 409.896 393.28 409.471 393.647 409.111C394.021 408.743 394.47 408.458 394.993 408.254C395.517 408.05 396.101 407.948 396.747 407.948C397.712 407.948 398.525 408.162 399.184 408.591C399.851 409.012 400.354 409.566 400.694 410.253C401.034 410.933 401.203 411.66 401.203 412.435H399.327C399.327 411.878 399.235 411.385 399.052 410.956C398.875 410.521 398.596 410.181 398.216 409.937C397.842 409.685 397.352 409.559 396.747 409.559C396.203 409.559 395.754 409.665 395.401 409.875C395.054 410.086 394.796 410.372 394.626 410.732C394.463 411.092 394.381 411.504 394.381 411.966C394.381 412.279 394.436 412.564 394.544 412.823C394.653 413.074 394.82 413.309 395.044 413.526C395.275 413.744 395.561 413.944 395.901 414.128C396.247 414.311 396.655 414.488 397.124 414.658C397.852 414.896 398.474 415.161 398.991 415.454C399.507 415.746 399.929 416.076 400.255 416.443C400.581 416.803 400.819 417.214 400.969 417.677C401.125 418.132 401.203 418.649 401.203 419.227C401.203 419.832 401.101 420.379 400.898 420.869C400.7 421.358 400.411 421.776 400.031 422.123C399.65 422.47 399.191 422.738 398.654 422.929C398.117 423.112 397.512 423.204 396.839 423.204C396.254 423.204 395.68 423.109 395.115 422.918C394.558 422.728 394.051 422.443 393.596 422.062C393.14 421.681 392.777 421.212 392.505 420.655C392.233 420.09 392.097 419.438 392.097 418.697H393.973C393.973 419.206 394.048 419.645 394.198 420.012C394.347 420.372 394.555 420.672 394.82 420.909C395.085 421.147 395.387 421.324 395.727 421.44C396.074 421.549 396.445 421.603 396.839 421.603C397.383 421.603 397.838 421.508 398.205 421.317C398.579 421.127 398.858 420.855 399.042 420.502C399.232 420.148 399.327 419.73 399.327 419.247ZM412.951 416.055H409.933L409.912 414.475H412.717C413.138 414.475 413.512 414.379 413.839 414.189C414.165 413.999 414.42 413.727 414.603 413.373C414.794 413.013 414.889 412.585 414.889 412.088C414.889 411.544 414.807 411.103 414.644 410.763C414.488 410.416 414.246 410.164 413.92 410.008C413.601 409.845 413.193 409.763 412.696 409.763H410.33V423H408.454V408.152H412.696C413.335 408.152 413.907 408.23 414.41 408.387C414.913 408.536 415.338 408.774 415.684 409.1C416.038 409.42 416.306 409.828 416.49 410.324C416.674 410.82 416.765 411.415 416.765 412.109C416.765 412.721 416.626 413.275 416.347 413.771C416.075 414.26 415.695 414.662 415.205 414.974C414.716 415.287 414.151 415.488 413.512 415.576L412.951 416.055ZM412.88 423H409.158L410.249 421.399H412.88C413.369 421.399 413.784 421.29 414.124 421.073C414.464 420.855 414.722 420.549 414.899 420.155C415.083 419.754 415.174 419.281 415.174 418.737C415.174 418.187 415.1 417.711 414.95 417.31C414.801 416.909 414.563 416.599 414.236 416.382C413.91 416.164 413.482 416.055 412.951 416.055H410.534L410.555 414.475H413.818L414.236 415.046C414.848 415.107 415.361 415.311 415.776 415.658C416.198 415.998 416.514 416.433 416.725 416.963C416.942 417.493 417.051 418.078 417.051 418.717C417.051 419.642 416.877 420.423 416.531 421.062C416.191 421.695 415.708 422.177 415.083 422.511C414.457 422.837 413.723 423 412.88 423ZM426.841 408.152H428.717V418.605C428.717 419.72 428.503 420.614 428.075 421.287C427.646 421.96 427.082 422.449 426.382 422.755C425.688 423.054 424.941 423.204 424.138 423.204C423.282 423.204 422.51 423.054 421.823 422.755C421.137 422.449 420.589 421.96 420.182 421.287C419.78 420.614 419.58 419.72 419.58 418.605V408.152H421.446V418.605C421.446 419.38 421.555 419.985 421.772 420.42C421.997 420.855 422.309 421.161 422.711 421.338C423.119 421.515 423.594 421.603 424.138 421.603C424.689 421.603 425.165 421.515 425.566 421.338C425.974 421.161 426.287 420.855 426.504 420.42C426.729 419.985 426.841 419.38 426.841 418.605V408.152ZM433.459 408.152V423H431.583V408.152H433.459ZM438.466 414.832V416.443H433.102V414.832H438.466ZM439.313 408.152V409.763H433.102V408.152H439.313ZM443.514 408.152V423H441.638V408.152H443.514ZM448.521 414.832V416.443H443.157V414.832H448.521ZM449.368 408.152V409.763H443.157V408.152H449.368ZM459.678 421.399V423H453.233V421.399H459.678ZM453.569 408.152V423H451.693V408.152H453.569ZM458.811 414.536V416.137H453.233V414.536H458.811ZM459.576 408.152V409.763H453.233V408.152H459.576ZM467.051 408.152V423H465.195V408.152H467.051ZM470.956 408.152V409.763H461.299V408.152H470.956Z" fill="black"/>
<path d="M318 468L138 605.5L505 605L418.5 534L409 537.5L318 468Z" fill="#7E2810"/>
<path d="M258.193 545.152H260.008L263.893 557.257L267.768 545.152H269.583L264.597 560H263.169L258.193 545.152ZM257.601 545.152H259.192L259.467 554.208V560H257.601V545.152ZM268.574 545.152H270.165V560H268.299V554.208L268.574 545.152ZM280.373 545.152H282.249V555.605C282.249 556.72 282.035 557.614 281.607 558.287C281.178 558.96 280.614 559.449 279.914 559.755C279.22 560.054 278.473 560.204 277.67 560.204C276.814 560.204 276.042 560.054 275.355 559.755C274.669 559.449 274.121 558.96 273.714 558.287C273.312 557.614 273.112 556.72 273.112 555.605V545.152H274.978V555.605C274.978 556.38 275.087 556.985 275.304 557.42C275.529 557.855 275.841 558.161 276.243 558.338C276.651 558.515 277.126 558.603 277.67 558.603C278.221 558.603 278.697 558.515 279.098 558.338C279.506 558.161 279.819 557.855 280.036 557.42C280.261 556.985 280.373 556.38 280.373 555.605V545.152ZM291.611 556.247C291.611 555.9 291.57 555.595 291.488 555.329C291.407 555.057 291.264 554.813 291.06 554.595C290.856 554.378 290.571 554.17 290.203 553.973C289.836 553.776 289.371 553.575 288.806 553.371C288.194 553.154 287.64 552.913 287.144 552.647C286.648 552.375 286.223 552.066 285.869 551.719C285.523 551.373 285.254 550.975 285.064 550.526C284.873 550.078 284.778 549.564 284.778 548.986C284.778 548.409 284.877 547.875 285.074 547.385C285.278 546.896 285.563 546.471 285.931 546.111C286.304 545.743 286.753 545.458 287.277 545.254C287.8 545.05 288.385 544.948 289.031 544.948C289.996 544.948 290.808 545.162 291.468 545.591C292.134 546.012 292.637 546.566 292.977 547.253C293.317 547.933 293.487 548.66 293.487 549.435H291.611C291.611 548.878 291.519 548.385 291.335 547.956C291.159 547.521 290.88 547.181 290.499 546.937C290.125 546.685 289.636 546.559 289.031 546.559C288.487 546.559 288.038 546.665 287.685 546.875C287.338 547.086 287.079 547.372 286.909 547.732C286.746 548.092 286.665 548.504 286.665 548.966C286.665 549.279 286.719 549.564 286.828 549.823C286.937 550.074 287.103 550.309 287.328 550.526C287.559 550.744 287.844 550.944 288.184 551.128C288.531 551.311 288.939 551.488 289.408 551.658C290.135 551.896 290.757 552.161 291.274 552.454C291.791 552.746 292.212 553.076 292.539 553.443C292.865 553.803 293.103 554.214 293.253 554.677C293.409 555.132 293.487 555.649 293.487 556.227C293.487 556.832 293.385 557.379 293.181 557.869C292.984 558.358 292.695 558.776 292.314 559.123C291.934 559.47 291.475 559.738 290.938 559.929C290.401 560.112 289.795 560.204 289.122 560.204C288.538 560.204 287.963 560.109 287.399 559.918C286.842 559.728 286.335 559.443 285.88 559.062C285.424 558.681 285.06 558.212 284.788 557.655C284.516 557.09 284.38 556.438 284.38 555.697H286.257C286.257 556.206 286.332 556.645 286.481 557.012C286.631 557.372 286.838 557.672 287.103 557.909C287.368 558.147 287.671 558.324 288.011 558.44C288.358 558.549 288.728 558.603 289.122 558.603C289.666 558.603 290.122 558.508 290.489 558.317C290.863 558.127 291.142 557.855 291.325 557.502C291.515 557.148 291.611 556.73 291.611 556.247ZM300.677 554.177H297.434V552.576H300.677C301.288 552.576 301.781 552.454 302.155 552.209C302.536 551.964 302.811 551.624 302.981 551.189C303.158 550.754 303.246 550.258 303.246 549.7C303.246 549.19 303.158 548.711 302.981 548.262C302.811 547.814 302.536 547.453 302.155 547.181C301.781 546.903 301.288 546.763 300.677 546.763H297.821V560H295.945V545.152H300.677C301.635 545.152 302.444 545.346 303.104 545.733C303.763 546.121 304.263 546.658 304.603 547.345C304.949 548.024 305.123 548.803 305.123 549.68C305.123 550.632 304.949 551.444 304.603 552.117C304.263 552.79 303.763 553.303 303.104 553.657C302.444 554.004 301.635 554.177 300.677 554.177ZM315.514 558.399V560H309.069V558.399H315.514ZM309.406 545.152V560H307.529V545.152H309.406ZM314.647 551.536V553.137H309.069V551.536H314.647ZM315.412 545.152V546.763H309.069V545.152H315.412ZM325.61 558.399V560H319.451V558.399H325.61ZM319.787 545.152V560H317.911V545.152H319.787ZM335.9 551.536V553.137H329.465V551.536H335.9ZM329.72 545.152V560H327.843V545.152H329.72ZM337.562 545.152V560H335.686V545.152H337.562ZM348.779 558.399V560H342.334V558.399H348.779ZM342.671 545.152V560H340.795V545.152H342.671ZM347.913 551.536V553.137H342.334V551.536H347.913ZM348.678 545.152V546.763H342.334V545.152H348.678ZM353.134 545.152V560H351.258V545.152H353.134ZM356.989 545.152H358.804L362.689 557.257L366.564 545.152H368.38L363.393 560H361.965L356.989 545.152ZM356.397 545.152H357.988L358.263 554.208V560H356.397V545.152ZM367.37 545.152H368.961V560H367.095V554.208L367.37 545.152Z" fill="black"/>
</svg>
