<svg width="305" height="304" viewBox="0 0 305 304" fill="none" xmlns="http://www.w3.org/2000/svg">
<path d="M187.451 32.7503L173.658 0.986206H241.157L254.741 18.958L187.451 32.7503Z" fill="#262628"/>
<path d="M304.477 8.50921L258.502 18.958L244.501 0.986206H304.477V8.50921Z" fill="#262628"/>
<path d="M304.477 12.2708V128.252L260.174 20.8387L304.477 12.2708Z" fill="#262628"/>
<path d="M257.666 231.486L236.978 171.51L304.477 137.447V198.885L275.638 216.857L273.13 223.127L257.666 231.486Z" fill="#262628"/>
<path d="M265.607 251.129L259.338 234.62L275.638 225.216L278.982 218.738L304.477 203.065V240.263L265.607 251.129Z" fill="#262628"/>
<path d="M259.338 303.582L213.99 267.638L304.477 243.815V303.582H259.338Z" fill="#262628"/>
<path d="M68.9617 303.582L159.448 234.62L205.004 269.728L210.229 267.638L253.278 303.582H68.9617Z" fill="#262628"/>
<path d="M67.0809 300.447L53.2886 274.116L14.0012 303.582H63.9462L67.0809 300.447Z" fill="#262628"/>
<path d="M0 303.582H8.359L51.8258 270.564L0 171.928V303.582Z" fill="#262628"/>
<path d="M42.6309 143.925L23.4052 209.543L0 165.449V112.579L42.6309 143.925Z" fill="#262628"/>
<path d="M6.89619 71.8286L0 73.5004V94.8159L7.94107 86.0389L6.89619 71.8286Z" fill="#262628"/>
<path d="M84.2169 55.9465L11.0757 71.8286V87.0838L0 100.04V109.026L44.3027 139.954L84.2169 55.9465Z" fill="#262628"/>
<path d="M69.5246 298.35L25.5076 214.773L46.6803 145.684L157.001 233.717L69.5246 298.35Z" fill="#262628"/>
<path d="M206.631 265.739L261.37 252.174L207.907 102.661L173.159 179.114L99.612 182.457L206.631 265.739Z" fill="#262628"/>
<path d="M46.6803 140.669L89.1115 54.1188L183.995 35.638L205.637 97.7722L170.716 175.82L94.5974 179.114L46.6803 140.669Z" fill="#262628"/>
<path d="M262.864 35.638L206.59 83.086L236.254 167.438L303.208 133.17L262.864 35.638Z" fill="#262628"/>
<path d="M205.637 78.8683L189.86 35.638L256.288 21.4034L259.978 31.9475L205.637 78.8683Z" fill="#262628"/>
<path d="M0.228276 70.1548V0.406201L39.2006 0L82.601 52.988L0.228276 70.1548Z" fill="#262628"/>
<path d="M113.658 0H43.7324H42.7011L87.6676 51.6436L113.658 0Z" fill="#262628"/>
<path d="M262.865 35.2856L206.59 82.7336L236.254 167.086L303.209 132.818L262.865 35.2856Z" fill="#801C1E"/>
<path d="M69.1745 298.35L25.1575 214.774L46.3302 145.684L156.651 233.717L69.1745 298.35Z" fill="#BB1A1D"/>
<path d="M206.78 265.99L261.519 252.425L208.056 102.912L173.308 179.365L99.761 182.708L206.78 265.99Z" fill="#D82023"/>
<path d="M46.6804 140.67L89.1116 54.1196L183.995 35.6388L205.637 97.773L170.716 175.821L94.5975 179.115L46.6804 140.67Z" fill="#9B191B"/>
<path d="M183.689 32.7493L170.524 0.776245H117.444L90.9041 50.9301L183.689 32.7493Z" fill="#262628"/>
<path d="M111.027 108.657H111.938L113.887 114.729L115.831 108.657H116.742L114.24 116.106H113.524L111.027 108.657ZM110.73 108.657H111.529L111.667 113.2V116.106H110.73V108.657ZM116.235 108.657H117.034V116.106H116.097V113.2L116.235 108.657ZM119.633 108.657V116.106H118.691V108.657H119.633ZM122.958 116.106H121.689L121.699 115.302H122.958C123.405 115.302 123.768 115.217 124.048 115.047C124.327 114.873 124.534 114.617 124.667 114.279C124.8 113.938 124.866 113.517 124.866 113.015V111.742C124.866 111.346 124.829 111.005 124.754 110.718C124.679 110.432 124.566 110.196 124.416 110.012C124.266 109.828 124.077 109.692 123.848 109.603C123.62 109.511 123.352 109.465 123.045 109.465H121.664V108.657H123.045C123.464 108.657 123.843 108.723 124.181 108.856C124.518 108.986 124.808 109.182 125.05 109.444C125.293 109.704 125.477 110.026 125.603 110.411C125.733 110.797 125.797 111.244 125.797 111.752V113.015C125.797 113.524 125.733 113.97 125.603 114.356C125.477 114.741 125.291 115.064 125.045 115.323C124.8 115.582 124.501 115.778 124.15 115.911C123.802 116.041 123.405 116.106 122.958 116.106ZM122.211 108.657V116.106H121.27V108.657H122.211ZM131.921 112.396V115.174C131.84 115.284 131.715 115.42 131.548 115.584C131.384 115.747 131.154 115.892 130.857 116.019C130.561 116.145 130.172 116.208 129.691 116.208C129.305 116.208 128.952 116.143 128.632 116.014C128.315 115.884 128.04 115.689 127.808 115.43C127.58 115.168 127.402 114.842 127.276 114.453C127.15 114.061 127.087 113.602 127.087 113.077V111.68C127.087 111.158 127.14 110.701 127.245 110.309C127.351 109.917 127.508 109.591 127.716 109.332C127.927 109.073 128.188 108.878 128.499 108.749C128.813 108.619 129.177 108.554 129.594 108.554C130.074 108.554 130.484 108.645 130.821 108.825C131.159 109.006 131.42 109.267 131.604 109.608C131.792 109.949 131.898 110.358 131.921 110.836H130.98C130.956 110.529 130.891 110.266 130.786 110.048C130.68 109.826 130.53 109.658 130.335 109.542C130.141 109.422 129.894 109.363 129.594 109.363C129.307 109.363 129.065 109.41 128.867 109.506C128.669 109.601 128.507 109.745 128.381 109.936C128.258 110.127 128.168 110.367 128.11 110.657C128.055 110.947 128.028 111.285 128.028 111.67V113.077C128.028 113.472 128.067 113.817 128.146 114.11C128.224 114.404 128.335 114.646 128.478 114.837C128.625 115.028 128.801 115.171 129.005 115.267C129.21 115.359 129.44 115.405 129.696 115.405C129.986 115.405 130.214 115.374 130.381 115.313C130.549 115.251 130.676 115.181 130.765 115.103C130.857 115.024 130.931 114.961 130.985 114.914V113.195H129.619V112.396H131.921ZM135.861 109.317L133.825 116.106H132.863L135.262 108.657H135.866L135.861 109.317ZM137.508 116.106L135.472 109.317L135.462 108.657H136.071L138.47 116.106H137.508ZM137.508 113.348V114.156H133.917V113.348H137.508ZM141.908 109.317L139.872 116.106H138.91L141.309 108.657H141.913L141.908 109.317ZM143.555 116.106L141.519 109.317L141.509 108.657H142.118L144.517 116.106H143.555ZM143.555 113.348V114.156H139.964V113.348H143.555ZM145.546 108.657H147.628C148.112 108.657 148.518 108.742 148.846 108.912C149.176 109.083 149.425 109.335 149.592 109.67C149.763 110 149.848 110.408 149.848 110.892C149.848 111.233 149.792 111.545 149.679 111.829C149.567 112.108 149.403 112.347 149.188 112.545C148.973 112.739 148.712 112.884 148.406 112.98L148.15 113.087H146.293L146.282 112.284H147.618C147.904 112.284 148.143 112.222 148.334 112.1C148.525 111.973 148.668 111.805 148.764 111.593C148.859 111.382 148.907 111.148 148.907 110.892C148.907 110.606 148.864 110.355 148.779 110.14C148.694 109.925 148.557 109.76 148.37 109.644C148.186 109.525 147.938 109.465 147.628 109.465H146.487V116.106H145.546V108.657ZM149.122 116.106L147.638 112.729L148.615 112.724L150.13 116.044V116.106H149.122ZM152.795 116.106H151.526L151.537 115.302H152.795C153.242 115.302 153.605 115.217 153.885 115.047C154.165 114.873 154.371 114.617 154.504 114.279C154.637 113.938 154.703 113.517 154.703 113.015V111.742C154.703 111.346 154.666 111.005 154.591 110.718C154.516 110.432 154.403 110.196 154.253 110.012C154.103 109.828 153.914 109.692 153.685 109.603C153.457 109.511 153.189 109.465 152.882 109.465H151.501V108.657H152.882C153.302 108.657 153.68 108.723 154.018 108.856C154.356 108.986 154.645 109.182 154.888 109.444C155.13 109.704 155.314 110.026 155.44 110.411C155.57 110.797 155.635 111.244 155.635 111.752V113.015C155.635 113.524 155.57 113.97 155.44 114.356C155.314 114.741 155.128 115.064 154.883 115.323C154.637 115.582 154.339 115.778 153.987 115.911C153.639 116.041 153.242 116.106 152.795 116.106ZM152.048 108.657V116.106H151.107V108.657H152.048Z" fill="white"/>
<path d="M234.387 106.382L236.177 100.064H237.201L234.888 107.513H234.167L234.387 106.382ZM232.78 100.064L234.556 106.382L234.791 107.513H234.07L231.757 100.064H232.78ZM240.24 100.724L238.203 107.513H237.242L239.641 100.064H240.245L240.24 100.724ZM241.887 107.513L239.851 100.724L239.841 100.064H240.449L242.849 107.513H241.887ZM241.887 104.755V105.563H238.295V104.755H241.887ZM248.743 100.064V107.513H247.796L244.813 101.767V107.513H243.872V100.064H244.813L247.811 105.824V100.064H248.743ZM252.876 100.724L250.84 107.513H249.878L252.278 100.064H252.882L252.876 100.724ZM254.524 107.513L252.488 100.724L252.477 100.064H253.086L255.486 107.513H254.524ZM254.524 104.755V105.563H250.932V104.755H254.524ZM260.551 103.266V104.07H257.322V103.266H260.551ZM257.45 100.064V107.513H256.509V100.064H257.45ZM261.385 100.064V107.513H260.443V100.064H261.385ZM267.012 106.709V107.513H263.779V106.709H267.012ZM263.948 100.064V107.513H263.006V100.064H263.948ZM266.577 103.266V104.07H263.779V103.266H266.577ZM266.961 100.064V100.872H263.779V100.064H266.961ZM269.197 100.064V107.513H268.255V100.064H269.197ZM271.131 100.064H272.041L273.991 106.136L275.935 100.064H276.845L274.344 107.513H273.627L271.131 100.064ZM270.834 100.064H271.632L271.77 104.607V107.513H270.834V100.064ZM276.339 100.064H277.137V107.513H276.201V104.607L276.339 100.064Z" fill="white"/>
<path d="M61.9079 229.842V224.567H62.8441V229.842C62.8441 230.333 62.7589 230.747 62.5883 231.085C62.4178 231.423 62.1807 231.68 61.8772 231.858C61.577 232.032 61.2309 232.119 60.8386 232.119C60.4532 232.119 60.1087 232.04 59.8052 231.883C59.5016 231.726 59.2629 231.488 59.0889 231.167C58.9184 230.846 58.8331 230.442 58.8331 229.954H59.7745C59.7745 230.268 59.8205 230.526 59.9126 230.727C60.0081 230.928 60.136 231.077 60.2963 231.172C60.4566 231.268 60.6374 231.315 60.8386 231.315C61.0433 231.315 61.2257 231.261 61.386 231.152C61.5463 231.039 61.6725 230.874 61.7646 230.655C61.8601 230.434 61.9079 230.162 61.9079 229.842ZM69.2444 227.647V228.941C69.2444 229.467 69.1864 229.929 69.0704 230.328C68.9579 230.724 68.7925 231.054 68.5742 231.32C68.3559 231.586 68.0933 231.786 67.7863 231.919C67.4793 232.052 67.1331 232.119 66.7477 232.119C66.376 232.119 66.0366 232.052 65.7296 231.919C65.4227 231.786 65.1583 231.586 64.9366 231.32C64.7149 231.054 64.5427 230.724 64.4199 230.328C64.3005 229.929 64.2408 229.467 64.2408 228.941V227.647C64.2408 227.122 64.3005 226.661 64.4199 226.266C64.5393 225.867 64.7098 225.534 64.9315 225.268C65.1532 225.002 65.4175 224.803 65.7245 224.669C66.0315 224.533 66.3708 224.465 66.7426 224.465C67.128 224.465 67.4742 224.533 67.7812 224.669C68.0916 224.803 68.3542 225.002 68.5691 225.268C68.7873 225.534 68.9545 225.867 69.0704 226.266C69.1864 226.661 69.2444 227.122 69.2444 227.647ZM68.3133 228.941V227.637C68.3133 227.228 68.2791 226.876 68.2109 226.583C68.1427 226.286 68.0421 226.044 67.9091 225.856C67.7761 225.669 67.6123 225.531 67.4179 225.442C67.2235 225.35 66.9984 225.304 66.7426 225.304C66.5004 225.304 66.2822 225.35 66.0877 225.442C65.8967 225.531 65.733 225.669 65.5966 225.856C65.4602 226.044 65.3544 226.286 65.2794 226.583C65.2078 226.876 65.172 227.228 65.172 227.637V228.941C65.172 229.354 65.2078 229.709 65.2794 230.006C65.3544 230.299 65.4602 230.541 65.5966 230.732C65.7364 230.92 65.9036 231.06 66.098 231.152C66.2924 231.24 66.509 231.285 66.7477 231.285C67.0035 231.285 67.2286 231.24 67.4231 231.152C67.6209 231.06 67.7846 230.92 67.9142 230.732C68.0472 230.541 68.1461 230.299 68.2109 230.006C68.2791 229.709 68.3133 229.354 68.3133 228.941ZM72.9536 224.567V232.016H72.0224V224.567H72.9536ZM74.913 224.567V225.376H70.0681V224.567H74.913ZM79.5175 224.567H80.4589V229.811C80.4589 230.371 80.3515 230.819 80.1366 231.157C79.9217 231.494 79.6386 231.74 79.2873 231.893C78.9394 232.044 78.5642 232.119 78.1618 232.119C77.732 232.119 77.3449 232.044 77.0004 231.893C76.6559 231.74 76.3814 231.494 76.1767 231.157C75.9755 230.819 75.8749 230.371 75.8749 229.811V224.567H76.8111V229.811C76.8111 230.2 76.8657 230.504 76.9748 230.722C77.0874 230.94 77.2443 231.094 77.4455 231.182C77.6502 231.271 77.8889 231.315 78.1618 231.315C78.438 231.315 78.6768 231.271 78.878 231.182C79.0827 231.094 79.2396 230.94 79.3487 230.722C79.4613 230.504 79.5175 230.2 79.5175 229.811V224.567ZM86.7671 224.567V232.016H85.8206L82.8379 226.271V232.016H81.8965V224.567H82.8379L85.8359 230.328V224.567H86.7671ZM92.4357 227.77V228.573H89.2075V227.77H92.4357ZM89.3354 224.567V232.016H88.394V224.567H89.3354ZM93.2697 224.567V232.016H92.3283V224.567H93.2697ZM98.8974 231.213V232.016H95.664V231.213H98.8974ZM95.8328 224.567V232.016H94.8915V224.567H95.8328ZM98.4625 227.77V228.573H95.664V227.77H98.4625ZM98.8462 224.567V225.376H95.664V224.567H98.8462ZM101.082 224.567V232.016H100.141V224.567H101.082ZM103.016 224.567H103.927L105.876 230.64L107.82 224.567H108.731L106.229 232.016H105.513L103.016 224.567ZM102.719 224.567H103.517L103.655 229.11V232.016H102.719V224.567ZM108.224 224.567H109.022V232.016H108.086V229.11L108.224 224.567Z" fill="white"/>
<path d="M148.85 208.869L150.64 202.551H151.664L149.351 210H148.63L148.85 208.869ZM147.243 202.551L149.019 208.869L149.254 210H148.532L146.22 202.551H147.243ZM154.703 203.211L152.666 210H151.704L154.104 202.551H154.708L154.703 203.211ZM156.35 210L154.314 203.211L154.303 202.551H154.912L157.312 210H156.35ZM156.35 207.242V208.051H152.758V207.242H156.35ZM162.198 209.197V210H159.107V209.197H162.198ZM159.276 202.551V210H158.335V202.551H159.276ZM167.36 205.754V206.557H164.132V205.754H167.36ZM164.259 202.551V210H163.318V202.551H164.259ZM168.194 202.551V210H167.252V202.551H168.194ZM172.322 203.211L170.286 210H169.324L171.724 202.551H172.328L172.322 203.211ZM173.97 210L171.934 203.211L171.923 202.551H172.532L174.932 210H173.97ZM173.97 207.242V208.051H170.378V207.242H173.97ZM179.818 209.197V210H176.727V209.197H179.818ZM176.896 202.551V210H175.955V202.551H176.896ZM184.801 209.197V210H181.71V209.197H184.801ZM181.879 202.551V210H180.938V202.551H181.879ZM188.438 203.211L186.402 210H185.44L187.84 202.551H188.443L188.438 203.211ZM190.086 210L188.049 203.211L188.039 202.551H188.648L191.047 210H190.086ZM190.086 207.242V208.051H186.494V207.242H190.086ZM195.33 208.117C195.33 207.943 195.309 207.79 195.268 207.657C195.227 207.52 195.156 207.398 195.053 207.288C194.951 207.179 194.808 207.075 194.624 206.976C194.439 206.877 194.206 206.777 193.923 206.675C193.616 206.565 193.338 206.444 193.089 206.311C192.84 206.175 192.627 206.02 192.449 205.846C192.275 205.672 192.141 205.472 192.045 205.247C191.95 205.022 191.902 204.765 191.902 204.475C191.902 204.185 191.951 203.917 192.05 203.671C192.152 203.426 192.296 203.213 192.48 203.032C192.667 202.848 192.893 202.704 193.155 202.602C193.418 202.5 193.711 202.449 194.035 202.449C194.52 202.449 194.927 202.556 195.258 202.771C195.592 202.982 195.845 203.26 196.015 203.605C196.186 203.946 196.271 204.311 196.271 204.7H195.33C195.33 204.42 195.284 204.173 195.191 203.958C195.103 203.74 194.963 203.569 194.772 203.446C194.584 203.32 194.339 203.257 194.035 203.257C193.762 203.257 193.537 203.31 193.36 203.416C193.186 203.521 193.056 203.665 192.971 203.845C192.889 204.026 192.848 204.232 192.848 204.464C192.848 204.621 192.876 204.765 192.93 204.894C192.985 205.02 193.068 205.138 193.181 205.247C193.297 205.356 193.44 205.457 193.611 205.549C193.784 205.641 193.989 205.73 194.224 205.815C194.589 205.934 194.902 206.067 195.161 206.214C195.42 206.361 195.631 206.526 195.795 206.71C195.959 206.891 196.078 207.097 196.153 207.329C196.232 207.558 196.271 207.817 196.271 208.107C196.271 208.411 196.22 208.685 196.117 208.931C196.019 209.176 195.874 209.386 195.683 209.56C195.492 209.734 195.261 209.869 194.992 209.964C194.722 210.056 194.419 210.102 194.081 210.102C193.788 210.102 193.5 210.055 193.217 209.959C192.937 209.864 192.683 209.72 192.454 209.529C192.226 209.338 192.043 209.103 191.907 208.823C191.77 208.54 191.702 208.213 191.702 207.841H192.644C192.644 208.097 192.681 208.317 192.756 208.501C192.831 208.682 192.935 208.832 193.068 208.951C193.201 209.071 193.353 209.159 193.524 209.217C193.698 209.272 193.883 209.299 194.081 209.299C194.354 209.299 194.583 209.251 194.767 209.156C194.954 209.06 195.094 208.924 195.186 208.747C195.282 208.569 195.33 208.359 195.33 208.117ZM202.165 206.516H200.65L200.64 205.723H202.047C202.258 205.723 202.446 205.675 202.61 205.58C202.773 205.484 202.901 205.348 202.993 205.17C203.089 204.99 203.137 204.775 203.137 204.526C203.137 204.253 203.096 204.031 203.014 203.861C202.936 203.687 202.814 203.561 202.651 203.482C202.49 203.4 202.286 203.359 202.037 203.359H200.85V210H199.908V202.551H202.037C202.357 202.551 202.644 202.59 202.896 202.669C203.149 202.744 203.362 202.863 203.536 203.027C203.713 203.187 203.848 203.392 203.94 203.641C204.032 203.89 204.078 204.188 204.078 204.536C204.078 204.843 204.008 205.121 203.868 205.37C203.732 205.615 203.541 205.817 203.295 205.974C203.05 206.131 202.767 206.231 202.446 206.275L202.165 206.516ZM202.129 210H200.261L200.809 209.197H202.129C202.374 209.197 202.582 209.142 202.753 209.033C202.924 208.924 203.053 208.77 203.142 208.573C203.234 208.371 203.28 208.134 203.28 207.861C203.28 207.585 203.242 207.346 203.167 207.145C203.092 206.944 202.973 206.789 202.809 206.68C202.646 206.57 202.431 206.516 202.165 206.516H200.952L200.962 205.723H202.6L202.809 206.009C203.116 206.04 203.374 206.142 203.582 206.316C203.793 206.487 203.952 206.705 204.058 206.971C204.167 207.237 204.221 207.531 204.221 207.851C204.221 208.315 204.134 208.707 203.96 209.028C203.79 209.345 203.548 209.587 203.234 209.754C202.92 209.918 202.552 210 202.129 210ZM209.133 202.551H210.074V207.795C210.074 208.354 209.967 208.803 209.752 209.14C209.537 209.478 209.254 209.724 208.903 209.877C208.555 210.027 208.18 210.102 207.777 210.102C207.347 210.102 206.96 210.027 206.616 209.877C206.271 209.724 205.997 209.478 205.792 209.14C205.591 208.803 205.49 208.354 205.49 207.795V202.551H206.426V207.795C206.426 208.184 206.481 208.487 206.59 208.706C206.703 208.924 206.86 209.077 207.061 209.166C207.265 209.255 207.504 209.299 207.777 209.299C208.053 209.299 208.292 209.255 208.493 209.166C208.698 209.077 208.855 208.924 208.964 208.706C209.077 208.487 209.133 208.184 209.133 207.795V202.551ZM212.453 202.551V210H211.512V202.551H212.453ZM214.965 205.902V206.71H212.274V205.902H214.965ZM215.39 202.551V203.359H212.274V202.551H215.39ZM217.498 202.551V210H216.556V202.551H217.498ZM220.01 205.902V206.71H217.319V205.902H220.01ZM220.434 202.551V203.359H217.319V202.551H220.434ZM225.607 209.197V210H222.373V209.197H225.607ZM222.542 202.551V210H221.601V202.551H222.542ZM225.172 205.754V206.557H222.373V205.754H225.172ZM225.556 202.551V203.359H222.373V202.551H225.556ZM229.306 202.551V210H228.375V202.551H229.306ZM231.265 202.551V203.359H226.42V202.551H231.265Z" fill="white"/>
</svg>
