<svg width="37" height="38" viewBox="0 0 37 38" fill="none" xmlns="http://www.w3.org/2000/svg">
<mask id="mask0_160_1335" style="mask-type:luminance" maskUnits="userSpaceOnUse" x="0" y="0" width="37" height="39">
<path d="M0 0.00671387H37V38.0067H0V0.00671387Z" fill="white"/>
</mask>
<g mask="url(#mask0_160_1335)">
<path fill-rule="evenodd" clip-rule="evenodd" d="M0 19.1128C0 28.5605 6.68004 36.4139 15.4167 38.0067V24.284H10.7917V19.0067H15.4167V14.784C15.4167 10.034 18.3967 7.39613 22.6116 7.39613C23.9467 7.39613 25.3866 7.60671 26.7217 7.8173V12.6734H24.3583C22.0967 12.6734 21.5833 13.834 21.5833 15.3128V19.0067H26.5167L25.695 24.284H21.5833V38.0067C30.32 36.4139 37 28.5605 37 19.1128C37 8.60421 28.675 0.00671387 18.5 0.00671387C8.325 0.00671387 0 8.60421 0 19.1128Z" fill="white"/>
</g>
</svg>
