<?xml version="1.0" encoding="UTF-8"?>
<svg id="Layer_2" xmlns="http://www.w3.org/2000/svg" viewBox="0 0 778.44 391.34">
  <defs>
    <style>
      .cls-1 {
        font-size: 82.73px;
      }

      .cls-1, .cls-2 {
        font-family: CaesarDressing, 'Caesar Dressing';
      }

      .cls-3 {
        fill: #fff;
      }

      .cls-2 {
        font-size: 200.32px;
      }
    </style>
  </defs>
  <g id="outline">
    <g>
      <g>
        <text class="cls-2" transform="translate(478.35 237.46)"><tspan x="0" y="0">Foo</tspan></text>
        <text class="cls-1" transform="translate(486.76 311.39)"><tspan x="0" y="0">FEstIval</tspan></text>
      </g>
      <g id="valkyrie">
        <polygon points="291.89 206.78 327.96 190.61 326.13 186.54 297.52 199.37 308.06 129.8 303.65 129.13 291.89 206.78"/>
        <path d="M205.16,175.99c.1-.66.47-1.24,1.01-1.61.46-.32,6.67-4.7,11.11-8.9.28-.26.55-.52.81-.8-.43-1.62-.84-3.26-1.19-4.91-.7-3.15-1.25-6.33-1.65-9.57-.56-4.42-.85-8.92-.85-13.5,0-1.41.02-2.8.09-4.19,1.26-33.09,17.55-62.4,42.23-81.28,1.23-.95,2.49-1.87,3.76-2.75.51,1.45,1.06,2.88,1.64,4.29,2.04,5.04,4.47,9.88,7.26,14.49,14.5-7.31,30.88-11.41,48.19-11.41,22.57,0,43.55,6.99,60.88,18.94l14.92-39.68,32.46-10.61L495.02,0l-12.35,36.57-47.98,17-4.14,11.57,49.74-17.62-12.35,36.57-50.58,17.91-4.13,11.57,52.33-18.54-12.35,36.57-30.15,10.67c.51,2.54.94,5.12,1.26,7.72.56,4.42.85,8.92.85,13.5,0,1.35-.02,2.7-.09,4.04h.09l-.96,16.32,40.23,34.32-60-12.31-5.02-1.03-3.93-.8-2.34-.48-2.3-.47-20.77-4.26c-4.54,3.71-10.23,6.09-16.44,6.49h-.01c-.64.04-1.26.07-1.91.07-6.52,0-12.56-2.16-17.41-5.83h-.01c-1.36-1.03-2.62-2.16-3.78-3.41-1.25-1.33-2.36-2.77-3.33-4.31-.54-.85-1.04-1.73-1.48-2.64-1.93-3.87-3-8.23-3-12.84,0-5.55,1.56-10.74,4.27-15.15-3.6-12.16-11.29-22.57-21.46-29.66-8.94-6.22-19.8-9.87-31.47-9.87-20.96,0-39.24,11.74-48.56,29v4.61c0,2.16,0,4.23.01,5.59.02,1.83-1.22,3.89-3.97,6.7-.4.41-.83.83-1.23,1.19-3.06,2.9-6.88,5.84-9.29,7.64-.14.1-.28.2-.41.3-.01.01-.02.01-.03.02l.06.06h0s8.3,9.34,8.3,9.34c.01.01.01.02.01.02l1.49,1.67.08.09c.56.69.69,1.63.32,2.5l-6.21,13.75c.12.25.26.5.38.76,1.72,3.46,3.85,8.02,3.85,9.34,0,.18-.02.37-.07.58h0c-.16.78-.64,1.85-1.74,4.22-.26.56-.54,1.14-.8,1.74h0c-.36.8-.71,1.61-1.03,2.35-.56,1.33-.79,2.09-.89,2.49.17.22.39.52.66.91,1.08,1.55,2.62,3.96,3.47,5.29.45.69.94,1.47,1.35,2.14.35.55.64,1.03.81,1.32l.77.83-.35,1.08-1.12,10.54-.86,8.12s.03.01.04.01l.14.02c6.33.95,28.24,4.47,44.01,10.03l.14.06c5.09,1.83,9.11,3.71,12.01,5.62,1.22.83,2.2,1.62,3,2.43,7.83,7.82,30.8,36.02,45.33,54.07,2.63,3.27,4.99,6.2,6.93,8.62.33.42.64.8.9,1.14l.22-.17c.03,1.57.95,2.95,2.28,3.86l-1.3.96-3.16-.02c-.13-.11-.26-.23-.36-.38l-.22-.29c-.38-.47-1-1.25-1.85-2.31-.23-.3-.49-.61-.76-.94-10.63-13.28-42.05-52.3-51.16-61.41-.6-.59-1.39-1.23-2.36-1.88-2.58-1.7-6.31-3.42-11.12-5.15l-.11-.04c-15.39-5.41-36.86-8.86-43.14-9.79l-.17-.03c-.67-.1-1.18-.18-1.53-.22l-.29-.04c-.65-.07-1.23-.39-1.62-.89-.4-.5-.59-1.15-.51-1.75l2.13-20.15c-.39-.61-1.05-1.68-1.9-3.01-.8-1.26-2.3-3.6-3.33-5.1-.52-.75-.74-.98-.74-.99-1.35-1.34-.86-3.38.5-6.67.58-1.39,1.28-2.91,1.91-4.25.49-1.06,1.07-2.32,1.33-2.97-.54-1.54-2.87-6.46-4.12-8.91-.31-.61-.35-1.34-.04-2.07l6.06-13.43-10.52-11.82c-.46-.55-.66-1.25-.56-1.95ZM317.57,60.32c-16.43,0-31.98,3.86-45.77,10.74,18.49,27.79,50.11,46.14,85.92,46.14,1.62,0,3.22-.03,4.83-.11l14.29-37.99c-16.77-11.83-37.23-18.78-59.27-18.78ZM433.23,133.94l16.46-5.82,8.71-25.82-43.45,15.38-3.65,1.29-.58.21-4.84,1.72,1.94-5.42.41-1.16,1.97-5.54,1.74-4.86,1.94-5.42,5.42-1.92,45.1-15.97,8.72-25.82-44.52,15.76-5.42,1.93,1.94-5.42,4.13-11.57,1.94-5.42,5.42-1.92,42.53-15.06,8.71-25.82-41.94,14.84-18.42,6.54-17.03,5.55-13.68,4.47-14.59,38.8-1.64,4.36-13.13,34.9-1.74,4.62-9.86,26.24c6.28.88,11.93,3.79,16.26,8.05h.01l11.88-4.27,33.9-12.01,4.22-1.48,11.13-3.95ZM402.7,200.93l4.88,1,40.8,8.36-28.74-24.5.26-4.33c-.39.86.59-8.7.77-14.54.04-1.14.07-2.29.07-3.45,0-6.74-.65-13.33-1.88-19.71l-34.12,12.08-9.51,3.41c3.5,4.78,5.57,10.68,5.57,17.06,0,7.13-2.58,13.65-6.85,18.7l28.76,5.9ZM328.71,184.82c.81,2.22,1.94,4.29,3.33,6.16,4.48,6.02,11.64,9.93,19.71,9.93,13.55,0,24.57-11.02,24.57-24.57,0-5.87-2.06-11.25-5.51-15.48-1.04-1.27-2.2-2.44-3.48-3.48-3.65-3.01-8.16-4.99-13.12-5.48-.81-.08-1.63-.12-2.46-.12-.77,0-1.54.03-2.29.1-7.23.68-13.57,4.51-17.61,10.09-1.37,1.88-2.48,3.97-3.26,6.2-.91,2.55-1.41,5.31-1.41,8.16s.54,5.84,1.52,8.49ZM219.96,151.74c.35-.75.71-1.48,1.09-2.21.69-1.35,1.44-2.68,2.24-3.96,10.52-17.02,29.34-28.37,50.78-28.37,25.87,0,47.96,16.55,56.2,39.64,5.19-5.71,12.63-9.36,20.9-9.51l9.67-25.71c-1.04.03-2.07.04-3.12.04-37.53,0-70.64-19.32-89.9-48.53-.83-1.24-1.62-2.5-2.39-3.78-2.65-4.41-5-9.01-7-13.81-18.93,14.87-32.54,36.19-37.51,60.62-1.13,5.55-1.81,11.26-1.99,17.11-.04,1.14-.07,2.29-.07,3.45,0,5.1.37,10.12,1.09,15.02Z"/>
        <path d="M390.88,203.06c.12-.23.26-.46.38-.67,1.18-2,2.15-2.98,2.26-3.08l3.15,3.16s-.49.5-1.15,1.54c-.14.2-.28.42-.42.67-1.67,2.78-4.47,9.02-4.47,19.58,0,1.65.02,3.25.07,4.8.03,1.39.09,2.73.17,4.03.13,2.31.31,4.31.5,6-.61,2.63-.88,5.5-.67,8.63l-.07.07-1.2,1.78-.69-.51-.23-.72c-.12-.37-.99-3.2-1.65-9.35-.17-1.64-.32-3.52-.45-5.65-.16-2.81-.23-5.87-.23-9.07,0-10.44,2.48-17.22,4.72-21.2Z"/>
        <path d="M269.05,158.46s-5.58,0-10.04,2.23c-4.46,2.23-8.42,5.58-8.42,5.58,0,0,.61-4.46-6.08-13.38-6.69-8.92-8.92-11.15-8.92-11.15,0,0,17.84-18.96,42.38-14.5,3.96.72,16.73,19.42,16.73,19.42,0,0-16.73-4.92-20.08-3.8-3.35,1.12-5.58,4.46-5.58,4.46,0,0,3.45,1.12,7.3,4.46s6.08,6.69,6.08,6.69c0,0-8.92-7.81-13.38-7.81s-10.04,3.35-10.04,3.35c0,0,5.58,1.12,10.04,4.46Z"/>
        <path d="M251.21,212s-15-7.81-20.33-8.92-16.48,1.98-16.48,1.98l3.35,10.29s8.92-5.58,33.46-3.35Z"/>
        <path d="M240.05,232.07s-7.66-12.88-11.15-13.38c-7.81-1.12-15.74,3.57-15.74,3.57v7.98l5.7,4.61s4.46-6.12,21.19-2.77Z"/>
        <path d="M334.33,199.53s-5.43,22.28-19.78,29.56c-43.27,21.95-95.69,18.56-95.69,18.56l-2.21,9.91,54.63,12.44,59.8,70.78s-25.23-44.01-31.92-54.05c-6.69-10.04-4.46-13.6-4.46-13.6,0,0,14.5,1.33,25.65,14.71,11.15,13.38,14.5,23.42,14.5,23.42,0,0-10.68-25.11-3.66-49.36,7.01-24.25,23.52-58.82,23.52-58.82l-15.32-3.55h-5.05Z"/>
        <path d="M210.52,176.33s2.77-.03,11.69,4.43c8.92,4.46,15.61,10.47,10.6,12.48-5.02,2.01-11.68-6.66-16.15-8.46-4.48-1.79-6.13-8.46-6.13-8.46Z"/>
        <path d="M413.67,297.26h.01c.78-1.43,1.81-3.36,2.96-5.63l.03-.07c.27-.51.52-1.04.8-1.57l-.36.72-1.59,3.25,4.35-.79c.14-.02.54-.1,1.12-.21-.18.35-.35.68-.52,1.01-.01,0-.02.01-.03.01l-3.66,6.93-.02.04h0c-.42.76-.69,1.24-.78,1.38l-1.49,2.58c.32-3.95-.47-6.83-.52-7.02l-.11-.38-.18-.25-.3-.42c.1.14.21.28.31.41ZM428.92,255.55l.03.21c.49,2.92-.98,8.5-3.1,14.44,1.76-5.25,2.99-10.39,3.07-14.65ZM413.67,297.26h.01c.78-1.43,1.81-3.36,2.96-5.63l.03-.07c.27-.51.52-1.04.8-1.57l-.36.72-1.59,3.25,4.35-.79c.14-.02.54-.1,1.12-.21-.18.35-.35.68-.52,1.01-.01,0-.02.01-.03.01l-3.66,6.93-.02.04h0c-.42.76-.69,1.24-.78,1.38l-1.49,2.58c.32-3.95-.47-6.83-.52-7.02l-.11-.38-.18-.25-.3-.42c.1.14.21.28.31.41ZM428.92,255.55l.03.21c.49,2.92-.98,8.5-3.1,14.44,1.76-5.25,2.99-10.39,3.07-14.65ZM413.67,297.26h.01c.78-1.43,1.81-3.36,2.96-5.63l.03-.07c.27-.51.52-1.04.8-1.57l-.36.72-1.59,3.25,4.35-.79c.14-.02.54-.1,1.12-.21-.18.35-.35.68-.52,1.01-.01,0-.02.01-.03.01l-3.66,6.93-.02.04h0c-.42.76-.69,1.24-.78,1.38l-1.49,2.58c.32-3.95-.47-6.83-.52-7.02l-.11-.38-.18-.25-.3-.42c.1.14.21.28.31.41ZM428.92,255.55l.03.21c.49,2.92-.98,8.5-3.1,14.44,1.76-5.25,2.99-10.39,3.07-14.65ZM413.67,297.26h.01c.78-1.43,1.81-3.36,2.96-5.63l.03-.07c.27-.51.52-1.04.8-1.57l-.36.72-1.59,3.25,4.35-.79c.14-.02.54-.1,1.12-.21-.18.35-.35.68-.52,1.01-.01,0-.02.01-.03.01l-3.66,6.93-.02.04h0c-.42.76-.69,1.24-.78,1.38l-1.49,2.58c.32-3.95-.47-6.83-.52-7.02l-.11-.38-.18-.25-.3-.42c.1.14.21.28.31.41ZM428.92,255.55l.03.21c.49,2.92-.98,8.5-3.1,14.44,1.76-5.25,2.99-10.39,3.07-14.65ZM413.67,297.26h.01c.78-1.43,1.81-3.36,2.96-5.63l.03-.07c.27-.51.52-1.04.8-1.57l-.36.72-1.59,3.25,4.35-.79c.14-.02.54-.1,1.12-.21-.18.35-.35.68-.52,1.01-.01,0-.02.01-.03.01l-3.66,6.93-.02.04h0c-.42.76-.69,1.24-.78,1.38l-1.49,2.58c.32-3.95-.47-6.83-.52-7.02l-.11-.38-.18-.25-.3-.42c.1.14.21.28.31.41ZM428.92,255.55l.03.21c.49,2.92-.98,8.5-3.1,14.44,1.76-5.25,2.99-10.39,3.07-14.65ZM405.5,285.53c.93,1.52,1.84,2.93,2.72,4.24v.02s.07.08.07.08c1.92,2.84,3.62,5.14,4.93,6.8l.14.18c.1.14.21.28.31.41h.01c.78-1.43,1.81-3.36,2.96-5.63l.03-.07c.27-.51.52-1.04.8-1.57l-.36.72-1.59,3.25,4.35-.79c.14-.02.54-.1,1.12-.21-.18.35-.35.68-.52,1.01-.01,0-.02.01-.03.01l-3.66,6.93-.02.04h0c-.42.76-.69,1.24-.78,1.38l-1.49,2.58-.06.09-2.04-2.3c-.08-.09-.32-.37-.72-.84-.45-.54-1.09-1.33-1.9-2.34,0-.02-.01-.04-.01-.07l-5.22-7.17-2.29-4.34,3.26-2.42ZM428.92,255.55l.03.21c.49,2.92-.98,8.5-3.1,14.44,1.76-5.25,2.99-10.39,3.07-14.65ZM405.5,285.53c.93,1.52,1.84,2.93,2.72,4.24v.02s.07.08.07.08c1.92,2.84,3.62,5.14,4.93,6.8l.14.18c.1.14.21.28.31.41h.01c.78-1.43,1.81-3.36,2.96-5.63l.03-.07c.27-.51.52-1.04.8-1.57l-.36.72-1.59,3.25,4.35-.79c.14-.02.54-.1,1.12-.21-.18.35-.35.68-.52,1.01-.01,0-.02.01-.03.01l-3.66,6.93-.02.04h0c-.42.76-.69,1.24-.78,1.38l-1.49,2.58-.06.09-2.04-2.3c-.08-.09-.32-.37-.72-.84-.45-.54-1.09-1.33-1.9-2.34,0-.02-.01-.04-.01-.07l-5.22-7.17-2.29-4.34,3.26-2.42ZM428.95,255.76c.49,2.92-.98,8.5-3.1,14.44,1.76-5.25,2.99-10.39,3.07-14.65l.03.21ZM386.84,238.99c.42-2.05,1.04-3.98,1.78-5.78.6-1.47,1.3-2.86,2.06-4.15,6.15-10.54,16.43-15.64,16.6-15.73l.7-.35.76.18c9.06,2.05,17.18,14.93,21.74,28.45.61,1.81,1.16,3.61,1.63,5.42.31,1.18.6,2.36.85,3.52.3,1.41.42,2.96.41,4.6-.07,5.75-1.92,12.75-4.39,19.56-.07.16-.12.32-.18.48-1.63,4.42-3.5,8.74-5.31,12.6-.08.18-.17.36-.25.52-.78,1.64-1.54,3.2-2.25,4.63-.18.35-.35.68-.52,1.01-1.56,3.07-2.88,5.5-3.69,6.94l-.02.04h0c-.42.76-.69,1.24-.78,1.38l-1.49,2.58-.06.09-2.04-2.3c-.08-.09-.32-.37-.72-.84-.45-.54-1.09-1.33-1.9-2.34-1.96-2.49-4.81-6.36-7.89-11.3-3.19-5.1-6.62-11.35-9.56-18.44-.62-1.46-1.22-2.97-1.77-4.51-1.22-3.31-2.31-6.77-3.2-10.36-1.49-5.98-1.47-11.29-.5-15.94ZM413.21,296.67l.14.18c.1.14.21.28.31.41h.01c.78-1.43,1.81-3.36,2.96-5.63l.03-.07c.27-.51.52-1.04.8-1.57.21-.42.43-.9.68-1.42,2.62-5.35,5.55-11.93,7.7-18.36h0c1.76-5.26,2.99-10.41,3.07-14.67.03-1.47-.07-2.82-.33-4.05-.31-1.47-.69-2.97-1.1-4.46-3.7-13.16-11.3-26.82-18.97-29.31-3.01,1.64-14.19,8.51-17.15,21.36-.61,2.63-.88,5.5-.67,8.63v.02c.13,1.93.45,3.96.98,6.09.97,3.89,2.2,7.65,3.57,11.23,3.02,7.89,6.78,14.87,10.26,20.47.93,1.52,1.84,2.93,2.72,4.24v.02s.07.08.07.08c1.92,2.84,3.62,5.14,4.93,6.8ZM428.92,255.55l.03.21c.49,2.92-.98,8.5-3.1,14.44,1.76-5.25,2.99-10.39,3.07-14.65ZM405.5,285.53c.93,1.52,1.84,2.93,2.72,4.24v.02s.07.08.07.08c1.92,2.84,3.62,5.14,4.93,6.8l.14.18c.1.14.21.28.31.41h.01c.78-1.43,1.81-3.36,2.96-5.63l.03-.07c.27-.51.52-1.04.8-1.57l-.36.72-1.59,3.25,4.35-.79c.14-.02.54-.1,1.12-.21-.18.35-.35.68-.52,1.01-.01,0-.02.01-.03.01l-3.66,6.93-.02.04h0c-.42.76-.69,1.24-.78,1.38l-1.49,2.58-.06.09-2.04-2.3c-.08-.09-.32-.37-.72-.84-.45-.54-1.09-1.33-1.9-2.34,0-.02-.01-.04-.01-.07l-5.22-7.17-2.29-4.34,3.26-2.42ZM428.92,255.55l.03.21c.49,2.92-.98,8.5-3.1,14.44,1.76-5.25,2.99-10.39,3.07-14.65ZM405.5,285.53c.93,1.52,1.84,2.93,2.72,4.24v.02s.07.08.07.08c1.92,2.84,3.62,5.14,4.93,6.8l.14.18c.1.14.21.28.31.41h.01c.78-1.43,1.81-3.36,2.96-5.63l.03-.07c.27-.51.52-1.04.8-1.57l-.36.72-1.59,3.25,4.35-.79c.14-.02.54-.1,1.12-.21-.18.35-.35.68-.52,1.01-.01,0-.02.01-.03.01l-3.66,6.93-.02.04h0c-.42.76-.69,1.24-.78,1.38l-1.49,2.58-.06.09-2.04-2.3c-.08-.09-.32-.37-.72-.84-.45-.54-1.09-1.33-1.9-2.34,0-.02-.01-.04-.01-.07l-5.22-7.17-2.29-4.34,3.26-2.42ZM428.92,255.55l.03.21c.49,2.92-.98,8.5-3.1,14.44,1.76-5.25,2.99-10.39,3.07-14.65ZM413.67,297.26h.01c.78-1.43,1.81-3.36,2.96-5.63l.03-.07c.27-.51.52-1.04.8-1.57l-.36.72-1.59,3.25,4.35-.79c.14-.02.54-.1,1.12-.21-.18.35-.35.68-.52,1.01-.01,0-.02.01-.03.01l-3.66,6.93-.02.04h0c-.42.76-.69,1.24-.78,1.38l-1.49,2.58c.32-3.95-.47-6.83-.52-7.02l-.11-.38-.18-.25-.3-.42c.1.14.21.28.31.41ZM428.92,255.55l.03.21c.49,2.92-.98,8.5-3.1,14.44,1.76-5.25,2.99-10.39,3.07-14.65ZM413.67,297.26h.01c.78-1.43,1.81-3.36,2.96-5.63l.03-.07c.27-.51.52-1.04.8-1.57l-.36.72-1.59,3.25,4.35-.79c.14-.02.54-.1,1.12-.21-.18.35-.35.68-.52,1.01-.01,0-.02.01-.03.01l-3.66,6.93-.02.04h0c-.42.76-.69,1.24-.78,1.38l-1.49,2.58c.32-3.95-.47-6.83-.52-7.02l-.11-.38-.18-.25-.3-.42c.1.14.21.28.31.41ZM428.92,255.55l.03.21c.49,2.92-.98,8.5-3.1,14.44,1.76-5.25,2.99-10.39,3.07-14.65ZM413.67,297.26h.01c.78-1.43,1.81-3.36,2.96-5.63l.03-.07c.27-.51.52-1.04.8-1.57l-.36.72-1.59,3.25,4.35-.79c.14-.02.54-.1,1.12-.21-.18.35-.35.68-.52,1.01-.01,0-.02.01-.03.01l-3.66,6.93-.02.04h0c-.42.76-.69,1.24-.78,1.38l-1.49,2.58c.32-3.95-.47-6.83-.52-7.02l-.11-.38-.18-.25-.3-.42c.1.14.21.28.31.41ZM428.92,255.55l.03.21c.49,2.92-.98,8.5-3.1,14.44,1.76-5.25,2.99-10.39,3.07-14.65ZM413.67,297.26h.01c.78-1.43,1.81-3.36,2.96-5.63l.03-.07c.27-.51.52-1.04.8-1.57l-.36.72-1.59,3.25,4.35-.79c.14-.02.54-.1,1.12-.21-.18.35-.35.68-.52,1.01-.01,0-.02.01-.03.01l-3.66,6.93-.02.04h0c-.42.76-.69,1.24-.78,1.38l-1.49,2.58c.32-3.95-.47-6.83-.52-7.02l-.11-.38-.18-.25-.3-.42c.1.14.21.28.31.41Z"/>
        <path d="M417.12,290.71l.36-.72c.21-.42.43-.9.68-1.42,2.09-4.36,5.31-11.6,7.7-18.36h0c2.12-5.96,3.59-11.53,3.1-14.45l-.03-.21-1.44-8.51-.19-1.08.62-.78c.7-.88,1.59-2.1,2.57-3.56,3.8-5.77,8.61-15.16,6.06-20.91l-3.3-7.43,6.64,4.71c.86.61,21.22,15.31,25.62,39.91,1.94,10.87-5.44,18.77-14.8,24.29-3.42,2.03-7.12,3.75-10.72,5.16-3.42,1.35-6.76,2.44-9.7,3.3-4.19,1.22-7.58,1.96-9.28,2.31-.58.11-.97.19-1.12.21l-4.35.79,1.59-3.25ZM437.72,283.4s.06-.02.08-.03c12.19-4.7,25.45-12.66,23.3-24.69-2.86-15.99-13.36-27.74-19.42-33.35-.46,8.83-7.29,18.67-9.57,21.71-.03.04-.06.09-.09.12l1.33,7.85s.01.09.02.14c.67,4.42-1.63,12.23-4.39,19.56-.07.16-.12.32-.18.48-1.86,4.84-3.88,9.42-5.35,12.61.01,0,.03-.01.04-.01,1.76-.42,3.95-1,6.38-1.74,2.43-.72,5.12-1.62,7.85-2.67Z"/>
        <path d="M394.01,321.65l-.89.38-.09-.08c.33-.09.66-.2.98-.3ZM409.76,299.52c.8,1.01,1.45,1.81,1.9,2.34l-2.26,6.07c1.12-3.87.6-7.27.37-8.41ZM392.39,321.39l-.86-.77-.5-1.81c.5,1.01.97,1.88,1.36,2.58ZM394.01,321.65l-.89.38-.09-.08c.33-.09.66-.2.98-.3ZM409.76,299.52c.8,1.01,1.45,1.81,1.9,2.34l-2.26,6.07c1.12-3.87.6-7.27.37-8.41ZM392.39,321.39l-.86-.77-.5-1.81c.5,1.01.97,1.88,1.36,2.58ZM394.01,321.65l-.89.38-.09-.08c.33-.09.66-.2.98-.3ZM409.76,299.52c.8,1.01,1.45,1.81,1.9,2.34l-2.26,6.07c1.12-3.87.6-7.27.37-8.41ZM392.39,321.39l-.86-.77-.5-1.81c.5,1.01.97,1.88,1.36,2.58ZM394.01,321.65l-.89.38-.09-.08c.33-.09.66-.2.98-.3ZM409.76,299.52c.8,1.01,1.45,1.81,1.9,2.34l-2.26,6.07c1.12-3.87.6-7.27.37-8.41ZM392.39,321.39l-.86-.77-.5-1.81c.5,1.01.97,1.88,1.36,2.58ZM394.01,321.65l-.89.38-.09-.08c.33-.09.66-.2.98-.3ZM409.76,299.52c.8,1.01,1.45,1.81,1.9,2.34l-2.26,6.07c1.12-3.87.6-7.27.37-8.41ZM392.39,321.39l-.86-.77-.5-1.81c.5,1.01.97,1.88,1.36,2.58ZM394.01,321.65l-.89.38-.09-.08c.33-.09.66-.2.98-.3ZM409.76,299.52c.8,1.01,1.45,1.81,1.9,2.34l-2.26,6.07c1.12-3.87.6-7.27.37-8.41ZM392.39,321.39l-.86-.77-.5-1.81c.5,1.01.97,1.88,1.36,2.58ZM393.12,322.03l-.09-.08c.33-.09.66-.2.98-.3l-.89.38ZM409.76,299.52c.8,1.01,1.45,1.81,1.9,2.34l-2.26,6.07c1.12-3.87.6-7.27.37-8.41ZM390.54,265.28c.71-.66,1.18-1.03,1.28-1.1l2.11-1.61,1.3,2.49,10.62,20.2,2.36,4.51v.02s.07.08.07.08l4.93,6.8.14.18.3.42.18.25.11.38c.06.19.85,3.07.52,7.02-.11,1.32-.35,2.75-.78,4.26-.3,1.03-.68,2.09-1.18,3.16-.02.04-.06.1-.08.14-.21.43-.43.88-.69,1.33-.89,1.57-2,3.03-3.28,4.36-.09.1-.19.2-.28.28-1.71,1.73-3.74,3.23-6.08,4.53-.11.08-.22.14-.35.2-1.84,1-3.87,1.87-6.09,2.62-.9.31-1.85.6-2.82.86-.19.06-.37.11-.56.16l-1.53.39-.88-1.32c-.09-.13-.66-.99-1.49-2.48-.43-.79-.96-1.76-1.52-2.89-1.93-3.89-4.36-9.69-5.92-16.7-.21-.93-.4-1.87-.57-2.86-.32-1.76-.58-3.6-.76-5.5-.07-.64-.11-1.27-.16-1.92-.97-15.52,7.71-25.14,11.07-28.26ZM391.03,318.82c.5,1.01.97,1.88,1.36,2.58.13.23.26.45.37.65.09-.02.18-.06.27-.09.33-.09.66-.2.98-.3,6.61-2.2,11.25-5.55,13.82-10,.26-.45.48-.88.67-1.33.38-.8.67-1.61.89-2.39,1.12-3.87.6-7.27.37-8.41,0-.02-.01-.04-.01-.07l-5.22-7.17-2.29-4.34-9.69-18.4c-.08.08-.16.16-.23.25-3.33,3.52-9.13,11.48-8.39,23.49.1,1.64.27,3.25.5,4.81.13.95.29,1.87.47,2.79,1.47,7.62,4.14,13.95,6.13,17.95ZM409.76,299.52c.8,1.01,1.45,1.81,1.9,2.34l-2.26,6.07c1.12-3.87.6-7.27.37-8.41ZM394.01,321.65l-.89.38-.09-.08c.33-.09.66-.2.98-.3ZM392.39,321.39l-.86-.77-.5-1.81c.5,1.01.97,1.88,1.36,2.58ZM409.76,299.52c.8,1.01,1.45,1.81,1.9,2.34l-2.26,6.07c1.12-3.87.6-7.27.37-8.41ZM394.01,321.65l-.89.38-.09-.08c.33-.09.66-.2.98-.3ZM392.39,321.39l-.86-.77-.5-1.81c.5,1.01.97,1.88,1.36,2.58ZM409.76,299.52c.8,1.01,1.45,1.81,1.9,2.34l-2.26,6.07c1.12-3.87.6-7.27.37-8.41ZM394.01,321.65l-.89.38-.09-.08c.33-.09.66-.2.98-.3ZM392.39,321.39l-.86-.77-.5-1.81c.5,1.01.97,1.88,1.36,2.58ZM409.76,299.52c.8,1.01,1.45,1.81,1.9,2.34l-2.26,6.07c1.12-3.87.6-7.27.37-8.41ZM394.01,321.65l-.89.38-.09-.08c.33-.09.66-.2.98-.3ZM392.39,321.39l-.86-.77-.5-1.81c.5,1.01.97,1.88,1.36,2.58ZM409.76,299.52c.8,1.01,1.45,1.81,1.9,2.34l-2.26,6.07c1.12-3.87.6-7.27.37-8.41ZM394.01,321.65l-.89.38-.09-.08c.33-.09.66-.2.98-.3ZM392.39,321.39l-.86-.77-.5-1.81c.5,1.01.97,1.88,1.36,2.58ZM409.76,299.52c.8,1.01,1.45,1.81,1.9,2.34l-2.26,6.07c1.12-3.87.6-7.27.37-8.41ZM394.01,321.65l-.89.38-.09-.08c.33-.09.66-.2.98-.3Z"/>
        <path d="M402.11,322.97l-.14.11-.2.09c.12-.06.23-.12.35-.2ZM408.46,318.16l-.1.14-.18.13c.09-.08.19-.18.28-.28ZM412.51,312.33l-.03.09-.04.06s.06-.1.08-.14ZM414.48,304.91l1.49-2.58c.09-.14.36-.62.78-1.37l-3.06,8.21c.43-1.51.67-2.94.78-4.26ZM402.11,322.97l-.14.11-.2.09c.12-.06.23-.12.35-.2ZM408.46,318.16l-.1.14-.18.13c.09-.08.19-.18.28-.28ZM412.51,312.33l-.03.09-.04.06s.06-.1.08-.14ZM414.48,304.91l1.49-2.58c.09-.14.36-.62.78-1.37l-3.06,8.21c.43-1.51.67-2.94.78-4.26ZM402.11,322.97l-.14.11-.2.09c.12-.06.23-.12.35-.2ZM408.46,318.16l-.1.14-.18.13c.09-.08.19-.18.28-.28ZM412.51,312.33l-.03.09-.04.06s.06-.1.08-.14ZM414.48,304.91l1.49-2.58c.09-.14.36-.62.78-1.37l-3.06,8.21c.43-1.51.67-2.94.78-4.26ZM402.11,322.97l-.14.11-.2.09c.12-.06.23-.12.35-.2ZM408.46,318.16l-.1.14-.18.13c.09-.08.19-.18.28-.28ZM412.51,312.33l-.03.09-.04.06s.06-.1.08-.14ZM414.48,304.91l1.49-2.58c.09-.14.36-.62.78-1.37l-3.06,8.21c.43-1.51.67-2.94.78-4.26ZM402.11,322.97l-.14.11-.2.09c.12-.06.23-.12.35-.2ZM408.46,318.16l-.1.14-.18.13c.09-.08.19-.18.28-.28ZM412.51,312.33l-.03.09-.04.06s.06-.1.08-.14ZM414.48,304.91l1.49-2.58c.09-.14.36-.62.78-1.37l-3.06,8.21c.43-1.51.67-2.94.78-4.26ZM402.11,322.97l-.14.11-.2.09c.12-.06.23-.12.35-.2ZM408.46,318.16l-.1.14-.18.13c.09-.08.19-.18.28-.28ZM412.51,312.33l-.03.09-.04.06s.06-.1.08-.14ZM414.48,304.91l1.49-2.58c.09-.14.36-.62.78-1.37l-3.06,8.21c.43-1.51.67-2.94.78-4.26ZM402.11,322.97l-.14.11-.2.09c.12-.06.23-.12.35-.2ZM408.36,318.31l-.18.13c.09-.08.19-.18.28-.28l-.1.14ZM412.48,312.42l-.04.06s.06-.1.08-.14l-.03.09ZM415.97,302.33c.09-.14.36-.62.78-1.37l-3.06,8.21c.43-1.51.67-2.94.78-4.26l1.49-2.58ZM391.53,320.62l.86.77.64.56.09.08.89-.38,5.61-2.42.03-.02s.03-.01.04-.02h0s.01,0,.02-.02l5.4-4.02,3.38-4.84.89-2.39,2.26-6.07.99-2.65,1.01-1.94h.01s2.97-5.64,2.97-5.64l.03-.07.45-.85.21-.4.86-.29s1.47-.47,5.05-1.7c1.62-.55,3.66-1.25,6.2-2.12.14-.04.28-.1.42-.14,2.59-.89,5.32-1.82,7.85-2.67.03-.01.06-.02.08-.03,5.39-1.81,9.81-3.27,9.88-3.29l2.17-.72.66,2.19c.02.09.09.3.18.65,1.32,4.68,8.05,32.06-8.64,43.2-4.55,3.03-10.23,5.34-16.13,7.1-1.43.42-2.87.81-4.32,1.18-11.98,3.02-24,3.98-28.79,4.26-1.19.07-1.94.09-2.12.1l-2.31.08v-20.25l3.15,2.78ZM439.57,321.67c12.66-8.44,8.89-29.69,7.25-36.62-1.66.56-4.1,1.36-6.85,2.29-2.88.96-6.09,2.05-9.08,3.08-.21.08-.42.14-.62.22-5.39,1.85-8.43,2.87-9.8,3.32-.01,0-.02.01-.03.01l-3.66,6.93-.02.04h0s-3.06,8.22-3.06,8.22l-1.18,3.16-.03.09-.04.06-3.97,5.69-.1.14-.18.13-6.08,4.53-.14.11-.2.09-6.09,2.62-2.82,1.22v6.44c7.76-.49,33.2-2.75,46.72-11.77ZM414.48,304.91l1.49-2.58c.09-.14.36-.62.78-1.37l-3.06,8.21c.43-1.51.67-2.94.78-4.26ZM412.51,312.33l-.03.09-.04.06s.06-.1.08-.14ZM408.46,318.16l-.1.14-.18.13c.09-.08.19-.18.28-.28ZM402.11,322.97l-.14.11-.2.09c.12-.06.23-.12.35-.2ZM414.48,304.91l1.49-2.58c.09-.14.36-.62.78-1.37l-3.06,8.21c.43-1.51.67-2.94.78-4.26ZM412.51,312.33l-.03.09-.04.06s.06-.1.08-.14ZM408.46,318.16l-.1.14-.18.13c.09-.08.19-.18.28-.28ZM402.11,322.97l-.14.11-.2.09c.12-.06.23-.12.35-.2ZM414.48,304.91l1.49-2.58c.09-.14.36-.62.78-1.37l-3.06,8.21c.43-1.51.67-2.94.78-4.26ZM412.51,312.33l-.03.09-.04.06s.06-.1.08-.14ZM408.46,318.16l-.1.14-.18.13c.09-.08.19-.18.28-.28ZM402.11,322.97l-.14.11-.2.09c.12-.06.23-.12.35-.2ZM414.48,304.91l1.49-2.58c.09-.14.36-.62.78-1.37l-3.06,8.21c.43-1.51.67-2.94.78-4.26ZM412.51,312.33l-.03.09-.04.06s.06-.1.08-.14ZM408.46,318.16l-.1.14-.18.13c.09-.08.19-.18.28-.28ZM402.11,322.97l-.14.11-.2.09c.12-.06.23-.12.35-.2ZM414.48,304.91l1.49-2.58c.09-.14.36-.62.78-1.37l-3.06,8.21c.43-1.51.67-2.94.78-4.26ZM412.51,312.33l-.03.09-.04.06s.06-.1.08-.14ZM408.46,318.16l-.1.14-.18.13c.09-.08.19-.18.28-.28ZM402.11,322.97l-.14.11-.2.09c.12-.06.23-.12.35-.2ZM414.48,304.91l1.49-2.58c.09-.14.36-.62.78-1.37l-3.06,8.21c.43-1.51.67-2.94.78-4.26ZM412.51,312.33l-.03.09-.04.06s.06-.1.08-.14ZM408.46,318.16l-.1.14-.18.13c.09-.08.19-.18.28-.28ZM402.11,322.97l-.14.11-.2.09c.12-.06.23-.12.35-.2Z"/>
        <path d="M358.35,328.58c.13-1.44.43-2.9.87-4.38.18-.62.39-1.24.62-1.86.5-1.38,1.12-2.75,1.81-4.13.84-1.65,1.78-3.28,2.8-4.87,5.53-8.63,13.1-15.95,15.17-17.87.27-.25.45-.41.51-.47l2.55-2.31,1.74,5.4-1.62,4.25,6.69,15.61,1.53.87.5,1.81,1.32,4.77v10.19c.07.45.13,1.26-.03,2.33-.36,2.29-1.75,5.79-6.35,9.62-3,2.5-7.16,4.55-11,6.08-3.9,1.57-7.45,2.61-9.07,3.06-.5.13-.83.21-.9.23l-1.53.39h-.01l-.28.07-.61-1.39-.14-.32c-.02-.06-.11-.25-.25-.58-.35-.85-.98-2.54-1.67-4.97-1.28-4.49-2.73-11.44-2.73-19.89,0-.54.02-1.08.08-1.64ZM371.99,350.18c3.95-1.46,8.59-3.54,11.62-6.07.06-.04.11-.09.17-.13h.01c3.35-2.86,4.33-5.2,4.6-6.5.13-.71.07-1.12.07-1.14l-.07-.27v-10.07l-1.52-5.49-.61-2.24-4.78-14.84-.87-2.69c-.08.08-.14.14-.22.22-2.2,2.22-5.42,5.64-8.51,9.62-1.45,1.86-2.88,3.85-4.15,5.88-2.88,4.58-4.99,9.44-4.99,13.75,0,6.42.91,11.98,1.9,16.07h0c.25,1.01.49,1.92.72,2.73.36,1.24.69,2.26.97,3.04,1.38-.41,3.4-1.04,5.63-1.87h.03Z"/>
        <path d="M361.57,355.67l1.51.31,1.33.28,2.01.42,1.24.26c.54.11,8.26,1.68,18.75,2,1.13.02,2.3.04,3.49.04.31,0,.64,0,.95-.01,6.08-.04,12.78-.58,19.42-2.04,6.66-1.46,11.36-4.61,13.99-9.32,3.1-5.57,2.4-11.83,1.68-15.12-.29-1.34-.59-2.19-.62-2.3l-4.2,1.48s.26.78.51,2c.55,2.69,1.06,7.63-1.27,11.8-1.99,3.55-5.7,5.93-11.04,7.12-12.69,2.79-26,1.96-33.82,1.05-.12-.02-.25-.03-.36-.04l10.96-5.78-2.07-3.95-.21.11h-.01s-11.79,6.21-11.79,6.21h-.03s-6.83,3.61-6.83,3.61l-2.45,1.28-1.12.59Z"/>
        <path d="M332.51,369.95c.08.58.16.89.18.96l.52,2.11,1.08-.25,1.05-.23c.58-.13,2.3-.54,4.61-1.17,7.03-1.95,19.6-6.15,22.9-11.87.43-.76.81-1.49,1.12-2.2h.01c.16-.36.29-.7.42-1.05.32-.87.57-1.7.74-2.46.4-1.9.39-3.51.22-4.77-.17-1.32-.51-2.25-.72-2.72h0c-.09-.2-.16-.31-.17-.35l-3.89,2.17s.36.74.43,1.97c.1,1.56-.19,4-2.02,7.16-2.34,4.06-13.99,8.22-22.22,10.34-.18-3.6.16-11.64,4.65-24.37,4.57-12.96,12.99-14.63,16.93-14.65,1.22-.01,2.01.14,2.13.17l.88-4.37s-.84-.16-2.14-.18c-.56-.01-1.19-.01-1.92.04h-.01c-1.46.1-3.21.39-5.11,1.01,0,0-.01,0-.02.01-3.4,1.14-7.23,3.41-10.49,7.83-1.06,1.43-2.05,3.07-2.94,4.97-.17.35-.32.69-.48,1.06-.37.83-.71,1.7-1.04,2.61-.19.54-.38,1.07-.55,1.59-3.39,10.05-4.28,17.26-4.38,21.79-.06,2.3.1,3.9.23,4.83Z"/>
        <path d="M365.71,385.5c2.99,0,6.01-.44,8.97-1.48,19.46-6.85,15.94-27.48,15.9-27.68l-4.39.8,2.19-.4-2.2.39c.12.7,2.84,17.11-12.99,22.68-16.46,5.79-36.7-10.98-36.9-11.15l-2.87,3.41c-.79-.59,16.16,13.42,32.29,13.43Z"/>
        <path d="M301.54,376.27l3.42-.34c.93-.09,22.96-2.35,30.8-7.72l-2.52-3.68c-4.83,3.31-17.65,5.56-25.17,6.54,2.2-5.79,7.18-17.71,13.2-24.36,7.23-7.98,17.66-2.51,18.1-2.27l2.13-3.92c-4.78-2.61-15.84-5.29-23.53,3.19-8.76,9.66-15.08,28.49-15.34,29.29l-1.08,3.27Z"/>
        <path d="M330.12,391.27c9.63,0,16.16-7.55,18.52-12.3l-3.99-1.99,2,1-1.99-1c-.27.53-6.7,12.94-19.18,9.1-13.65-4.2-20-12.51-20.06-12.59l-3.57,2.68c.29.39,7.3,9.56,22.32,14.18,2.1.65,4.09.93,5.96.93Z"/>
        <path d="M302.19,376.11c1,0,1.97-.06,2.87-.19l-.63-4.42c-5.55.79-14.54-1.78-18.37-3,.64-2.14,2.47-6.53,7.61-13.23,1.79-2.33,3.89-3.6,6.41-3.9,4.91-.57,10.36,2.89,12.05,4.27l2.83-3.45c-.31-.25-7.62-6.15-15.38-5.24-3.74.43-6.91,2.32-9.44,5.61-8.55,11.14-8.87,16.8-8.88,17.41l-.02,1.59,1.5.54c.51.18,11.28,4.01,19.46,4.01Z"/>
        <path d="M299.58,385.04c5.66,0,10.61-2.57,10.89-2.72l-2.08-3.95c-.07.04-7.23,3.73-12.86,1.49-5.79-2.3-10-10.76-10.04-10.85l-4.01,1.96c.2.41,5,10.1,12.41,13.04,1.88.74,3.83,1.03,5.7,1.03Z"/>
        <path d="M281.54,375.05c2.09,0,3.71-.5,4.84-1.48,1.51-1.32,1.54-2.95,1.53-3.27l-4.46.13c0-.2.02-.25.02-.26-.11.17-1.1.71-4.02.22-3.85-.64-7.38-3.02-9.37-4.6l5-5c5.69-5.69,13.59-3.94,13.92-3.87l1.03-4.34c-.43-.1-10.62-2.44-18.11,5.05l-8.27,8.27,1.58,1.58c.25.25,6.17,6.1,13.48,7.31,1.02.17,1.96.25,2.82.25Z"/>
        <path d="M284.11,385.83c4.16,0,9.23-3.08,9.48-3.2l-3.05-2.72c-1.92.88-7.49,2.65-10.13.35-.71-.62-1.4-1.44-2.03-2.44-2.18-3.43-3.05-7.73-3.06-7.77l-4.38.85c.04.21,1.02,5.16,3.67,9.32.87,1.36,1.83,2.5,2.86,3.41,1.91,1.67,4.31,2.21,6.63,2.21Z"/>
        <path d="M273.96,379.28h.02v-4.46c-1.77,0-5.57-.63-6.04-2.52-.64-2.61.27-3.53.31-3.56-.06.05-.09.08-.09.08l-2.68-3.56c-.33.25-3.22,2.62-1.87,8.12,1.15,4.67,7.03,5.92,10.35,5.92Z"/>
        <path d="M260.81,374.15c2.17,0,4.38-.9,5.83-1.77l-2.31-3.82c-.71.42-3.81,1.88-4.73.6-1.07-1.48,1.34-8.82,3.44-12.68,1.33.25,4.42,1.76,7.02,3.47l3.45-2.98c-2.25-1.47-8.81-5.58-11.85-4.88-.91.21-1.67.74-2.12,1.51-.08.13-7.25,13.06-3.56,18.17,1.27,1.76,3.03,2.37,4.83,2.37Z"/>
        <path d="M259.01,373.71l-1.68-4.02c-30.71-2.61-50.8-9.85-59.7-21.5-6.21-8.13-5.65-16.58-4.46-23.03.39-2.13,1-4.07,1.7-5.78-.14,4.62.48,10.08,3.03,15.18,3.55,7.11,11.51,12.84,11.85,13.09l5.75,4.11-2.35-6.66c-.07-.19-6.52-18.65-5.46-30.29.56-6.19,2.96-10.95,5.02-13.99,1.34,9.21,5.87,27.38,21.02,33.11,17.85,6.76,25.21,20.69,25.28,20.83l3.4-1.44c-.29-.66-7.45-16.12-27.1-23.56-17.42-6.6-18.67-34.26-18.68-34.54l-.18-4.77-3.54,3.19c-.35.31-8.47,7.77-9.65,20.76-.7,7.72,1.48,17.74,3.35,24.54-1.77-1.84-3.55-4.05-4.71-6.37-5.08-10.17-1.03-22.71-.99-22.84l2.9-8.78-6.58,6.49c-.27.26-6.53,6.53-8.43,16.92-1.24,6.78-2.05,16.91,5.3,26.54,9.7,12.7,32.9,20.09,64.92,22.82Z"/>
        <path d="M347.12,210.88l22.31-5.58s-2.23-1.12,6.69,17.84,13.38,30.11,13.38,30.11c0,0-1.12-17.84-1.12-29s4.78-20.73,4.78-20.73l-14.21-7.11-7.3-.04-12.27,5.58-10.36,1.94-7.48,6.98h5.58Z"/>
      </g>
      <g id="Microphone">
        <path d="M87.72,388.72c-3.54-30.06-6.94-69.43-1.71-107.37l.11-.79.62-.5c2.15-1.72,4.3-3.48,6.46-5.25,10.03-8.2,20.4-16.68,32.46-22.77.37-.46.43-.91.44-1.7-1.43-4.35-2.5-8.73-3.54-12.97-1.5-6.16-3.06-12.51-5.73-18.71-3.54-1.88-6.8-4.53-9.96-7.1-1.86-1.51-3.75-3.05-5.71-4.44v.02c-1.06,1.61-3.42,2.12-5.12,1.12-2.25,4.31-4.29,10.22-2.54,15.55,2.35,5.83,6.96,10.04,13.34,12.16l.11.04c2.44.98,4.18,2.72,5.03,5.04,1.23,3.36.57,8.02-1.78,12.48l-3.54-1.87c1.41-2.68,2.57-6.51,1.57-9.23-.46-1.25-1.35-2.13-2.71-2.69-7.52-2.52-12.96-7.54-15.75-14.5l-.04-.11c-3.04-9.12,2.36-18.82,5.88-23.82l.93-1.51.1.05.13-.19,1.52,1.01c4.06,2.05,7.64,4.96,11.1,7.77,3.33,2.71,6.48,5.27,9.87,6.96l.64.32.29.66c2.99,6.73,4.64,13.49,6.24,20.03,1.04,4.26,2.12,8.67,3.55,12.97l.1.31v.32c0,1.38,0,3.26-1.8,5.06l-.23.23-.29.15c-11.8,5.9-22.09,14.31-32.04,22.45-1.97,1.61-3.92,3.21-5.87,4.78-5.02,37.25-1.67,75.96,1.83,105.57l-3.97.47Z"/>
        <path d="M87.75,222.35c-.2-.35-4.88-8.66-2.54-15.76,1.67-5.05,6.62-11.08,11-16.4l.37-.45c1.61-1.96,3.13-3.81,4.49-5.58,4.26-5.55,6.4-7.15,9.87-5.1.2.12.4.24.63.36,2.26,1.13,7.41,4.11,7.63,4.24l.6.35,6.12,15.43-3.72,1.47-5.61-14.14c-1.44-.83-5.1-2.92-6.81-3.77-.32-.16-.61-.33-.88-.49-.18-.11-.42-.25-.56-.31-.31.13-1.34.81-4.11,4.4-1.4,1.82-2.94,3.69-4.57,5.68l-.37.45c-3.95,4.8-8.86,10.77-10.29,15.11-1.78,5.39,2.17,12.45,2.21,12.52l-3.47,1.98Z"/>
        <path d="M41.25,242.83c-1.66,0-3.14-.25-4.01-.94-.82-.64-1.59-1.92-2.72-4.56-.45-1.02-.89-2.13-1.31-3.17-.49-1.21-.94-2.35-1.26-2.98-1.17-2.35-.69-6.58.43-15.16.16-1.22.33-2.5.49-3.83.24-1.89.46-3.54.68-4.97.82-5.39,1.44-7.68,1.46-7.78l3.86,1.05s-.59,2.22-1.37,7.33c-.21,1.4-.43,3.01-.66,4.86-.17,1.33-.33,2.62-.49,3.85-.73,5.65-1.49,11.5-.82,12.85.39.77.86,1.94,1.4,3.29.4,1,.83,2.07,1.27,3.07.88,2.05,1.33,2.74,1.5,2.96.67.2,2.64.13,4.65-.14.17-.78.39-1.85.62-3.04l.04-.21c.78-3.88,1.25-6.95,1.27-8.22.02-1.93.92-4.93,1.87-8.1.64-2.15,1.44-4.82,1.44-5.72,0-.62.06-1.88.14-3.63.05-1.04.1-2.22.15-3.47.39-9.37.13-12.03-.05-12.79-1.6-1.11-9.28-2.14-12.05-2.33-.61.87-1.66,2.85-2.32,4.11-1.22,2.32-1.89,3.56-2.53,4.2-.57.57-3.84,4.47-8.75,10.43-.51.61-.81.99-.82,1l-3.12-2.5s.32-.4.87-1.05c3.62-4.4,8.13-9.84,9-10.7.29-.34,1.17-2.01,1.82-3.23,2.46-4.66,3.4-6.27,5.17-6.27.14,0,14.4.68,16.29,4.45.5,1.01,1,3.07.5,14.86-.05,1.25-.11,2.44-.15,3.49-.07,1.56-.13,2.91-.13,3.45,0,1.49-.75,3.99-1.61,6.87-.75,2.51-1.69,5.63-1.7,7-.03,1.95-.72,5.83-1.31,8.8l-.03.16c-.51,2.58-.97,4.66-.97,4.66l-.29,1.29-1.3.24c-1.6.29-3.44.54-5.11.54Z"/>
        <path d="M56.83,252.47c-1.66,0-4.97-1.63-12.4-10.9l3.12-2.5c3.57,4.46,7.56,8.52,9.09,9.27,2.23-1.41,6.17-5.92,6.02-7.33-.05-.5-.06-1.62.34-5.92l.14-1.39c.87-8.84,2.81-24.09,4.14-29.3.34-1.39.67-2.11,1.17-2.58.86-1.2,1.97-7.5,2.24-9.88-.33-.24-.9-.63-1.89-1.2-3.17-1.86-7.16-3.73-8.36-4.14-1.62.47-8.03,3.01-13.7,5.38l-1.54-3.69c13.75-5.73,14.85-5.73,15.27-5.73,1.84,0,9.29,4.11,10.35,4.74,3.04,1.78,3.92,2.67,3.92,3.96,0,.1-.99,10.52-3.33,13.25-.05.13-.14.39-.26.88-1.26,4.91-3.22,20.24-4.08,29.08l-.05.47c-.02.19-.03.38-.05.56-.38,4.06-.36,4.94-.35,5.11.43,4.19-6.22,10.35-8.61,11.55-.28.14-.65.33-1.21.33ZM68.53,201.77s-.02.01-.03.02l.03-.02Z"/>
        <path d="M96.59,193.09c-5.07-3.64-10.86-7.61-12.72-8.63-1.62.8-6.19,3.68-10,6.22l-2.22-3.33c10.54-7.03,11.66-7.03,12.26-7.03.7,0,1.76,0,15.01,9.52l-2.33,3.25ZM84.3,184.28h0,0Z"/>
        <path d="M72.9,242.85c-.36,0-.66-.08-.96-.22-1.19-.52-6.09-4.2-8.14-5.76l2.42-3.19c2.57,1.96,5.63,4.19,6.89,5.01,1.98-.9,7.81-5.03,10.54-7.26l.08-.13.14-.09c.31-.42,1.52-2.53,3.11-11.25.29-1.62.45-2.73.46-2.75l3.96.58s-.17,1.17-.48,2.89c-1.96,10.69-3.5,12.61-4.14,13.3-.02.02-.04.04-.06.06l-.04.05-.27.25c-1.31,1.09-4.19,3.25-6.8,5.04-3.87,2.65-5.57,3.47-6.71,3.47ZM83.82,231.3s0,0,0,0h0Z"/>
        <path d="M175.38,240.06c-7.87,0-15.57-2.95-21.34-8.49l2.77-2.88c7.44,7.14,18.57,9.33,28.36,5.57l1.08-.45c7.03-3.11,12.44-9.09,14.81-16.4,4.07-12.56-1.8-26.52-13.64-32.48-11.22-5.64-25.52-2.43-33.25,7.46l-3.15-2.46c8.89-11.37,25.31-15.05,38.2-8.57,13.59,6.84,20.32,22.87,15.65,37.29-2.72,8.39-8.93,15.25-17.04,18.84l-1.17.49c-3.67,1.41-7.49,2.09-11.27,2.09Z"/>
        <polygon points="157.68 234.06 155.39 234.06 141.36 233.78 139.84 211.01 141.79 211.96 141.68 210.53 145.66 210.22 146.04 215.13 144.12 215.28 145.11 229.85 153.41 230.02 151.09 193.97 142.92 197.45 143.72 209.33 139.72 209.53 139.7 209.1 138.74 194.88 151.41 189.49 151.71 189.16 152.19 189.15 154.67 188.06 154.92 191.14 157.68 234.06"/>
        <polygon points="141.64 216.34 140.14 215.61 139.72 209.57 143.71 209.29 144.05 214.18 142.64 214.27 141.64 216.34"/>
        <path d="M8.91,240.64c-1.79,0-3.51-.63-4.89-1.81-1.53-1.31-2.46-3.13-2.61-5.14L.02,215.82c-.32-4.14,2.79-7.78,6.93-8.09l28.41-2.2.31,3.99-28.41,2.2c-.94.07-1.79.51-2.41,1.22s-.91,1.63-.84,2.57l1.38,17.88c.07.94.51,1.79,1.22,2.41.72.61,1.63.91,2.57.84l27-2.09.31,3.99-27,2.09c-.2.01-.39.02-.59.02Z"/>
        <polygon points="88.91 205.38 88.9 201.38 88.91 201.38 88.91 205.38"/>
        <polygon points="141.68 210.53 140.97 201.35 140.64 201.37 97.26 204.74 96.91 200.76 97.56 200.7 144.66 197.06 145.66 210.23 141.68 210.53"/>
        <rect x="85.16" y="230.34" width="10.91" height="4" transform="translate(-17.65 7.68) rotate(-4.42)"/>
        <polygon points="122.67 231.85 122.36 227.87 142.9 226.28 142.06 215.44 146.04 215.13 147.19 229.96 122.67 231.85"/>
        <path d="M111.15,201.66l5.24-.4c.66-1.75,1-3.62.98-5.54-2.64,1.36-4.78,3.45-6.22,5.94Z"/>
        <path d="M22.13,391.34l-4-.13c.3-8.78.71-16.08,1.31-22.98.57-6.62,1.21-13.36,1.83-19.88,1.53-16.06,3.11-32.67,3.76-49,.82-20.41-5.5-41.59-11.49-59.85l3.8-1.25c6.1,18.59,12.53,40.18,11.68,61.25-.66,16.44-2.25,33.1-3.78,49.22-.62,6.51-1.26,13.23-1.83,19.84-.59,6.82-1,14.06-1.29,22.77Z"/>
        <path d="M63.76,281.65c-3.13-3.53-6.09-7.19-8.94-10.96-2.94-3.72-5.73-7.72-6.69-12.48,0,0,.18-.08.18-.08,2.9,3.76,5.45,7.56,7.82,11.65,2.51,3.97,5.15,7.86,7.78,11.75,0,0-.16.12-.16.12h0Z"/>
        <path d="M68.81,343.49c-.37-8.75-.51-17.51-.34-26.28.12-8.76.53-17.6,2.58-26.15,0,0,.1.02.1.02-1.93,17.34-2.21,35.16-2.33,52.41h0Z"/>
        <path d="M43.2,289.9s4.46-.12,4.46-.12h.16c.08,2.22.24,4.45.48,6.66.38,4.35,1.66,8.49,2.57,12.73.47,2.12.93,4.25,1.3,6.41l-.1.03c-.81-2.03-1.49-4.11-2.09-6.21-1.88-6.29-2.6-12.9-2.48-19.46,0,0,.17.17.17.17l-4.46-.12v-.1h0Z"/>
        <path d="M36.35,236.54c.76,1.76,1.52,3.3,2.13,3.78,1.41,1.12,7.52,0,7.52,0,0,0,8.92,11.15,11.15,10.04s7.81-6.69,7.52-9.55c-.07-.61.08-2.68.35-5.53,0,0,6.64,5.04,7.75,5.53,1.12.5,10.04-6.07,12.34-7.97.02-.02.06-.04.08-.08.03-.02.07-.06.09-.09l2-.16,1.67,1.67s-6.69,8.92-7.81,10.04c-1.12,1.12-11.15,2.23-11.15,2.23,0,0-5.58,5.58-7.81,7.81-2.23,2.23-5.58,3.35-10.04-1.12-4.46-4.46-13.38-8.92-16.73-10.04-3.35-1.12-10.04-2.23-10.04,6.69s2.23,22.31,2.23,31.23c0,3.1-1.26-.41-2.9-6.33t-.01-.02c-2.54-9.17-6-24.06-7.13-28.98-.01-.02-.01-.03-.01-.04h0c-.23-1.01-.37-1.59-.37-1.59l-.29-.6v-.02s-.01-.01-.01-.01l-2.48-5.19-.1-.21,22.05-1.48Z"/>
        <g>
          <rect x="187.39" y="173.78" width="1" height="21.93" transform="translate(-60.47 272.78) rotate(-64.04)"/>
          <rect x="183.74" y="168.81" width="1" height="37.75" transform="translate(-65.16 271.14) rotate(-64.03)"/>
          <rect x="183.36" y="169.98" width="1" height="44.48" transform="translate(-69.47 273.3) rotate(-64.02)"/>
          <rect x="181.6" y="170.7" width="1" height="50.76" transform="translate(-73.94 273.86) rotate(-64.02)"/>
          <polygon points="204.03 212.04 155.38 188.33 155.82 187.43 204.47 211.14 204.03 212.04"/>
          <polygon points="203.32 216.4 152.27 191.5 152.64 191.13 152.84 190.7 203.76 215.5 203.32 216.4"/>
          <polygon points="202 220.48 152.7 196.46 153.13 195.56 202.44 219.59 202 220.48"/>
          <polygon points="201.11 224.77 153.33 201.48 153.78 200.58 201.55 223.87 201.11 224.77"/>
          <polygon points="142.92 201.07 142.81 201.07 142.69 201.02 140.26 199.83 140.7 198.93 143.13 200.12 142.92 200.56 142.92 201.07"/>
          <polygon points="198.25 228.08 153.64 206.35 154.09 205.46 198.68 227.18 198.25 228.08"/>
          <polygon points="195.38 231.4 153.96 211.23 154.4 210.33 195.81 230.5 195.38 231.4"/>
          <polygon points="144.09 206.42 141.18 205 141.62 204.11 144.52 205.52 144.09 206.42"/>
          <rect x="141.08" y="209.2" width="1" height=".31" transform="translate(-109.51 238.19) rotate(-62.48)"/>
          <rect x="172.5" y="202.73" width="1" height="43.88" transform="translate(-104.74 281.81) rotate(-64.03)"/>
          <rect x="141.78" y="214.17" width="1" height=".51" transform="translate(-112.77 248.64) rotate(-64.07)"/>
          <path d="M186.09,236.32c-5.39-2.2-10.65-4.99-15.74-7.68-5.23-2.77-10.64-5.64-16.2-7.87l.37-.93c5.6,2.25,11.04,5.13,16.29,7.91,5.06,2.68,10.3,5.46,15.64,7.64l-.38.93Z"/>
          <polygon points="180.32 238.17 180.2 238.17 180.09 238.12 154.9 225.84 155.32 224.94 155.64 225.08 180.53 237.22 180.31 237.66 180.32 238.17"/>
        </g>
        <g>
          <rect x="141.37" y="208.64" width=".39" height="1" transform="translate(-108.87 176.53) rotate(-48.49)"/>
          <rect x="143.18" y="205.98" width="1.36" height="1" transform="translate(-106.37 179.74) rotate(-49.03)"/>
          <rect x="149.12" y="187.21" width="21.94" height="1" transform="translate(-86.61 185.9) rotate(-49.12)"/>
          <rect x="141.99" y="214.28" width=".63" height="1" transform="translate(-113.31 182.51) rotate(-49.28)"/>
          <polygon points="153.97 202.04 153.22 201.38 171.74 179.95 172.5 180.6 153.97 202.04"/>
          <polygon points="154.37 208.08 153.61 207.43 177.66 179.6 178.4 180.28 178.17 180.53 154.37 208.08"/>
          <polygon points="144.3 224.88 144.3 224.86 145.3 224.86 144.3 224.88"/>
          <rect x="145.49" y="197.55" width="44.98" height="1" transform="translate(-91.71 196.15) rotate(-49.28)"/>
          <rect x="145.7" y="200.92" width="49.93" height="1" transform="translate(-93.32 199.36) rotate(-49.28)"/>
          <rect x="145.71" y="204.72" width="54.57" height="1" transform="translate(-95.39 201.7) rotate(-49.12)"/>
          <polygon points="155.77 232.39 155.01 231.73 193.87 186.78 194.63 187.42 155.77 232.39"/>
          <polygon points="160.13 233.85 159.37 233.19 197.37 189.22 198.13 189.87 160.13 233.85"/>
          <rect x="153.95" y="214.09" width="55.51" height="1" transform="translate(-99.46 211.53) rotate(-49.12)"/>
          <rect x="158.83" y="216.85" width="52.2" height="1" transform="translate(-100.44 214.92) rotate(-49.12)"/>
          <polygon points="173.09 238.3 172.34 237.64 203.48 201.62 204.22 202.29 203.92 202.63 173.09 238.3"/>
          <polygon points="178.71 238.27 177.96 237.62 204.53 206.87 205.29 207.52 204.72 208.21 178.71 238.27"/>
          <polygon points="185.35 236.83 185.34 236.33 184.85 236.33 184.85 236.14 185.53 235.35 203.38 214.71 204.13 215.37 185.85 236.5 185.85 236.82 185.35 236.83"/>
          <rect x="190.44" y="228.8" width="13.17" height="1" transform="translate(-105.29 228.19) rotate(-49.12)"/>
        </g>
        <g>
          <path d="M177.6,241.09c-1.15,0-2.25-.66-2.74-1.78-13.72-30.86-3.85-59.05-3.43-60.23.56-1.56,2.28-2.37,3.84-1.81,1.56.56,2.37,2.28,1.81,3.83h0c-.1.27-9.44,27.18,3.26,55.76.67,1.51,0,3.29-1.52,3.96-.4.18-.81.26-1.22.26Z"/>
          <path class="cls-3" d="M177.6,239.09c-.38,0-.75-.22-.92-.59-13.39-30.13-3.47-58.46-3.37-58.74.19-.52.76-.79,1.28-.6.52.19.79.76.6,1.28-.1.28-9.74,27.88,3.32,57.25.22.5,0,1.1-.51,1.32-.13.06-.27.09-.41.09Z"/>
        </g>
      </g>
    </g>
  </g>
</svg>