<svg width="37" height="36" viewBox="0 0 37 36" fill="none" xmlns="http://www.w3.org/2000/svg">
<path d="M20.4018 0.00671387C22.483 0.0121137 23.5393 0.0229135 24.4513 0.0481129L24.8102 0.0607125C25.2245 0.0751122 25.6334 0.0931117 26.1273 0.114711C28.0956 0.204709 29.4386 0.507102 30.617 0.951691C31.8379 1.40888 32.8665 2.02806 33.895 3.02704C34.8361 3.92654 35.564 5.01504 36.028 6.21656C36.4849 7.36314 36.7957 8.6699 36.8882 10.5869C36.9104 11.0656 36.9289 11.4634 36.9437 11.8684L36.9548 12.2176C36.9825 13.1032 36.9936 14.131 36.9973 16.1559L36.9992 17.4987V19.8566C37.0037 21.1695 36.9895 22.4824 36.9566 23.7949L36.9455 24.1441C36.9307 24.5491 36.9122 24.9469 36.89 25.4257C36.7975 27.3427 36.4831 28.6476 36.028 29.796C35.564 30.9975 34.8361 32.086 33.895 32.9855C32.9706 33.9011 31.8519 34.6094 30.617 35.0609C29.4386 35.5055 28.0956 35.8078 26.1273 35.8978L24.8102 35.9518L24.4513 35.9626C23.5393 35.9878 22.483 36.0004 20.4018 36.004L19.0218 36.0058H16.6003C15.2503 36.0105 13.9004 35.9967 12.5508 35.9644L12.1919 35.9536C11.7528 35.9375 11.3137 35.9189 10.8748 35.8978C8.9065 35.8078 7.56347 35.5055 6.38323 35.0609C5.14903 34.6092 4.03097 33.9009 3.10705 32.9855C2.16534 32.0862 1.43678 30.9977 0.972253 29.796C0.515326 28.6494 0.204542 27.3427 0.112047 25.4257L0.0565494 24.1441L0.0473001 23.7949C0.013199 22.4824 -0.00221858 21.1695 0.00105222 19.8566V16.1559C-0.00406813 14.843 0.0094993 13.5301 0.0417503 12.2176L0.0546996 11.8684C0.0694989 11.4634 0.0879979 11.0656 0.110197 10.5869C0.202692 8.6699 0.513476 7.36494 0.970403 6.21656C1.43601 5.01455 2.16586 3.926 3.1089 3.02704C4.03228 2.11185 5.14969 1.40361 6.38323 0.951691C7.56347 0.507102 8.90465 0.204709 10.8748 0.114711C11.3669 0.0931117 11.7776 0.0751122 12.1919 0.0607125L12.5508 0.0499127C13.8998 0.0179325 15.2491 0.00413147 16.5984 0.00851369L20.4018 0.00671387ZM18.5001 9.0065C16.047 9.0065 13.6943 9.95468 11.9597 11.6425C10.2251 13.3303 9.25059 15.6194 9.25059 18.0063C9.25059 20.3932 10.2251 22.6823 11.9597 24.3701C13.6943 26.0579 16.047 27.0061 18.5001 27.0061C20.9532 27.0061 23.3059 26.0579 25.0405 24.3701C26.7752 22.6823 27.7497 20.3932 27.7497 18.0063C27.7497 15.6194 26.7752 13.3303 25.0405 11.6425C23.3059 9.95468 20.9532 9.0065 18.5001 9.0065ZM18.5001 12.6064C19.2289 12.6063 19.9506 12.7458 20.624 13.0171C21.2973 13.2884 21.9092 13.686 22.4246 14.1874C22.9401 14.6887 23.3489 15.2839 23.628 15.939C23.907 16.5941 24.0506 17.2963 24.0508 18.0054C24.0509 18.7145 23.9075 19.4167 23.6287 20.0719C23.3499 20.7271 22.9412 21.3224 22.4259 21.8239C21.9107 22.3254 21.299 22.7233 20.6257 22.9948C19.9524 23.2662 19.2308 23.406 18.502 23.4061C17.0301 23.4061 15.6185 22.8372 14.5777 21.8246C13.537 20.8119 12.9522 19.4384 12.9522 18.0063C12.9522 16.5741 13.537 15.2007 14.5777 14.188C15.6185 13.1753 17.0301 12.6064 18.502 12.6064M28.214 6.30656C27.6007 6.30656 27.0125 6.54361 26.5789 6.96556C26.1452 7.3875 25.9016 7.95978 25.9016 8.55651C25.9016 9.15323 26.1452 9.72551 26.5789 10.1475C27.0125 10.5694 27.6007 10.8065 28.214 10.8065C28.8273 10.8065 29.4154 10.5694 29.8491 10.1475C30.2827 9.72551 30.5264 9.15323 30.5264 8.55651C30.5264 7.95978 30.2827 7.3875 29.8491 6.96556C29.4154 6.54361 28.8273 6.30656 28.214 6.30656Z" fill="white"/>
</svg>
