<svg width="393" height="21" viewBox="0 0 393 21" fill="none" xmlns="http://www.w3.org/2000/svg">
<path d="M-52.1011 11.1084C-46.1019 4.83409 -35.1168 1.05127 -23.4918 1.27476C-6.28092 1.60586 2.57115 10.5207 3.13108 11.1084" stroke="url(#paint0_linear_67_586)" stroke-width="2" stroke-miterlimit="10"/>
<path d="M-52.1011 9.85852C-46.1019 16.1329 -35.1168 19.9157 -23.4918 19.6922C-6.28092 19.3611 2.57115 10.4462 3.13108 9.85852" stroke="url(#paint1_linear_67_586)" stroke-width="2" stroke-miterlimit="10"/>
<path d="M-22.2388 11.1084C-16.2396 4.83409 -5.25452 1.05127 6.3705 1.27476C23.5814 1.60586 32.4334 10.5207 32.9934 11.1084" stroke="url(#paint2_linear_67_586)" stroke-width="2" stroke-miterlimit="10"/>
<path d="M-22.2388 9.85852C-16.2396 16.1329 -5.25452 19.9157 6.3705 19.6922C23.5814 19.3611 32.4334 10.4462 32.9934 9.85852" stroke="url(#paint3_linear_67_586)" stroke-width="2" stroke-miterlimit="10"/>
<path d="M6.31738 11.1084C12.3165 4.83409 23.3016 1.05127 34.9267 1.27476C52.1375 1.60586 60.9896 10.5207 61.5495 11.1084" stroke="url(#paint4_linear_67_586)" stroke-width="2" stroke-miterlimit="10"/>
<path d="M6.31738 9.85852C12.3165 16.1329 23.3016 19.9157 34.9267 19.6922C52.1375 19.3611 60.9896 10.4462 61.5495 9.85852" stroke="url(#paint5_linear_67_586)" stroke-width="2" stroke-miterlimit="10"/>
<path d="M34.7397 11.0835C40.7389 4.80918 51.724 1.02637 63.349 1.24986C80.5599 1.58096 89.412 10.4958 89.9719 11.0835" stroke="url(#paint6_linear_67_586)" stroke-width="2" stroke-miterlimit="10"/>
<path d="M34.7397 9.84192C40.7389 16.1163 51.724 19.8991 63.349 19.6756C80.5599 19.3445 89.412 10.4296 89.9719 9.84192" stroke="url(#paint7_linear_67_586)" stroke-width="2" stroke-miterlimit="10"/>
<path d="M63.3623 11.1083C69.3615 4.83396 80.3466 1.05115 91.9716 1.27464C109.182 1.60574 118.035 10.5206 118.594 11.1083" stroke="url(#paint8_linear_67_586)" stroke-width="2" stroke-miterlimit="10"/>
<path d="M63.3623 9.8584C69.3615 16.1327 80.3466 19.9156 91.9716 19.6921C109.182 19.361 118.035 10.4461 118.594 9.8584" stroke="url(#paint9_linear_67_586)" stroke-width="2" stroke-miterlimit="10"/>
<path d="M93.3315 11.1083C99.3307 4.83396 110.316 1.05115 121.941 1.27464C139.152 1.60574 148.004 10.5206 148.564 11.1083" stroke="url(#paint10_linear_67_586)" stroke-width="2" stroke-miterlimit="10"/>
<path d="M93.3315 9.8584C99.3307 16.1327 110.316 19.9156 121.941 19.6921C139.152 19.361 148.004 10.4461 148.564 9.8584" stroke="url(#paint11_linear_67_586)" stroke-width="2" stroke-miterlimit="10"/>
<path d="M121.914 11.0835C127.913 4.80918 138.898 1.02637 150.523 1.24986C167.734 1.58096 176.586 10.4958 177.146 11.0835" stroke="url(#paint12_linear_67_586)" stroke-width="2" stroke-miterlimit="10"/>
<path d="M121.914 9.84192C127.913 16.1163 138.898 19.8991 150.523 19.6756C167.734 19.3445 176.586 10.4296 177.146 9.84192" stroke="url(#paint13_linear_67_586)" stroke-width="2" stroke-miterlimit="10"/>
<path d="M151.79 11.0835C157.789 4.80918 168.774 1.02637 180.399 1.24986C197.61 1.58096 206.462 10.4958 207.022 11.0835" stroke="url(#paint14_linear_67_586)" stroke-width="2" stroke-miterlimit="10"/>
<path d="M151.79 9.84192C157.789 16.1163 168.774 19.8991 180.399 19.6756C197.61 19.3445 206.462 10.4296 207.022 9.84192" stroke="url(#paint15_linear_67_586)" stroke-width="2" stroke-miterlimit="10"/>
<path d="M180.333 11.0835C186.332 4.80918 197.317 1.02637 208.942 1.24986C226.153 1.58096 235.005 10.4958 235.565 11.0835" stroke="url(#paint16_linear_67_586)" stroke-width="2" stroke-miterlimit="10"/>
<path d="M180.333 9.84192C186.332 16.1163 197.317 19.8991 208.942 19.6756C226.153 19.3445 235.005 10.4296 235.565 9.84192" stroke="url(#paint17_linear_67_586)" stroke-width="2" stroke-miterlimit="10"/>
<path d="M209.422 11.1415C215.421 4.86717 226.406 1.08435 238.031 1.30785C255.242 1.63895 264.094 10.5538 264.654 11.1415" stroke="url(#paint18_linear_67_586)" stroke-width="2" stroke-miterlimit="10"/>
<path d="M209.422 9.8916C215.421 16.1659 226.406 19.9488 238.031 19.7253C255.242 19.3942 264.094 10.4793 264.654 9.8916" stroke="url(#paint19_linear_67_586)" stroke-width="2" stroke-miterlimit="10"/>
<path d="M238.031 11.1581C244.03 4.88377 255.015 1.10095 266.641 1.32445C283.851 1.65555 292.703 10.5704 293.263 11.1581" stroke="url(#paint20_linear_67_586)" stroke-width="2" stroke-miterlimit="10"/>
<path d="M238.031 9.9165C244.03 16.1908 255.015 19.9737 266.641 19.7502C283.851 19.4191 292.703 10.5042 293.263 9.9165" stroke="url(#paint21_linear_67_586)" stroke-width="2" stroke-miterlimit="10"/>
<path d="M268 11.1581C273.999 4.88377 284.984 1.10095 296.609 1.32445C313.82 1.65555 322.672 10.5704 323.232 11.1581" stroke="url(#paint22_linear_67_586)" stroke-width="2" stroke-miterlimit="10"/>
<path d="M268 9.9165C273.999 16.1908 284.984 19.9737 296.609 19.7502C313.82 19.4191 322.672 10.5042 323.232 9.9165" stroke="url(#paint23_linear_67_586)" stroke-width="2" stroke-miterlimit="10"/>
<path d="M296.596 11.1415C302.595 4.86717 313.58 1.08435 325.205 1.30785C342.416 1.63895 351.268 10.5538 351.828 11.1415" stroke="url(#paint24_linear_67_586)" stroke-width="2" stroke-miterlimit="10"/>
<path d="M296.596 9.8916C302.595 16.1659 313.58 19.9488 325.205 19.7253C342.416 19.3942 351.268 10.4793 351.828 9.8916" stroke="url(#paint25_linear_67_586)" stroke-width="2" stroke-miterlimit="10"/>
<path d="M326.458 11.1415C332.458 4.86717 343.443 1.08435 355.068 1.30785C372.279 1.63895 381.131 10.5538 381.691 11.1415" stroke="url(#paint26_linear_67_586)" stroke-width="2" stroke-miterlimit="10"/>
<path d="M326.458 9.8916C332.458 16.1659 343.443 19.9488 355.068 19.7253C372.279 19.3942 381.131 10.4793 381.691 9.8916" stroke="url(#paint27_linear_67_586)" stroke-width="2" stroke-miterlimit="10"/>
<path d="M355.001 11.1415C361 4.86717 371.985 1.08435 383.61 1.30785C400.821 1.63895 409.673 10.5538 410.233 11.1415" stroke="url(#paint28_linear_67_586)" stroke-width="2" stroke-miterlimit="10"/>
<path d="M355.001 9.8916C361 16.1659 371.985 19.9488 383.61 19.7253C400.821 19.3942 409.673 10.4793 410.233 9.8916" stroke="url(#paint29_linear_67_586)" stroke-width="2" stroke-miterlimit="10"/>
<path d="M383.437 11.1249C389.436 4.85057 400.421 1.06775 412.046 1.29124C429.257 1.62234 438.109 10.5372 438.669 11.1249" stroke="url(#paint30_linear_67_586)" stroke-width="2" stroke-miterlimit="10"/>
<path d="M383.437 9.875C389.436 16.1493 400.421 19.9322 412.046 19.7087C429.257 19.3776 438.109 10.4627 438.669 9.875" stroke="url(#paint31_linear_67_586)" stroke-width="2" stroke-miterlimit="10"/>
<defs>
<linearGradient id="paint0_linear_67_586" x1="-24.485" y1="1.26538" x2="-24.485" y2="11.1084" gradientUnits="userSpaceOnUse">
<stop stop-color="#EC2783"/>
<stop offset="0.525" stop-color="#D82023"/>
<stop offset="1" stop-color="#EC4D08"/>
</linearGradient>
<linearGradient id="paint1_linear_67_586" x1="-24.485" y1="9.85852" x2="-24.485" y2="19.7016" gradientUnits="userSpaceOnUse">
<stop stop-color="#EC2783"/>
<stop offset="0.525" stop-color="#D82023"/>
<stop offset="1" stop-color="#EC4D08"/>
</linearGradient>
<linearGradient id="paint2_linear_67_586" x1="5.3773" y1="1.26538" x2="5.3773" y2="11.1084" gradientUnits="userSpaceOnUse">
<stop stop-color="#EC2783"/>
<stop offset="0.525" stop-color="#D82023"/>
<stop offset="1" stop-color="#EC4D08"/>
</linearGradient>
<linearGradient id="paint3_linear_67_586" x1="5.3773" y1="9.85852" x2="5.3773" y2="19.7016" gradientUnits="userSpaceOnUse">
<stop stop-color="#EC2783"/>
<stop offset="0.525" stop-color="#D82023"/>
<stop offset="1" stop-color="#EC4D08"/>
</linearGradient>
<linearGradient id="paint4_linear_67_586" x1="33.9335" y1="1.26538" x2="33.9335" y2="11.1084" gradientUnits="userSpaceOnUse">
<stop stop-color="#EC2783"/>
<stop offset="0.525" stop-color="#D82023"/>
<stop offset="1" stop-color="#EC4D08"/>
</linearGradient>
<linearGradient id="paint5_linear_67_586" x1="33.9335" y1="9.85852" x2="33.9335" y2="19.7016" gradientUnits="userSpaceOnUse">
<stop stop-color="#EC2783"/>
<stop offset="0.525" stop-color="#D82023"/>
<stop offset="1" stop-color="#EC4D08"/>
</linearGradient>
<linearGradient id="paint6_linear_67_586" x1="62.3558" y1="1.24048" x2="62.3558" y2="11.0835" gradientUnits="userSpaceOnUse">
<stop stop-color="#EC2783"/>
<stop offset="0.525" stop-color="#D82023"/>
<stop offset="1" stop-color="#EC4D08"/>
</linearGradient>
<linearGradient id="paint7_linear_67_586" x1="62.3558" y1="9.84192" x2="62.3558" y2="19.685" gradientUnits="userSpaceOnUse">
<stop stop-color="#EC2783"/>
<stop offset="0.525" stop-color="#D82023"/>
<stop offset="1" stop-color="#EC4D08"/>
</linearGradient>
<linearGradient id="paint8_linear_67_586" x1="90.9784" y1="1.26526" x2="90.9784" y2="11.1083" gradientUnits="userSpaceOnUse">
<stop stop-color="#EC2783"/>
<stop offset="0.525" stop-color="#D82023"/>
<stop offset="1" stop-color="#EC4D08"/>
</linearGradient>
<linearGradient id="paint9_linear_67_586" x1="90.9784" y1="9.8584" x2="90.9784" y2="19.7014" gradientUnits="userSpaceOnUse">
<stop stop-color="#EC2783"/>
<stop offset="0.525" stop-color="#D82023"/>
<stop offset="1" stop-color="#EC4D08"/>
</linearGradient>
<linearGradient id="paint10_linear_67_586" x1="120.948" y1="1.26526" x2="120.948" y2="11.1083" gradientUnits="userSpaceOnUse">
<stop stop-color="#EC2783"/>
<stop offset="0.525" stop-color="#D82023"/>
<stop offset="1" stop-color="#EC4D08"/>
</linearGradient>
<linearGradient id="paint11_linear_67_586" x1="120.948" y1="9.8584" x2="120.948" y2="19.7014" gradientUnits="userSpaceOnUse">
<stop stop-color="#EC2783"/>
<stop offset="0.525" stop-color="#D82023"/>
<stop offset="1" stop-color="#EC4D08"/>
</linearGradient>
<linearGradient id="paint12_linear_67_586" x1="149.53" y1="1.24048" x2="149.53" y2="11.0835" gradientUnits="userSpaceOnUse">
<stop stop-color="#EC2783"/>
<stop offset="0.525" stop-color="#D82023"/>
<stop offset="1" stop-color="#EC4D08"/>
</linearGradient>
<linearGradient id="paint13_linear_67_586" x1="149.53" y1="9.84192" x2="149.53" y2="19.685" gradientUnits="userSpaceOnUse">
<stop stop-color="#EC2783"/>
<stop offset="0.525" stop-color="#D82023"/>
<stop offset="1" stop-color="#EC4D08"/>
</linearGradient>
<linearGradient id="paint14_linear_67_586" x1="179.406" y1="1.24048" x2="179.406" y2="11.0835" gradientUnits="userSpaceOnUse">
<stop stop-color="#EC2783"/>
<stop offset="0.525" stop-color="#D82023"/>
<stop offset="1" stop-color="#EC4D08"/>
</linearGradient>
<linearGradient id="paint15_linear_67_586" x1="179.406" y1="9.84192" x2="179.406" y2="19.685" gradientUnits="userSpaceOnUse">
<stop stop-color="#EC2783"/>
<stop offset="0.525" stop-color="#D82023"/>
<stop offset="1" stop-color="#EC4D08"/>
</linearGradient>
<linearGradient id="paint16_linear_67_586" x1="207.949" y1="1.24048" x2="207.949" y2="11.0835" gradientUnits="userSpaceOnUse">
<stop stop-color="#EC2783"/>
<stop offset="0.525" stop-color="#D82023"/>
<stop offset="1" stop-color="#EC4D08"/>
</linearGradient>
<linearGradient id="paint17_linear_67_586" x1="207.949" y1="9.84192" x2="207.949" y2="19.685" gradientUnits="userSpaceOnUse">
<stop stop-color="#EC2783"/>
<stop offset="0.525" stop-color="#D82023"/>
<stop offset="1" stop-color="#EC4D08"/>
</linearGradient>
<linearGradient id="paint18_linear_67_586" x1="237.038" y1="1.29846" x2="237.038" y2="11.1415" gradientUnits="userSpaceOnUse">
<stop stop-color="#EC2783"/>
<stop offset="0.525" stop-color="#D82023"/>
<stop offset="1" stop-color="#EC4D08"/>
</linearGradient>
<linearGradient id="paint19_linear_67_586" x1="237.038" y1="9.8916" x2="237.038" y2="19.7346" gradientUnits="userSpaceOnUse">
<stop stop-color="#EC2783"/>
<stop offset="0.525" stop-color="#D82023"/>
<stop offset="1" stop-color="#EC4D08"/>
</linearGradient>
<linearGradient id="paint20_linear_67_586" x1="265.647" y1="1.31506" x2="265.647" y2="11.1581" gradientUnits="userSpaceOnUse">
<stop stop-color="#EC2783"/>
<stop offset="0.525" stop-color="#D82023"/>
<stop offset="1" stop-color="#EC4D08"/>
</linearGradient>
<linearGradient id="paint21_linear_67_586" x1="265.647" y1="9.9165" x2="265.647" y2="19.7596" gradientUnits="userSpaceOnUse">
<stop stop-color="#EC2783"/>
<stop offset="0.525" stop-color="#D82023"/>
<stop offset="1" stop-color="#EC4D08"/>
</linearGradient>
<linearGradient id="paint22_linear_67_586" x1="295.616" y1="1.31506" x2="295.616" y2="11.1581" gradientUnits="userSpaceOnUse">
<stop stop-color="#EC2783"/>
<stop offset="0.525" stop-color="#D82023"/>
<stop offset="1" stop-color="#EC4D08"/>
</linearGradient>
<linearGradient id="paint23_linear_67_586" x1="295.616" y1="9.9165" x2="295.616" y2="19.7596" gradientUnits="userSpaceOnUse">
<stop stop-color="#EC2783"/>
<stop offset="0.525" stop-color="#D82023"/>
<stop offset="1" stop-color="#EC4D08"/>
</linearGradient>
<linearGradient id="paint24_linear_67_586" x1="324.212" y1="1.29846" x2="324.212" y2="11.1415" gradientUnits="userSpaceOnUse">
<stop stop-color="#EC2783"/>
<stop offset="0.525" stop-color="#D82023"/>
<stop offset="1" stop-color="#EC4D08"/>
</linearGradient>
<linearGradient id="paint25_linear_67_586" x1="324.212" y1="9.8916" x2="324.212" y2="19.7346" gradientUnits="userSpaceOnUse">
<stop stop-color="#EC2783"/>
<stop offset="0.525" stop-color="#D82023"/>
<stop offset="1" stop-color="#EC4D08"/>
</linearGradient>
<linearGradient id="paint26_linear_67_586" x1="354.075" y1="1.29846" x2="354.075" y2="11.1415" gradientUnits="userSpaceOnUse">
<stop stop-color="#EC2783"/>
<stop offset="0.525" stop-color="#D82023"/>
<stop offset="1" stop-color="#EC4D08"/>
</linearGradient>
<linearGradient id="paint27_linear_67_586" x1="354.075" y1="9.8916" x2="354.075" y2="19.7346" gradientUnits="userSpaceOnUse">
<stop stop-color="#EC2783"/>
<stop offset="0.525" stop-color="#D82023"/>
<stop offset="1" stop-color="#EC4D08"/>
</linearGradient>
<linearGradient id="paint28_linear_67_586" x1="382.617" y1="1.29846" x2="382.617" y2="11.1415" gradientUnits="userSpaceOnUse">
<stop stop-color="#EC2783"/>
<stop offset="0.525" stop-color="#D82023"/>
<stop offset="1" stop-color="#EC4D08"/>
</linearGradient>
<linearGradient id="paint29_linear_67_586" x1="382.617" y1="9.8916" x2="382.617" y2="19.7346" gradientUnits="userSpaceOnUse">
<stop stop-color="#EC2783"/>
<stop offset="0.525" stop-color="#D82023"/>
<stop offset="1" stop-color="#EC4D08"/>
</linearGradient>
<linearGradient id="paint30_linear_67_586" x1="411.053" y1="1.28186" x2="411.053" y2="11.1249" gradientUnits="userSpaceOnUse">
<stop stop-color="#EC2783"/>
<stop offset="0.525" stop-color="#D82023"/>
<stop offset="1" stop-color="#EC4D08"/>
</linearGradient>
<linearGradient id="paint31_linear_67_586" x1="411.053" y1="9.875" x2="411.053" y2="19.718" gradientUnits="userSpaceOnUse">
<stop stop-color="#EC2783"/>
<stop offset="0.525" stop-color="#D82023"/>
<stop offset="1" stop-color="#EC4D08"/>
</linearGradient>
</defs>
</svg>
