<svg width="727" height="465" viewBox="0 0 727 465" fill="none" xmlns="http://www.w3.org/2000/svg">
<path d="M422.656 250.273L421.79 249.773L421.29 250.639L401.559 284.814C394.564 296.93 398.397 311.805 409.52 318.227L501.835 371.525C512.958 377.947 527.757 373.829 534.752 361.713L554.483 327.538L554.983 326.672L554.117 326.172L422.656 250.273ZM425.271 243.743L424.771 244.61L425.637 245.11L557.098 321.009L557.964 321.509L558.464 320.643L615.177 222.413L615.677 221.547L614.811 221.047L483.35 145.147L482.484 144.647L481.984 145.513L425.271 243.743ZM617.792 215.883L618.658 216.383L619.158 215.517L638.889 181.342C645.884 169.226 642.051 154.351 630.928 147.929L538.614 94.631C527.388 88.1502 512.632 92.4296 505.696 104.443L485.965 138.618L485.465 139.484L486.331 139.984L617.792 215.883ZM633.909 142.765C648.102 150.96 652.565 169.58 644.053 184.323L539.916 364.694C531.403 379.437 513.047 384.883 498.853 376.689L406.539 323.391C392.334 315.189 387.883 296.576 396.395 281.833L500.532 101.462C508.964 86.8577 527.262 81.1926 541.595 89.4676L633.909 142.765Z" stroke="url(#paint0_linear_306_1630)" stroke-width="2"/>
<path d="M518.998 344.925L518.995 344.93C518.155 346.404 517.033 347.698 515.692 348.738C514.352 349.777 512.819 350.542 511.182 350.988C509.545 351.433 507.836 351.551 506.154 351.335C504.471 351.118 502.848 350.572 501.377 349.727L428.621 307.721C425.814 305.921 423.806 303.11 423.015 299.87C422.222 296.622 422.712 293.194 424.384 290.299C426.055 287.404 428.779 285.266 431.987 284.329C435.189 283.394 438.628 283.727 441.59 285.259L514.348 327.265C520.443 330.785 522.553 338.767 518.998 344.925ZM616.709 175.684L616.709 175.684L616.704 175.692C615.866 177.178 614.744 178.483 613.401 179.534C612.058 180.585 610.521 181.361 608.877 181.817C607.234 182.273 605.517 182.401 603.825 182.193C602.133 181.985 600.5 181.445 599.017 180.606L526.243 138.589C520.155 135.075 518.061 127.047 521.663 120.809C525.264 114.57 533.263 112.37 539.351 115.885L612.129 157.903C618.217 161.418 620.311 169.445 616.709 175.684ZM506.861 256.195C500.674 252.623 496.16 246.74 494.311 239.839C492.461 232.938 493.429 225.585 497.002 219.398C500.574 213.211 506.457 208.696 513.358 206.847C520.259 204.998 527.612 205.966 533.799 209.538C539.986 213.11 544.501 218.994 546.35 225.895C548.199 232.796 547.231 240.148 543.659 246.336C540.087 252.523 534.203 257.037 527.302 258.886C520.401 260.735 513.049 259.767 506.861 256.195Z" stroke="url(#paint1_linear_306_1630)" stroke-width="2"/>
<path d="M437.634 403.06L437.631 403.065C437.263 403.713 436.771 404.281 436.183 404.738C435.594 405.194 434.922 405.531 434.204 405.727C433.485 405.924 432.735 405.977 431.996 405.883C431.258 405.789 430.545 405.551 429.898 405.181L414.732 396.425C412 394.847 411.153 391.354 412.704 388.666L414.241 386.005C418.911 377.916 416.241 367.617 408.215 362.984C400.203 358.357 389.936 361.186 385.266 369.276L383.799 371.817L383.796 371.822C383.427 372.469 382.935 373.038 382.347 373.494C381.759 373.951 381.086 374.287 380.368 374.484C379.65 374.68 378.9 374.733 378.161 374.639C377.422 374.546 376.709 374.307 376.062 373.938L357.194 363.044C354.785 361.653 353.809 358.648 354.936 355.977L354.939 355.969C358.706 346.829 359.437 336.72 357.022 327.133C354.608 317.547 349.178 308.991 341.533 302.725C340.288 301.685 339.455 300.234 339.183 298.634C338.911 297.033 339.219 295.388 340.052 293.993L340.055 293.987L340.059 293.98L483.309 45.865L483.312 45.8586L483.316 45.8522C484.107 44.4338 485.378 43.3442 486.901 42.7793C488.422 42.2148 490.095 42.2111 491.619 42.7687C500.889 46.2609 511.038 46.675 520.563 43.9498C530.089 41.2241 538.484 35.5029 544.505 27.6336L544.51 27.6263C546.245 25.3142 549.345 24.6593 551.757 26.0519L570.641 36.9545C573.37 38.5303 574.209 42.0161 572.656 44.7058L571.12 47.3672C566.449 55.4568 569.132 65.7624 577.145 70.3885C585.169 75.0214 595.436 72.1931 600.107 64.103L601.644 61.4416C603.253 58.6548 606.732 57.792 609.364 59.3115L624.534 68.0699C627.266 69.6471 628.113 73.1409 626.562 75.8281L625.028 78.4855C623.893 80.4117 623.155 82.5451 622.856 84.7605C622.557 86.9773 622.704 89.2315 623.289 91.3907C623.873 93.5498 624.884 95.5703 626.26 97.3334C627.637 99.0966 629.352 100.567 631.305 101.658L631.307 101.659C639.428 106.175 649.636 102.777 654.28 94.7345L655.537 92.557C657.145 89.7713 660.625 88.9067 663.27 90.4339L682.018 101.258C683.199 101.949 684.085 103.05 684.505 104.351C684.926 105.654 684.852 107.066 684.298 108.317L684.292 108.331L684.286 108.346C676.589 127.299 682.077 149.103 697.742 161.776L697.744 161.778C699.023 162.807 699.888 164.263 700.18 165.879C700.472 167.495 700.172 169.162 699.334 170.574L699.334 170.574L699.328 170.584L556.219 418.456C555.395 419.872 554.097 420.952 552.555 421.506C551.013 422.06 549.326 422.052 547.789 421.485C538.454 417.961 528.23 417.54 518.637 420.286C509.042 423.032 500.589 428.798 494.531 436.729L494.524 436.738L494.518 436.747C493.711 437.852 492.525 438.622 491.187 438.909C489.849 439.196 488.452 438.979 487.263 438.3L468.625 427.54C465.896 425.964 465.057 422.478 466.61 419.789L468.144 417.131C469.278 415.205 470.017 413.072 470.315 410.856C470.614 408.64 470.467 406.385 469.883 404.226C469.298 402.067 468.288 400.047 466.911 398.283C465.535 396.52 463.819 395.05 461.867 393.959L461.865 393.958C453.743 389.442 443.535 392.84 438.892 400.882L437.634 403.06Z" stroke="url(#paint2_linear_306_1630)" stroke-width="2"/>
<path d="M303.73 250.273L304.596 249.773L305.096 250.639L324.827 284.814C331.822 296.93 327.989 311.805 316.866 318.227L224.551 371.525C213.428 377.947 198.629 373.829 191.634 361.713L171.903 327.538L171.403 326.672L172.269 326.172L303.73 250.273ZM301.115 243.743L301.615 244.61L300.749 245.11L169.288 321.009L168.422 321.509L167.922 320.643L111.208 222.413L110.708 221.547L111.575 221.047L243.036 145.147L243.902 144.647L244.402 145.513L301.115 243.743ZM108.593 215.883L107.727 216.383L107.227 215.517L87.4965 181.342C80.5014 169.226 84.3347 154.351 95.4578 147.929L187.772 94.631C198.997 88.1502 213.754 92.4296 220.69 104.443L240.421 138.618L240.921 139.484L240.055 139.984L108.593 215.883ZM92.4767 142.765C78.2833 150.96 73.8211 169.58 82.3331 184.323L186.47 364.694C194.982 379.437 213.339 384.883 227.532 376.689L319.847 323.391C334.052 315.189 338.503 296.576 329.99 281.833L225.853 101.462C217.421 86.8577 199.124 81.1926 184.791 89.4676L92.4767 142.765Z" stroke="white" stroke-width="2"/>
<path d="M207.388 344.925L207.391 344.93C208.23 346.404 209.353 347.698 210.693 348.738C212.034 349.777 213.567 350.542 215.204 350.988C216.841 351.433 218.549 351.551 220.232 351.335C221.915 351.118 223.538 350.572 225.009 349.727L297.764 307.721C300.572 305.921 302.58 303.11 303.371 299.87C304.164 296.622 303.674 293.194 302.002 290.299C300.331 287.404 297.607 285.266 294.398 284.329C291.197 283.394 287.758 283.727 284.796 285.259L212.038 327.265C205.942 330.785 203.833 338.767 207.388 344.925ZM109.677 175.684L109.677 175.684L109.682 175.692C110.52 177.178 111.642 178.483 112.985 179.534C114.328 180.585 115.865 181.361 117.508 181.817C119.152 182.273 120.869 182.401 122.561 182.193C124.252 181.985 125.886 181.445 127.369 180.606L200.143 138.589C206.231 135.075 208.325 127.047 204.723 120.809C201.121 114.57 193.122 112.37 187.034 115.885L114.257 157.903C108.169 161.418 106.075 169.445 109.677 175.684ZM219.524 256.195C225.711 252.623 230.226 246.74 232.075 239.839C233.924 232.938 232.956 225.585 229.384 219.398C225.812 213.211 219.928 208.696 213.027 206.847C206.127 204.998 198.774 205.966 192.587 209.538C186.4 213.11 181.885 218.994 180.036 225.895C178.187 232.796 179.155 240.148 182.727 246.336C186.299 252.523 192.183 257.037 199.084 258.886C205.984 260.735 213.337 259.767 219.524 256.195Z" stroke="white" stroke-width="2"/>
<path d="M288.751 403.06L288.754 403.065C289.123 403.713 289.615 404.281 290.203 404.738C290.791 405.194 291.464 405.531 292.182 405.727C292.9 405.924 293.651 405.977 294.389 405.883C295.128 405.789 295.841 405.551 296.488 405.181L311.654 396.425C314.386 394.847 315.233 391.354 313.682 388.666L312.145 386.005C307.475 377.916 310.145 367.617 318.17 362.984C326.183 358.357 336.45 361.186 341.12 369.276L342.587 371.817L342.59 371.822C342.958 372.469 343.451 373.038 344.039 373.494C344.627 373.951 345.3 374.287 346.018 374.484C346.736 374.68 347.486 374.733 348.225 374.639C348.964 374.546 349.677 374.307 350.323 373.938L369.191 363.044C371.601 361.653 372.577 358.648 371.45 355.977L371.447 355.969C367.679 346.829 366.949 336.72 369.364 327.133C371.778 317.547 377.208 308.991 384.853 302.725C386.098 301.685 386.931 300.234 387.203 298.634C387.475 297.033 387.167 295.388 386.334 293.993L386.33 293.987L386.327 293.98L243.077 45.865L243.073 45.8586L243.07 45.8522C242.279 44.4338 241.007 43.3442 239.485 42.7793C237.963 42.2148 236.291 42.2111 234.767 42.7687C225.496 46.2609 215.347 46.675 205.823 43.9498C196.297 41.2241 187.902 35.5029 181.881 27.6336L181.876 27.6263C180.14 25.3142 177.041 24.6593 174.629 26.0519L155.745 36.9545C153.016 38.5303 152.177 42.0161 153.729 44.7058L155.266 47.3672C159.937 55.4568 157.253 65.7624 149.241 70.3885C141.216 75.0214 130.95 72.1931 126.279 64.103L124.742 61.4416C123.133 58.6548 119.653 57.792 117.022 59.3115L101.852 68.0699C99.1199 69.6471 98.2724 73.1409 99.8239 75.8281L101.358 78.4855C102.493 80.4117 103.231 82.5451 103.53 84.7605C103.829 86.9773 103.682 89.2315 103.097 91.3907C102.512 93.5498 101.502 95.5703 100.125 97.3334C98.7488 99.0966 97.0337 100.567 95.0808 101.658L95.0791 101.659C86.9574 106.175 76.7494 102.777 72.1059 94.7345L70.8488 92.557C69.2405 89.7713 65.7612 88.9067 63.1161 90.4339L44.3675 101.258C43.1866 101.949 42.3012 103.05 41.8805 104.351C41.4596 105.654 41.5334 107.066 42.0878 108.317L42.0941 108.331L42.1 108.346C49.7968 127.299 44.3085 149.103 28.6437 161.776L28.6418 161.778C27.3627 162.807 26.4979 164.263 26.2058 165.879C25.9138 167.495 26.2142 169.162 27.0519 170.574L27.052 170.574L27.0579 170.584L170.167 418.456C170.991 419.872 172.289 420.952 173.831 421.506C175.373 422.06 177.06 422.052 178.597 421.485C187.932 417.961 198.155 417.54 207.749 420.286C217.343 423.032 225.797 428.798 231.855 436.729L231.861 436.738L231.868 436.747C232.674 437.852 233.86 438.622 235.199 438.909C236.537 439.196 237.934 438.979 239.123 438.3L257.761 427.54C260.49 425.964 261.329 422.478 259.776 419.789L258.242 417.131C257.107 415.205 256.369 413.072 256.07 410.856C255.771 408.64 255.918 406.385 256.503 404.226C257.088 402.067 258.098 400.047 259.475 398.283C260.851 396.52 262.566 395.05 264.519 393.959L264.521 393.958C272.643 389.442 282.851 392.84 287.494 400.882L288.751 403.06Z" stroke="white" stroke-width="2"/>
<path d="M667.941 139.074L688.166 160.1L689.117 130.94L715.381 118.186L687.949 108.283L683.915 79.4606L666.009 102.404L637.302 97.2646L653.669 121.442L639.913 147.171L667.941 139.074Z" fill="#FA8E14"/>
<defs>
<linearGradient id="paint0_linear_306_1630" x1="588.252" y1="115.25" x2="452.196" y2="350.906" gradientUnits="userSpaceOnUse">
<stop stop-color="#EC2783"/>
<stop offset="0.525" stop-color="#D82023"/>
<stop offset="1" stop-color="#EC4D08"/>
</linearGradient>
<linearGradient id="paint1_linear_306_1630" x1="576.24" y1="136.028" x2="464.49" y2="329.585" gradientUnits="userSpaceOnUse">
<stop stop-color="#EC2783"/>
<stop offset="0.525" stop-color="#D82023"/>
<stop offset="1" stop-color="#EC4D08"/>
</linearGradient>
<linearGradient id="paint2_linear_306_1630" x1="617.509" y1="62.8595" x2="421.877" y2="401.705" gradientUnits="userSpaceOnUse">
<stop stop-color="#EC2783"/>
<stop offset="0.525" stop-color="#D82023"/>
<stop offset="1" stop-color="#EC4D08"/>
</linearGradient>
</defs>
</svg>
