<svg width="635" height="444" viewBox="0 0 635 444" fill="none" xmlns="http://www.w3.org/2000/svg">
<path d="M522.5 393.142L596.579 116.675C597.088 114.862 596.926 112.927 596.123 111.225C595.321 109.522 593.931 108.166 592.209 107.405C574.208 99.4006 563.492 80.1877 565.968 60.3158C566.218 58.7205 565.871 57.0891 564.993 55.7336C564.116 54.378 562.77 53.3933 561.212 52.9676M522.5 393.142L521.535 392.88C521.535 392.88 521.535 392.881 521.535 392.881M522.5 393.142L521.534 392.883L521.535 392.881M522.5 393.142C522.009 394.951 520.895 396.529 519.355 397.598C517.815 398.667 515.947 399.157 514.08 398.984M521.535 392.881L595.614 116.416L595.617 116.405L595.617 116.405C596.06 114.824 595.919 113.136 595.219 111.651C594.519 110.166 593.306 108.983 591.805 108.32L591.802 108.319C573.391 100.132 562.447 80.4918 564.976 60.1921L564.978 60.1766L564.98 60.1612C565.192 58.8089 564.898 57.426 564.154 56.2769C563.411 55.1285 562.27 54.2941 560.951 53.9329M521.535 392.881C521.105 394.463 520.132 395.842 518.785 396.776C517.439 397.71 515.807 398.139 514.176 397.989M560.951 53.9329L560.954 53.9336L561.212 52.9676M560.951 53.9329C560.95 53.9327 560.95 53.9325 560.949 53.9323L561.212 52.9676M560.951 53.9329L540.04 48.3297C537.089 47.5392 533.953 49.2749 533.12 52.3819L532.469 54.8106C530.066 63.7811 521.085 69.7052 512.071 67.4446L512.069 67.4441C509.9 66.8959 507.863 65.9197 506.077 64.573C504.291 63.2262 502.792 61.536 501.669 59.6018C500.545 57.6675 499.82 55.5282 499.535 53.3095C499.25 51.0922 499.411 48.8405 500.008 46.6863M561.212 52.9676L540.299 47.3638C536.817 46.431 533.13 48.48 532.154 52.123L531.503 54.5517C529.226 63.0522 520.743 68.5884 512.314 66.4746C510.275 65.959 508.359 65.041 506.679 63.7745C505 62.508 503.59 60.9185 502.533 59.0995C501.477 57.2805 500.795 55.2686 500.527 53.1821C500.259 51.0956 500.41 48.9766 500.973 46.9496M500.008 46.6863L500.007 46.6908L500.973 46.9496M500.008 46.6863C500.009 46.6849 500.009 46.6835 500.009 46.6822L500.973 46.9496M500.008 46.6863L500.802 43.7224C501.606 40.7252 499.883 37.5697 496.836 36.7533L479.916 32.2196C476.98 31.433 473.843 33.1671 473.01 36.2753L472.214 39.2437C469.797 48.2671 460.612 53.6562 451.662 51.2581C442.725 48.8634 437.466 39.6034 439.883 30.5807L440.679 27.6123C441.482 24.6124 439.77 21.4625 436.726 20.6468L415.663 15.0032C412.973 14.2823 410.149 15.7171 409.071 18.3995L409.067 18.4081C405.289 27.5675 398.661 35.2664 390.165 40.3648C381.67 45.4623 371.76 47.689 361.901 46.7153C360.285 46.571 358.67 47.0076 357.347 47.9465C356.022 48.8863 355.076 50.2678 354.679 51.8426L354.677 51.8498L354.675 51.8569L280.524 328.594L280.522 328.601L280.52 328.608C280.077 330.17 280.205 331.84 280.882 333.316C281.559 334.791 282.739 335.976 284.211 336.659C293.217 340.733 300.677 347.592 305.489 356.226C310.303 364.861 312.214 374.815 310.941 384.619L310.94 384.627C310.543 387.499 312.263 390.149 314.95 390.869L335.995 396.508C336.715 396.698 337.466 396.744 338.204 396.643C338.941 396.542 339.652 396.297 340.295 395.921C340.938 395.546 341.501 395.047 341.951 394.453C342.401 393.86 342.729 393.184 342.917 392.463L342.919 392.457L343.678 389.623C346.096 380.601 355.28 375.211 364.217 377.605C373.168 380.004 378.413 389.261 375.996 398.283L375.2 401.251C374.397 404.248 376.12 407.404 379.167 408.22L396.083 412.753L396.087 412.754M500.973 46.9496L395.828 413.72L396.087 412.754M396.087 412.754C396.806 412.943 397.555 412.988 398.291 412.888C399.029 412.787 399.74 412.542 400.383 412.166C401.026 411.791 401.588 411.292 402.038 410.698C402.488 410.105 402.817 409.429 403.005 408.708L403.006 408.702L403.657 406.273C406.061 397.303 415.042 391.379 424.056 393.639L424.057 393.64C426.226 394.188 428.263 395.164 430.049 396.511C431.835 397.858 433.334 399.548 434.458 401.482C435.581 403.416 436.307 405.556 436.592 407.774C436.877 409.992 436.716 412.243 436.118 414.397L435.324 417.361C434.52 420.361 436.233 423.511 439.277 424.327L460.065 429.897M396.087 412.754L460.065 429.897M460.065 429.897L460.069 429.898M460.065 429.897C460.066 429.897 460.068 429.898 460.069 429.898M460.069 429.898C461.392 430.244 462.796 430.092 464.013 429.469C465.231 428.846 466.177 427.795 466.67 426.518L466.674 426.508L466.679 426.498C470.477 417.269 477.15 409.512 485.707 404.376C494.263 399.241 504.247 397.001 514.176 397.989M460.069 429.898L467.603 426.878C471.32 417.849 477.849 410.258 486.222 405.234C494.594 400.209 504.364 398.017 514.08 398.984M514.176 397.989C514.177 397.989 514.178 397.989 514.179 397.989L514.08 398.984M514.176 397.989C514.175 397.989 514.174 397.989 514.173 397.988L514.08 398.984" stroke="#EC4D08" stroke-width="2"/>
<path d="M465.784 331.09L465.783 331.096C465.353 332.737 464.604 334.277 463.578 335.628C462.552 336.979 461.27 338.114 459.804 338.969C458.338 339.823 456.718 340.379 455.037 340.605C453.356 340.832 451.646 340.724 450.007 340.288L368.858 318.545C365.68 317.533 363.013 315.337 361.411 312.412C359.804 309.481 359.391 306.042 360.256 302.813C361.121 299.585 363.198 296.814 366.055 295.078C368.906 293.346 372.314 292.778 375.571 293.491L456.722 315.235C463.521 317.057 467.624 324.222 465.784 331.09ZM516.363 142.326L516.363 142.326L516.361 142.335C515.936 143.987 515.19 145.539 514.164 146.901C513.139 148.264 511.855 149.411 510.386 150.277C508.917 151.143 507.291 151.711 505.602 151.948C503.915 152.184 502.197 152.086 500.548 151.659L419.379 129.91C412.589 128.09 408.489 120.878 410.353 113.92C412.217 106.962 419.374 102.767 426.165 104.586L507.337 126.336C514.128 128.156 518.228 135.368 516.363 142.326ZM431.097 248.525C424.196 246.676 418.312 242.161 414.74 235.974C411.168 229.787 410.2 222.434 412.049 215.533C413.898 208.632 418.413 202.749 424.6 199.176C430.787 195.604 438.14 194.636 445.04 196.485C451.941 198.334 457.825 202.849 461.397 209.036C464.969 215.223 465.937 222.576 464.088 229.477C462.239 236.378 457.724 242.261 451.537 245.834C445.35 249.406 437.997 250.374 431.097 248.525Z" stroke="#EC4D08" stroke-width="2"/>
<path d="M348.066 264.311L347.1 264.052L346.841 265.018L336.628 303.135C333.007 316.648 340.56 330.025 352.966 333.349L455.929 360.938C468.336 364.262 481.565 356.454 485.186 342.941L495.399 304.824L495.658 303.858L494.692 303.599L348.066 264.311ZM348.902 257.327L348.643 258.293L349.609 258.552L496.235 297.84L497.201 298.099L497.46 297.133L526.817 187.571L527.076 186.605L526.11 186.347L379.484 147.058L378.518 146.8L378.259 147.765L348.902 257.327ZM527.653 180.588L528.619 180.846L528.878 179.881L539.091 141.763C542.712 128.25 535.159 114.873 522.753 111.549L419.79 83.9599C407.27 80.6052 394.124 88.558 390.533 101.957L380.32 140.075L380.061 141.04L381.027 141.299L527.653 180.588ZM524.296 105.79C540.127 110.032 549.256 126.862 544.85 143.307L490.945 344.484C486.539 360.928 470.217 370.939 454.386 366.697L351.423 339.108C335.579 334.863 326.463 318.036 330.869 301.592L384.774 100.414C389.139 84.1253 405.347 73.9175 421.333 78.2009L524.296 105.79Z" stroke="#EC4D08" stroke-width="2"/>
<g clip-path="url(#clip0_297_1614)">
<path d="M569.887 119.974L590.112 141L591.063 111.84L617.327 99.0857L589.896 89.1831L585.861 60.3605L567.955 83.3043L539.248 78.1645L555.616 102.342L541.859 128.071L569.887 119.974Z" fill="#FAA914"/>
</g>
<path d="M330.507 327.065L256.428 50.5981C255.963 48.774 254.855 47.1791 253.308 46.106C251.761 45.0328 249.88 44.5535 248.008 44.7558C228.417 46.8236 209.53 35.5428 201.738 17.0953C201.157 15.5889 200.041 14.3497 198.603 13.6144C197.166 12.8791 195.507 12.6993 193.946 13.1095M330.507 327.065L329.541 327.321C329.541 327.321 329.541 327.322 329.541 327.322M330.507 327.065L329.541 327.324L329.541 327.322M330.507 327.065C330.987 328.877 330.811 330.801 330.011 332.497C329.212 334.192 327.84 335.551 326.136 336.335M329.541 327.322L255.462 50.8569L255.459 50.8454L255.459 50.8454C255.053 49.2546 254.087 47.8635 252.738 46.9276C251.389 45.9916 249.748 45.5735 248.116 45.75L248.113 45.7503C228.075 47.8653 208.777 36.329 200.817 17.4844L200.811 17.47L200.805 17.4554C200.313 16.1785 199.366 15.128 198.148 14.5047C196.93 13.8817 195.525 13.7292 194.202 14.0761M329.541 327.322C329.96 328.907 329.806 330.588 329.107 332.07C328.408 333.552 327.21 334.739 325.722 335.425M194.202 14.0761L194.205 14.0754L193.946 13.1095M194.202 14.0761C194.201 14.0763 194.201 14.0765 194.2 14.0767L193.946 13.1095M194.202 14.0761L173.291 19.6793C170.34 20.4698 168.492 23.5414 169.324 26.6484L169.975 29.0771C172.379 38.0476 167.563 47.6684 158.626 50.2176L158.625 50.2181C156.472 50.8277 154.22 51.0009 152 50.7276C149.78 50.4543 147.637 49.74 145.697 48.6266C143.756 47.5133 142.058 46.0233 140.702 44.2444C139.347 42.4666 138.361 40.436 137.801 38.2718M193.946 13.1095L173.032 18.7133C169.551 19.6461 167.382 23.2641 168.358 26.9072L169.009 29.3359C171.287 37.8363 166.709 46.8723 158.352 49.256C156.328 49.8292 154.21 49.9921 152.122 49.7351C150.034 49.4781 148.019 48.8063 146.194 47.7593C144.37 46.7122 142.773 45.3111 141.498 43.6381C140.222 41.9652 139.294 40.0542 138.768 38.0174M137.801 38.2718L137.802 38.2762L138.768 38.0174M137.801 38.2718C137.8 38.2704 137.8 38.269 137.8 38.2676L138.768 38.0174M137.801 38.2718L137.007 35.3078C136.204 32.3106 133.134 30.4393 130.087 31.2557L113.167 35.7894C110.231 36.576 108.381 39.6466 109.214 42.7549L110.009 45.7233C112.427 54.7466 107.167 64.0062 98.2173 66.4043C89.2803 68.799 80.0958 63.4091 77.6782 54.3864L76.8828 51.4179C76.079 48.4181 73.0208 46.5465 69.9766 47.3622L48.9144 53.0058C46.2241 53.7267 44.4955 56.3815 44.9034 59.2433L44.9047 59.2525C46.2118 69.0741 44.3212 79.0557 39.5126 87.719C34.7048 96.3809 27.2356 103.264 18.2109 107.35C16.7392 108.034 15.559 109.219 14.8824 110.694C14.2051 112.17 14.0768 113.839 14.5202 115.402L14.5223 115.409L14.5242 115.416L88.6756 392.153L88.6775 392.16L88.6793 392.167C89.0764 393.742 90.0223 395.123 91.3469 396.063C92.6702 397.002 94.2849 397.439 95.9009 397.295C105.737 396.319 115.627 398.529 124.112 403.6C132.599 408.672 139.231 416.337 143.03 425.464L143.033 425.472C144.125 428.157 146.94 429.592 149.627 428.872L170.672 423.233C171.391 423.037 172.063 422.702 172.652 422.245C173.241 421.789 173.734 421.222 174.103 420.575C174.472 419.928 174.709 419.215 174.802 418.476C174.895 417.737 174.842 416.987 174.644 416.269L174.643 416.263L173.883 413.429C171.466 404.406 176.725 395.146 185.662 392.752C194.613 390.353 203.783 395.747 206.201 404.77L206.996 407.738C207.799 410.735 210.869 412.607 213.916 411.79L230.832 407.258L230.836 407.257M138.768 38.0174L231.095 408.222L230.836 407.257M230.836 407.257C231.553 407.061 232.224 406.725 232.812 406.27C233.401 405.814 233.894 405.246 234.263 404.599C234.632 403.953 234.869 403.239 234.962 402.5C235.055 401.762 235.002 401.012 234.804 400.294L234.803 400.287L234.152 397.859C231.748 388.888 236.564 379.267 245.5 376.718L245.502 376.718C247.654 376.108 249.907 375.935 252.127 376.208C254.347 376.481 256.49 377.196 258.43 378.309C260.37 379.423 262.068 380.912 263.425 382.691C264.78 384.469 265.766 386.5 266.326 388.664L267.12 391.628C267.924 394.628 270.982 396.499 274.026 395.684L294.814 390.114M230.836 407.257L294.814 390.114M294.814 390.114L294.819 390.112M294.814 390.114C294.816 390.113 294.817 390.113 294.819 390.112M294.819 390.112C296.137 389.751 297.276 388.917 298.019 387.769C298.763 386.62 299.057 385.237 298.845 383.885L298.844 383.874L298.842 383.863C297.518 373.972 299.418 363.917 304.261 355.191C309.103 346.466 316.629 339.534 325.722 335.425M294.819 390.112L299.833 383.73C298.537 374.052 300.397 364.214 305.135 355.676C309.873 347.138 317.238 340.355 326.136 336.335M325.722 335.425C325.723 335.424 325.724 335.424 325.725 335.423L326.136 336.335M325.722 335.425C325.721 335.425 325.72 335.426 325.719 335.426L326.136 336.335" stroke="white" stroke-width="2"/>
<path d="M250.364 301.684L250.365 301.69C250.814 303.326 250.936 305.035 250.723 306.718C250.51 308.401 249.967 310.025 249.124 311.498C248.282 312.97 247.157 314.262 245.814 315.299C244.471 316.336 242.937 317.097 241.299 317.539L160.151 339.283C156.893 339.996 153.485 339.428 150.635 337.696C147.778 335.96 145.701 333.189 144.835 329.961C143.97 326.732 144.384 323.293 145.99 320.362C147.593 317.437 150.26 315.241 153.438 314.229L234.588 292.485C241.387 290.663 248.523 294.816 250.364 301.684ZM199.785 112.92L199.784 112.92L199.787 112.93C200.245 114.573 200.374 116.29 200.168 117.983C199.961 119.675 199.423 121.311 198.584 122.795C197.744 124.28 196.62 125.584 195.276 126.634C193.933 127.682 192.397 128.456 190.755 128.911L109.586 150.66C102.795 152.479 95.6385 148.284 93.7742 141.326C91.9098 134.368 96.01 127.156 102.8 125.336L183.973 103.586C190.763 101.767 197.92 105.962 199.785 112.92ZM179.041 247.525C172.14 249.374 164.787 248.406 158.6 244.834C152.413 241.261 147.898 235.378 146.049 228.477C144.2 221.576 145.168 214.223 148.74 208.036C152.313 201.849 158.196 197.335 165.097 195.485C171.998 193.636 179.351 194.604 185.538 198.176C191.725 201.749 196.239 207.632 198.089 214.533C199.938 221.434 198.97 228.787 195.397 234.974C191.825 241.161 185.942 245.676 179.041 247.525Z" stroke="white" stroke-width="2"/>
<path d="M115.028 302.711L114.062 302.97L114.321 303.936L124.534 342.053C128.155 355.566 141.384 363.374 153.79 360.05L256.754 332.461C269.16 329.137 276.713 315.76 273.092 302.247L262.878 264.13L262.62 263.164L261.654 263.423L115.028 302.711ZM112.26 296.245L112.519 297.211L113.485 296.952L260.111 257.664L261.076 257.405L260.818 256.439L231.461 146.877L231.202 145.912L230.236 146.17L83.61 185.459L82.6441 185.717L82.9029 186.683L112.26 296.245ZM228.693 140.411L229.659 140.152L229.4 139.187L219.187 101.069C215.566 87.5559 202.336 79.7477 189.93 83.0719L86.9668 110.661C74.4467 114.016 67.0384 127.476 70.6287 140.875L80.8422 178.993L81.101 179.958L82.0669 179.7L228.693 140.411ZM188.387 77.3129C204.218 73.0711 220.539 83.0823 224.946 99.5263L278.851 300.704C283.257 317.148 274.128 333.979 258.297 338.22L155.334 365.809C139.49 370.055 123.181 360.04 118.775 343.596L64.8697 142.419C60.5051 126.129 69.4376 109.185 85.4236 104.902L188.387 77.3129Z" stroke="white" stroke-width="2"/>
<defs>
<clipPath id="clip0_297_1614">
<rect width="97" height="97" fill="white" transform="translate(541.105 40) rotate(15)"/>
</clipPath>
</defs>
</svg>
