<svg width="627" height="514" viewBox="0 0 627 514" fill="none" xmlns="http://www.w3.org/2000/svg">
<path d="M550.279 129.966L446.335 73.2651C445.159 72.6223 443.84 72.284 442.5 72.2812H378.25C376.12 72.2812 374.077 73.1274 372.571 74.6336C371.065 76.1397 370.219 78.1825 370.219 80.3125C370.219 95.2226 364.296 109.522 353.753 120.065C343.21 130.608 328.91 136.531 314 136.531C299.09 136.531 284.79 130.608 274.247 120.065C263.704 109.522 257.781 95.2226 257.781 80.3125C257.781 78.1825 256.935 76.1397 255.429 74.6336C253.923 73.1274 251.88 72.2812 249.75 72.2812H185.5C184.165 72.2935 182.854 72.6386 181.685 73.2852L77.7207 129.966C72.163 132.87 67.9844 137.86 66.1023 143.841C64.2201 149.823 64.7881 156.307 67.6816 161.87L106.392 235.777C108.519 239.783 111.701 243.13 115.594 245.455C119.488 247.781 123.943 248.996 128.478 248.969H177.469V417.625C177.469 424.015 180.007 430.143 184.526 434.662C189.044 439.18 195.173 441.719 201.563 441.719H426.438C432.828 441.719 438.956 439.18 443.474 434.662C447.993 430.143 450.531 424.015 450.531 417.625V248.969H499.381C503.916 248.996 508.372 247.781 512.265 245.455C516.159 243.13 519.341 239.783 521.467 235.777L560.178 161.87C563.082 156.324 563.671 149.853 561.816 143.874C559.961 137.895 555.813 132.894 550.279 129.966ZM128.619 232.906C126.99 232.946 125.382 232.54 123.967 231.734C122.552 230.927 121.383 229.75 120.587 228.328L81.9773 154.421C81.5108 153.519 81.2296 152.533 81.1501 151.521C81.0706 150.509 81.1945 149.491 81.5144 148.527C81.8344 147.563 82.3439 146.674 83.0131 145.91C83.6822 145.146 84.4974 144.524 85.4106 144.081L177.469 93.8452V232.906H128.619ZM434.469 417.625C434.469 419.755 433.623 421.798 432.116 423.304C430.61 424.81 428.568 425.656 426.438 425.656H201.563C199.433 425.656 197.39 424.81 195.884 423.304C194.377 421.798 193.531 419.755 193.531 417.625V88.3438H242.161C244.124 106.024 252.538 122.359 265.793 134.223C279.047 146.087 296.211 152.646 314 152.646C331.789 152.646 348.953 146.087 362.207 134.223C375.462 122.359 383.876 106.024 385.84 88.3438H434.469V417.625ZM546.023 154.421L507.332 228.328C506.537 229.75 505.368 230.927 503.953 231.734C502.538 232.54 500.929 232.946 499.301 232.906H450.531V93.8452L542.589 144.04C543.508 144.484 544.328 145.108 545.001 145.874C545.673 146.641 546.185 147.535 546.505 148.503C546.825 149.472 546.948 150.495 546.865 151.511C546.782 152.528 546.496 153.517 546.023 154.421Z" fill="#EC2783"/>
<path d="M289.938 210.875C290.271 211.375 290.542 211.896 290.75 212.438C291 212.938 291.125 213.292 291.125 213.5C291.125 213.792 291.083 214.042 291 214.25C290.917 214.417 290.792 214.625 290.625 214.875C289.042 215.583 287.438 216.312 285.812 217.062C284.229 217.812 282.604 218.521 280.938 219.188C280.521 219.354 280.125 219.521 279.75 219.688C279.375 219.854 278.958 220.021 278.5 220.188C278.417 220.271 278.229 220.354 277.938 220.438C277.688 220.479 277.458 220.5 277.25 220.5C277.333 221.333 277.375 222.188 277.375 223.062C277.417 223.938 277.458 224.812 277.5 225.688C277.5 225.938 277.542 226.188 277.625 226.438C277.708 226.646 277.75 226.875 277.75 227.125C277.833 227.917 277.875 228.688 277.875 229.438C277.875 230.188 277.917 230.958 278 231.75C279.542 231.083 281.062 230.417 282.562 229.75C284.104 229.042 285.646 228.354 287.188 227.688C287.438 227.729 287.708 227.771 288 227.812C288.292 227.854 288.562 227.938 288.812 228.062C288.896 228.146 288.979 228.25 289.062 228.375C289.146 228.5 289.25 228.604 289.375 228.688C289.375 228.896 289.5 229.208 289.75 229.625C290.042 230 290.188 230.417 290.188 230.875C290.188 230.958 290.25 231.104 290.375 231.312C290.5 231.479 290.583 231.604 290.625 231.688C290.625 232.104 290.604 232.333 290.562 232.375C290.854 232.583 291.042 232.854 291.125 233.188C291.25 233.521 291.312 233.854 291.312 234.188C290.562 235.021 289.812 235.583 289.062 235.875C288.354 236.167 287.625 236.479 286.875 236.812C286.667 236.938 286.438 237.062 286.188 237.188C285.938 237.312 285.688 237.438 285.438 237.562C285.104 237.688 284.771 237.812 284.438 237.938C284.146 238.021 283.833 238.146 283.5 238.312C283 238.604 282.438 238.938 281.812 239.312C281.188 239.688 280.625 239.917 280.125 240C279.792 240.083 279.5 240.146 279.25 240.188C279.042 240.188 278.792 240.292 278.5 240.5C278.458 241 278.438 241.5 278.438 242C278.479 242.458 278.5 242.917 278.5 243.375C278.5 243.875 278.458 244.375 278.375 244.875C278.333 245.333 278.312 245.812 278.312 246.312C278.312 247.146 278.271 247.979 278.188 248.812C278.104 249.604 278.062 250.396 278.062 251.188C278.062 251.688 278.083 252.188 278.125 252.688C278.167 253.146 278.188 253.604 278.188 254.062C278.188 254.312 278.146 254.542 278.062 254.75C277.979 254.958 277.896 255.167 277.812 255.375C277.229 255.458 276.875 255.458 276.75 255.375C276.625 255.25 276.479 255.146 276.312 255.062C276.104 255.062 275.958 255.146 275.875 255.312C275.833 255.479 275.708 255.604 275.5 255.688C275.333 255.646 275.146 255.646 274.938 255.688C274.771 255.688 274.625 255.646 274.5 255.562C274.167 255.688 273.854 255.833 273.562 256C273.312 256.167 273.021 256.292 272.688 256.375C272.062 256.292 271.667 256.25 271.5 256.25C271.375 256.292 271.229 256.333 271.062 256.375C270.771 256.083 270.625 255.729 270.625 255.312C270.667 254.854 270.562 254.458 270.312 254.125C270.312 253.708 270.271 253.458 270.188 253.375C270.104 253.25 270.062 253.146 270.062 253.062C270.062 252.938 270.062 252.812 270.062 252.688C270.104 252.521 270.125 252.354 270.125 252.188C270.125 251.812 270.104 251.521 270.062 251.312C270.104 251.062 270.146 250.688 270.188 250.188C270.229 249.646 270.271 249.104 270.312 248.562C270.354 247.979 270.375 247.417 270.375 246.875C270.375 246.333 270.375 245.896 270.375 245.562C270.375 245.354 270.417 245.188 270.5 245.062C270.583 244.896 270.625 244.708 270.625 244.5C270.625 244.167 270.604 243.875 270.562 243.625C270.562 243.333 270.562 243.042 270.562 242.75C270.562 242.167 270.562 241.583 270.562 241C270.604 240.417 270.625 239.833 270.625 239.25C270.625 237.458 270.521 235.708 270.312 234C270.146 232.25 270.062 230.5 270.062 228.75C270.062 227.792 270.021 226.75 269.938 225.625C269.854 224.458 269.75 223.396 269.625 222.438C269.625 222.229 269.583 222.062 269.5 221.938C269.458 221.771 269.438 221.604 269.438 221.438C269.396 220.938 269.375 220.438 269.375 219.938C269.375 219.396 269.375 218.854 269.375 218.312C269.375 217.979 269.375 217.521 269.375 216.938C269.375 216.312 269.375 215.688 269.375 215.062C269.375 214.396 269.375 213.771 269.375 213.188C269.417 212.604 269.458 212.188 269.5 211.938C269.5 211.896 269.625 211.833 269.875 211.75C270.125 211.625 270.292 211.562 270.375 211.562C270.583 211.562 270.75 211.625 270.875 211.75C271 211.875 271.146 212 271.312 212.125C271.479 212 271.646 211.938 271.812 211.938C272.021 211.938 272.229 211.938 272.438 211.938C273.062 211.812 273.438 211.833 273.562 212C273.729 212.125 273.854 212.188 273.938 212.188C274.062 212.188 274.167 212.125 274.25 212C274.333 211.875 274.438 211.812 274.562 211.812C274.896 211.812 275.083 211.896 275.125 212.062C275.208 212.229 275.333 212.312 275.5 212.312C275.667 212.312 275.792 212.25 275.875 212.125C275.958 212 276.042 211.938 276.125 211.938C276.25 211.938 276.375 211.979 276.5 212.062C276.625 212.104 276.75 212.125 276.875 212.125C277.083 212.125 277.312 212.062 277.562 211.938C277.812 211.771 278.042 211.646 278.25 211.562C278.583 211.479 278.875 211.375 279.125 211.25C279.417 211.125 279.708 211.021 280 210.938C280.625 210.562 281.083 210.333 281.375 210.25C281.708 210.125 282.042 209.979 282.375 209.812C283.083 209.479 283.75 209.167 284.375 208.875C285.042 208.542 285.729 208.229 286.438 207.938C286.812 207.938 287.062 207.854 287.188 207.688C287.479 207.812 287.854 207.833 288.312 207.75C288.812 208.208 289.125 208.562 289.25 208.812C289.417 209.062 289.604 209.292 289.812 209.5C290.062 209.833 290.229 210 290.312 210C290.312 210.125 290.25 210.271 290.125 210.438C290 210.604 289.938 210.75 289.938 210.875ZM327.062 231.188C326.979 231.354 326.896 231.521 326.812 231.688C326.729 231.812 326.667 231.958 326.625 232.125C326.792 232.292 326.938 232.479 327.062 232.688C327.229 232.854 327.312 233.042 327.312 233.25C327.312 233.417 327.271 233.583 327.188 233.75C327.146 233.875 327.146 234 327.188 234.125C327.021 234.417 326.833 234.688 326.625 234.938C326.458 235.188 326.333 235.458 326.25 235.75C326.083 235.917 325.938 236.083 325.812 236.25C325.729 236.417 325.646 236.583 325.562 236.75C325.354 236.833 325.208 236.979 325.125 237.188C325.083 237.354 324.979 237.5 324.812 237.625C324.771 237.792 324.562 238.188 324.188 238.812C323.812 239.438 323.396 240.104 322.938 240.812C322.479 241.521 322.042 242.208 321.625 242.875C321.208 243.542 320.917 243.979 320.75 244.188C320.667 244.396 320.562 244.562 320.438 244.688C320.354 244.812 320.25 244.958 320.125 245.125C320.042 245.25 319.979 245.396 319.938 245.562C319.896 245.688 319.833 245.792 319.75 245.875C319.667 246.042 319.562 246.188 319.438 246.312C319.354 246.438 319.271 246.604 319.188 246.812C318.771 247.354 318.354 248 317.938 248.75C317.521 249.5 317.125 250.167 316.75 250.75C316.542 251.083 316.333 251.417 316.125 251.75C315.958 252.083 315.771 252.417 315.562 252.75C315.354 253.083 315.146 253.396 314.938 253.688C314.729 253.979 314.521 254.292 314.312 254.625C313.979 254.875 313.688 255.188 313.438 255.562C313.188 255.896 312.896 256.188 312.562 256.438C312.021 256.438 311.688 256.188 311.562 255.688C311.021 255.562 310.75 255.562 310.75 255.688C310.75 255.812 310.75 255.917 310.75 256C310.583 256.083 310.458 256.208 310.375 256.375C310.333 256.542 310.229 256.667 310.062 256.75C309.729 256.667 309.438 256.521 309.188 256.312C308.979 256.146 308.667 256.083 308.25 256.125C308.083 255.875 307.896 255.667 307.688 255.5C307.479 255.292 307.292 255.083 307.125 254.875C307.042 254.625 306.917 254.417 306.75 254.25C306.625 254.083 306.5 253.917 306.375 253.75C306.25 253.542 306.125 253.354 306 253.188C305.875 253.021 305.75 252.854 305.625 252.688C305.333 252.312 305.042 251.958 304.75 251.625C304.5 251.25 304.271 250.875 304.062 250.5C303.729 250 303.396 249.5 303.062 249C302.771 248.458 302.458 247.938 302.125 247.438C301.958 247.188 301.792 246.938 301.625 246.688C301.458 246.438 301.312 246.188 301.188 245.938C301.104 245.729 300.979 245.479 300.812 245.188C300.688 244.896 300.521 244.708 300.312 244.625C300.229 244.292 300.083 244.042 299.875 243.875C299.667 243.708 299.458 243.5 299.25 243.25C298.958 242.917 298.688 242.562 298.438 242.188C298.188 241.771 297.938 241.354 297.688 240.938C296.854 239.771 296.062 238.625 295.312 237.5C294.604 236.375 293.896 235.208 293.188 234C293.396 233.333 293.5 232.833 293.5 232.5C293.5 232.167 293.604 231.896 293.812 231.688C293.812 231.521 293.854 231.271 293.938 230.938C294.479 230.021 295 229.188 295.5 228.438C295.958 227.729 296.271 227.146 296.438 226.688C296.646 226.229 296.854 225.75 297.062 225.25C297.271 225.125 297.438 224.979 297.562 224.812C297.688 224.604 297.854 224.417 298.062 224.25C298.146 223.792 298.333 223.417 298.625 223.125C298.917 222.792 299.104 222.396 299.188 221.938C299.562 221.646 299.771 221.312 299.812 220.938C300.354 220.562 300.688 220.062 300.812 219.438C301.146 219.104 301.417 218.729 301.625 218.312C301.875 217.896 302.104 217.458 302.312 217C302.812 216.583 303.208 216.042 303.5 215.375C303.75 215.208 303.938 214.979 304.062 214.688C304.188 214.396 304.354 214.146 304.562 213.938C304.896 213.396 305.146 212.958 305.312 212.625C305.521 212.25 305.729 211.875 305.938 211.5C306.229 211.5 306.417 211.396 306.5 211.188C306.583 210.979 306.75 210.896 307 210.938C307 210.562 307.104 210.229 307.312 209.938C307.396 209.896 307.521 209.854 307.688 209.812C307.854 209.729 307.938 209.646 307.938 209.562C307.854 209.062 307.875 208.771 308 208.688C308.125 208.604 308.229 208.521 308.312 208.438C308.771 208.521 309.083 208.583 309.25 208.625C309.417 208.667 309.688 208.812 310.062 209.062C310.479 209.062 310.771 209.146 310.938 209.312C311.104 209.479 311.292 209.604 311.5 209.688C311.667 209.854 311.792 210.021 311.875 210.188C312 210.354 312.167 210.479 312.375 210.562C312.708 211.021 313.062 211.521 313.438 212.062C313.812 212.604 314.167 213.104 314.5 213.562C314.958 214.188 315.417 214.792 315.875 215.375C316.375 215.917 316.833 216.521 317.25 217.188C317.375 217.396 317.604 217.771 317.938 218.312C318.271 218.812 318.646 219.354 319.062 219.938C319.479 220.521 319.854 221.062 320.188 221.562C320.521 222.021 320.75 222.292 320.875 222.375C321 222.583 321.271 222.979 321.688 223.562C322.104 224.146 322.542 224.771 323 225.438C323.5 226.062 323.979 226.667 324.438 227.25C324.896 227.833 325.208 228.208 325.375 228.375C325.833 229 326.167 229.521 326.375 229.938C326.625 230.312 326.854 230.729 327.062 231.188ZM312.75 242.938C313.208 242.312 313.562 241.75 313.812 241.25C314.062 240.75 314.312 240.25 314.562 239.75C314.979 239.25 315.229 238.896 315.312 238.688C315.396 238.479 315.5 238.271 315.625 238.062C315.958 237.562 316.292 237.062 316.625 236.562C317 236.062 317.292 235.521 317.5 234.938C317.75 234.771 317.938 234.562 318.062 234.312C318.188 234.062 318.375 233.833 318.625 233.625C318.375 232.75 318.083 232.083 317.75 231.625C317.417 231.125 317.083 230.646 316.75 230.188C316.625 229.979 316.5 229.771 316.375 229.562C316.25 229.354 316.125 229.146 316 228.938C315.833 228.812 315.688 228.688 315.562 228.562C315.479 228.438 315.375 228.312 315.25 228.188C315.167 227.979 315.042 227.708 314.875 227.375C314.708 227.167 314.542 226.979 314.375 226.812C314.208 226.646 314.062 226.438 313.938 226.188C313.771 226.021 313.562 225.792 313.312 225.5C313.062 225.208 312.792 224.896 312.5 224.562C312.25 224.188 312.021 223.854 311.812 223.562C311.604 223.229 311.438 222.958 311.312 222.75C311.229 222.542 311.146 222.375 311.062 222.25C311.021 222.083 310.958 221.917 310.875 221.75C310.667 221.458 310.458 221.208 310.25 221C310.042 220.75 309.833 220.479 309.625 220.188C309.5 220.271 309.375 220.333 309.25 220.375C309.167 220.375 309.083 220.417 309 220.5C308.708 221.042 308.375 221.542 308 222C307.667 222.458 307.333 222.958 307 223.5C306.708 224 306.417 224.521 306.125 225.062C305.833 225.562 305.542 226.062 305.25 226.562C305.042 226.854 304.833 227.146 304.625 227.438C304.458 227.688 304.271 227.979 304.062 228.312C303.854 228.604 303.667 228.917 303.5 229.25C303.375 229.542 303.208 229.833 303 230.125C302.667 230.542 302.396 230.917 302.188 231.25C301.979 231.583 301.771 231.979 301.562 232.438C301.688 232.688 301.875 233.042 302.125 233.5C302.417 233.917 302.708 234.354 303 234.812C303.292 235.229 303.542 235.625 303.75 236C304 236.375 304.146 236.625 304.188 236.75C304.521 237.042 304.792 237.375 305 237.75C305.208 238.083 305.479 238.417 305.812 238.75C305.979 239.083 306.167 239.375 306.375 239.625C306.583 239.875 306.792 240.146 307 240.438C307.208 240.729 307.479 241.167 307.812 241.75C308.146 242.292 308.479 242.854 308.812 243.438C309.146 244.021 309.479 244.562 309.812 245.062C310.146 245.562 310.417 245.875 310.625 246C311.042 245.542 311.375 245.042 311.625 244.5C311.917 243.917 312.292 243.396 312.75 242.938ZM361.188 231.188C361.104 231.354 361.021 231.521 360.938 231.688C360.854 231.812 360.792 231.958 360.75 232.125C360.917 232.292 361.062 232.479 361.188 232.688C361.354 232.854 361.438 233.042 361.438 233.25C361.438 233.417 361.396 233.583 361.312 233.75C361.271 233.875 361.271 234 361.312 234.125C361.146 234.417 360.958 234.688 360.75 234.938C360.583 235.188 360.458 235.458 360.375 235.75C360.208 235.917 360.062 236.083 359.938 236.25C359.854 236.417 359.771 236.583 359.688 236.75C359.479 236.833 359.333 236.979 359.25 237.188C359.208 237.354 359.104 237.5 358.938 237.625C358.896 237.792 358.688 238.188 358.312 238.812C357.938 239.438 357.521 240.104 357.062 240.812C356.604 241.521 356.167 242.208 355.75 242.875C355.333 243.542 355.042 243.979 354.875 244.188C354.792 244.396 354.688 244.562 354.562 244.688C354.479 244.812 354.375 244.958 354.25 245.125C354.167 245.25 354.104 245.396 354.062 245.562C354.021 245.688 353.958 245.792 353.875 245.875C353.792 246.042 353.688 246.188 353.562 246.312C353.479 246.438 353.396 246.604 353.312 246.812C352.896 247.354 352.479 248 352.062 248.75C351.646 249.5 351.25 250.167 350.875 250.75C350.667 251.083 350.458 251.417 350.25 251.75C350.083 252.083 349.896 252.417 349.688 252.75C349.479 253.083 349.271 253.396 349.062 253.688C348.854 253.979 348.646 254.292 348.438 254.625C348.104 254.875 347.812 255.188 347.562 255.562C347.312 255.896 347.021 256.188 346.688 256.438C346.146 256.438 345.812 256.188 345.688 255.688C345.146 255.562 344.875 255.562 344.875 255.688C344.875 255.812 344.875 255.917 344.875 256C344.708 256.083 344.583 256.208 344.5 256.375C344.458 256.542 344.354 256.667 344.188 256.75C343.854 256.667 343.562 256.521 343.312 256.312C343.104 256.146 342.792 256.083 342.375 256.125C342.208 255.875 342.021 255.667 341.812 255.5C341.604 255.292 341.417 255.083 341.25 254.875C341.167 254.625 341.042 254.417 340.875 254.25C340.75 254.083 340.625 253.917 340.5 253.75C340.375 253.542 340.25 253.354 340.125 253.188C340 253.021 339.875 252.854 339.75 252.688C339.458 252.312 339.167 251.958 338.875 251.625C338.625 251.25 338.396 250.875 338.188 250.5C337.854 250 337.521 249.5 337.188 249C336.896 248.458 336.583 247.938 336.25 247.438C336.083 247.188 335.917 246.938 335.75 246.688C335.583 246.438 335.438 246.188 335.312 245.938C335.229 245.729 335.104 245.479 334.938 245.188C334.812 244.896 334.646 244.708 334.438 244.625C334.354 244.292 334.208 244.042 334 243.875C333.792 243.708 333.583 243.5 333.375 243.25C333.083 242.917 332.812 242.562 332.562 242.188C332.312 241.771 332.062 241.354 331.812 240.938C330.979 239.771 330.188 238.625 329.438 237.5C328.729 236.375 328.021 235.208 327.312 234C327.521 233.333 327.625 232.833 327.625 232.5C327.625 232.167 327.729 231.896 327.938 231.688C327.938 231.521 327.979 231.271 328.062 230.938C328.604 230.021 329.125 229.188 329.625 228.438C330.083 227.729 330.396 227.146 330.562 226.688C330.771 226.229 330.979 225.75 331.188 225.25C331.396 225.125 331.562 224.979 331.688 224.812C331.812 224.604 331.979 224.417 332.188 224.25C332.271 223.792 332.458 223.417 332.75 223.125C333.042 222.792 333.229 222.396 333.312 221.938C333.688 221.646 333.896 221.312 333.938 220.938C334.479 220.562 334.812 220.062 334.938 219.438C335.271 219.104 335.542 218.729 335.75 218.312C336 217.896 336.229 217.458 336.438 217C336.938 216.583 337.333 216.042 337.625 215.375C337.875 215.208 338.062 214.979 338.188 214.688C338.312 214.396 338.479 214.146 338.688 213.938C339.021 213.396 339.271 212.958 339.438 212.625C339.646 212.25 339.854 211.875 340.062 211.5C340.354 211.5 340.542 211.396 340.625 211.188C340.708 210.979 340.875 210.896 341.125 210.938C341.125 210.562 341.229 210.229 341.438 209.938C341.521 209.896 341.646 209.854 341.812 209.812C341.979 209.729 342.062 209.646 342.062 209.562C341.979 209.062 342 208.771 342.125 208.688C342.25 208.604 342.354 208.521 342.438 208.438C342.896 208.521 343.208 208.583 343.375 208.625C343.542 208.667 343.812 208.812 344.188 209.062C344.604 209.062 344.896 209.146 345.062 209.312C345.229 209.479 345.417 209.604 345.625 209.688C345.792 209.854 345.917 210.021 346 210.188C346.125 210.354 346.292 210.479 346.5 210.562C346.833 211.021 347.188 211.521 347.562 212.062C347.938 212.604 348.292 213.104 348.625 213.562C349.083 214.188 349.542 214.792 350 215.375C350.5 215.917 350.958 216.521 351.375 217.188C351.5 217.396 351.729 217.771 352.062 218.312C352.396 218.812 352.771 219.354 353.188 219.938C353.604 220.521 353.979 221.062 354.312 221.562C354.646 222.021 354.875 222.292 355 222.375C355.125 222.583 355.396 222.979 355.812 223.562C356.229 224.146 356.667 224.771 357.125 225.438C357.625 226.062 358.104 226.667 358.562 227.25C359.021 227.833 359.333 228.208 359.5 228.375C359.958 229 360.292 229.521 360.5 229.938C360.75 230.312 360.979 230.729 361.188 231.188ZM346.875 242.938C347.333 242.312 347.688 241.75 347.938 241.25C348.188 240.75 348.438 240.25 348.688 239.75C349.104 239.25 349.354 238.896 349.438 238.688C349.521 238.479 349.625 238.271 349.75 238.062C350.083 237.562 350.417 237.062 350.75 236.562C351.125 236.062 351.417 235.521 351.625 234.938C351.875 234.771 352.062 234.562 352.188 234.312C352.312 234.062 352.5 233.833 352.75 233.625C352.5 232.75 352.208 232.083 351.875 231.625C351.542 231.125 351.208 230.646 350.875 230.188C350.75 229.979 350.625 229.771 350.5 229.562C350.375 229.354 350.25 229.146 350.125 228.938C349.958 228.812 349.812 228.688 349.688 228.562C349.604 228.438 349.5 228.312 349.375 228.188C349.292 227.979 349.167 227.708 349 227.375C348.833 227.167 348.667 226.979 348.5 226.812C348.333 226.646 348.188 226.438 348.062 226.188C347.896 226.021 347.688 225.792 347.438 225.5C347.188 225.208 346.917 224.896 346.625 224.562C346.375 224.188 346.146 223.854 345.938 223.562C345.729 223.229 345.562 222.958 345.438 222.75C345.354 222.542 345.271 222.375 345.188 222.25C345.146 222.083 345.083 221.917 345 221.75C344.792 221.458 344.583 221.208 344.375 221C344.167 220.75 343.958 220.479 343.75 220.188C343.625 220.271 343.5 220.333 343.375 220.375C343.292 220.375 343.208 220.417 343.125 220.5C342.833 221.042 342.5 221.542 342.125 222C341.792 222.458 341.458 222.958 341.125 223.5C340.833 224 340.542 224.521 340.25 225.062C339.958 225.562 339.667 226.062 339.375 226.562C339.167 226.854 338.958 227.146 338.75 227.438C338.583 227.688 338.396 227.979 338.188 228.312C337.979 228.604 337.792 228.917 337.625 229.25C337.5 229.542 337.333 229.833 337.125 230.125C336.792 230.542 336.521 230.917 336.312 231.25C336.104 231.583 335.896 231.979 335.688 232.438C335.812 232.688 336 233.042 336.25 233.5C336.542 233.917 336.833 234.354 337.125 234.812C337.417 235.229 337.667 235.625 337.875 236C338.125 236.375 338.271 236.625 338.312 236.75C338.646 237.042 338.917 237.375 339.125 237.75C339.333 238.083 339.604 238.417 339.938 238.75C340.104 239.083 340.292 239.375 340.5 239.625C340.708 239.875 340.917 240.146 341.125 240.438C341.333 240.729 341.604 241.167 341.938 241.75C342.271 242.292 342.604 242.854 342.938 243.438C343.271 244.021 343.604 244.562 343.938 245.062C344.271 245.562 344.542 245.875 344.75 246C345.167 245.542 345.5 245.042 345.75 244.5C346.042 243.917 346.417 243.396 346.875 242.938Z" fill="white"/>
<path d="M260.75 316.938C260.833 317.146 261.146 317.604 261.688 318.312C262.229 318.979 262.833 319.729 263.5 320.562C264.208 321.354 264.896 322.125 265.562 322.875C266.229 323.625 266.688 324.167 266.938 324.5C267.729 325.667 268.542 326.812 269.375 327.938C270.208 329.062 271 330.229 271.75 331.438C271.958 331.646 272.125 331.917 272.25 332.25C272.375 332.542 272.438 332.854 272.438 333.188C272.438 333.562 272.333 333.771 272.125 333.812C271.958 333.812 271.771 333.854 271.562 333.938C271.146 334.229 270.771 334.396 270.438 334.438C270.104 334.479 269.833 334.5 269.625 334.5C269.167 334.5 268.667 334.479 268.125 334.438C267.583 334.438 267.125 334.479 266.75 334.562C266.625 334.604 266.479 334.667 266.312 334.75C266.146 334.875 266.021 334.938 265.938 334.938C265.604 334.938 265.354 334.875 265.188 334.75C265.062 334.667 264.875 334.583 264.625 334.5C264.292 334.125 263.979 333.729 263.688 333.312C263.438 332.896 263.167 332.479 262.875 332.062C262.625 331.771 262.354 331.521 262.062 331.312C261.771 331.062 261.5 330.771 261.25 330.438C260.583 329.479 259.896 328.562 259.188 327.688C258.521 326.812 257.833 325.938 257.125 325.062C256.792 324.604 256.417 324.167 256 323.75C255.625 323.333 255.271 322.917 254.938 322.5C254.604 322.042 254.292 321.562 254 321.062C253.708 320.562 253.396 320.083 253.062 319.625C252.812 319.208 252.458 318.708 252 318.125C251.542 317.5 251.062 316.875 250.562 316.25C250.062 315.625 249.542 315.042 249 314.5C248.5 313.917 248.062 313.479 247.688 313.188C247.688 312.896 247.604 312.688 247.438 312.562C247.271 312.438 247.083 312.292 246.875 312.125C246.792 311.917 246.688 311.729 246.562 311.562C246.438 311.354 246.375 311.125 246.375 310.875C246.375 310.708 246.396 310.562 246.438 310.438C246.479 310.312 246.521 310.188 246.562 310.062C246.646 309.896 246.688 309.75 246.688 309.625C246.729 309.458 246.792 309.292 246.875 309.125C247.083 308.583 247.375 308.104 247.75 307.688C248.167 307.271 248.479 306.792 248.688 306.25C248.729 306.083 248.75 305.938 248.75 305.812C248.75 305.646 248.792 305.479 248.875 305.312C249 305.062 249.188 304.812 249.438 304.562C249.688 304.312 249.917 304.042 250.125 303.75C250.333 303.375 250.542 303 250.75 302.625C250.958 302.25 251.167 301.875 251.375 301.5C251.958 300.542 252.604 299.625 253.312 298.75C254.021 297.833 254.688 296.938 255.312 296.062C255.896 295.229 256.438 294.417 256.938 293.625C257.438 292.792 257.979 291.958 258.562 291.125C258.854 290.708 259.188 290.25 259.562 289.75C259.938 289.208 260.312 288.688 260.688 288.188C261.104 287.688 261.521 287.229 261.938 286.812C262.354 286.354 262.771 286.021 263.188 285.812C263.896 285.729 264.354 285.854 264.562 286.188C264.771 286.479 265.062 286.625 265.438 286.625C266.021 286.75 266.417 286.938 266.625 287.188C266.833 287.438 267.042 287.667 267.25 287.875C267.792 287.875 268.25 287.979 268.625 288.188C269 288.396 269.375 288.708 269.75 289.125C269.583 289.583 269.354 290 269.062 290.375C268.812 290.75 268.583 291.146 268.375 291.562C268.042 291.688 267.792 291.896 267.625 292.188C267.5 292.479 267.292 292.729 267 292.938C266.542 293.646 266.083 294.354 265.625 295.062C265.167 295.729 264.708 296.375 264.25 297C264.042 297.25 263.792 297.458 263.5 297.625C263.25 297.75 263.042 297.958 262.875 298.25C262.792 298.375 262.729 298.521 262.688 298.688C262.646 298.812 262.583 298.938 262.5 299.062C262 299.854 261.438 300.625 260.812 301.375C260.188 302.125 259.646 302.917 259.188 303.75C258.979 304.042 258.812 304.354 258.688 304.688C258.562 304.979 258.417 305.271 258.25 305.562C258.083 305.812 257.833 306.167 257.5 306.625C257.208 307.083 256.896 307.562 256.562 308.062C256.271 308.521 256 308.979 255.75 309.438C255.542 309.854 255.438 310.208 255.438 310.5C255.479 310.708 255.75 311.125 256.25 311.75C256.75 312.375 257.292 313.042 257.875 313.75C258.5 314.458 259.083 315.125 259.625 315.75C260.208 316.375 260.583 316.771 260.75 316.938ZM302.938 303.875C302.562 304.667 302.042 305.417 301.375 306.125C300.75 306.833 300.146 307.5 299.562 308.125C299.104 308.583 298.708 309.083 298.375 309.625C298.042 310.167 297.667 310.667 297.25 311.125C296.917 311.5 296.583 311.854 296.25 312.188C295.917 312.479 295.604 312.812 295.312 313.188C295.104 313.354 294.896 313.521 294.688 313.688C294.521 313.854 294.354 314.062 294.188 314.312C294.812 315.646 295.542 316.854 296.375 317.938C297.25 319.021 298.146 320.104 299.062 321.188C299.521 321.729 299.979 322.25 300.438 322.75C300.896 323.208 301.292 323.708 301.625 324.25C301.917 324.875 302.208 325.354 302.5 325.688C302.833 325.979 303.125 326.292 303.375 326.625C303.625 327.042 303.833 327.417 304 327.75C304.208 328.042 304.479 328.333 304.812 328.625C304.812 328.833 304.938 329.042 305.188 329.25C305.438 329.417 305.604 329.604 305.688 329.812C305.688 330.021 305.688 330.188 305.688 330.312C305.729 330.438 305.75 330.542 305.75 330.625C305.625 330.958 305.396 331.25 305.062 331.5C304.771 331.708 304.5 331.938 304.25 332.188C303.833 332.188 303.479 332.312 303.188 332.562C302.896 332.812 302.5 332.938 302 332.938C301.792 333.104 301.625 333.292 301.5 333.5C301.375 333.667 301.208 333.833 301 334C300.667 334 300.354 334.083 300.062 334.25C299.812 334.458 299.521 334.604 299.188 334.688C298.771 334.438 298.438 334.125 298.188 333.75C297.938 333.333 297.604 333.021 297.188 332.812C297.146 332.604 297.062 332.438 296.938 332.312C296.854 332.146 296.771 331.979 296.688 331.812C295.979 331.021 295.312 330.188 294.688 329.312C294.062 328.438 293.438 327.562 292.812 326.688C292.479 326.312 292.125 325.958 291.75 325.625C291.417 325.25 291.083 324.854 290.75 324.438C290.542 324.188 290.333 323.896 290.125 323.562C289.917 323.229 289.688 322.917 289.438 322.625C289.146 322.375 288.896 322.083 288.688 321.75C288.479 321.417 288.229 321.146 287.938 320.938C287.562 321.146 287.229 321.417 286.938 321.75C286.646 322.083 286.312 322.375 285.938 322.625C285.604 322.917 285.271 323.208 284.938 323.5C284.646 323.792 284.333 324.062 284 324.312C283.917 325.271 283.875 326.208 283.875 327.125C283.875 328 283.875 328.875 283.875 329.75C283.875 330.458 283.854 331.146 283.812 331.812C283.812 332.438 283.729 333.083 283.562 333.75C283.354 333.792 283.146 333.688 282.938 333.438C282.771 333.146 282.583 332.979 282.375 332.938C282.208 332.979 282.062 333.062 281.938 333.188C281.854 333.312 281.708 333.333 281.5 333.25C281.292 333.458 280.979 333.646 280.562 333.812C280.354 333.812 280.125 333.854 279.875 333.938C279.625 333.979 279.396 334 279.188 334C278.854 334 278.625 333.958 278.5 333.875C278.083 334.167 277.729 334.312 277.438 334.312C277.188 334.354 276.979 334.375 276.812 334.375C276.729 334.083 276.646 333.812 276.562 333.562C276.479 333.271 276.417 332.958 276.375 332.625C276.25 332.458 276.146 332.271 276.062 332.062C276.021 331.854 275.958 331.646 275.875 331.438C275.917 331.312 275.938 331.167 275.938 331C275.938 330.833 275.938 330.667 275.938 330.5C275.938 329.792 275.917 329.104 275.875 328.438C275.833 327.771 275.854 327.083 275.938 326.375C275.854 326.167 275.792 325.958 275.75 325.75C275.708 325.542 275.688 325.333 275.688 325.125C275.688 325 275.688 324.854 275.688 324.688C275.729 324.521 275.792 324.396 275.875 324.312C275.75 323.771 275.667 323.208 275.625 322.625C275.625 322 275.625 321.417 275.625 320.875C275.625 320.583 275.646 320.292 275.688 320C275.771 319.667 275.812 319.333 275.812 319C275.812 318.292 275.771 317.604 275.688 316.938C275.604 316.271 275.562 315.604 275.562 314.938C275.604 314.479 275.625 314.125 275.625 313.875C275.625 313.625 275.646 313.375 275.688 313.125C275.729 312.875 275.708 312.625 275.625 312.375C275.667 312.167 275.708 312.021 275.75 311.938C275.833 311.812 275.875 311.646 275.875 311.438C275.875 310.896 275.875 310.375 275.875 309.875C275.917 309.333 275.938 308.771 275.938 308.188C275.938 307.771 275.938 307.375 275.938 307C275.979 306.583 276 306.146 276 305.688C276 305.312 276.021 304.958 276.062 304.625C276.146 304.292 276.208 303.958 276.25 303.625C276.292 303.25 276.312 302.896 276.312 302.562C276.312 302.188 276.312 301.833 276.312 301.5C276.312 300.625 276.312 299.75 276.312 298.875C276.312 297.958 276.271 297.062 276.188 296.188C276.146 295.979 276.104 295.75 276.062 295.5C276.021 295.25 276 295 276 294.75C275.917 293.958 275.854 293.146 275.812 292.312C275.771 291.479 275.688 290.646 275.562 289.812C275.646 289.688 275.688 289.562 275.688 289.438C275.688 289.271 275.688 289.125 275.688 289C275.688 288.792 275.688 288.604 275.688 288.438C275.688 288.229 275.667 288.021 275.625 287.812C275.708 287.729 275.792 287.646 275.875 287.562C275.958 287.438 276.042 287.333 276.125 287.25C276.375 287.25 276.625 287.271 276.875 287.312C277.167 287.312 277.417 287.396 277.625 287.562C277.833 287.479 278.062 287.396 278.312 287.312C278.604 287.188 278.854 287.125 279.062 287.125C279.396 287.125 279.646 287.208 279.812 287.375C280.021 287.292 280.125 287.208 280.125 287.125C280.167 287 280.333 286.938 280.625 286.938C281.167 286.896 281.542 286.875 281.75 286.875C282 286.875 282.229 286.854 282.438 286.812C282.562 286.896 282.667 287 282.75 287.125C282.833 287.25 282.917 287.375 283 287.5C283.917 287.833 284.646 288.312 285.188 288.938C285.771 289.521 286.417 290.021 287.125 290.438C287.292 290.562 287.458 290.667 287.625 290.75C287.792 290.833 287.958 290.917 288.125 291C288.5 291.25 288.875 291.521 289.25 291.812C289.625 292.104 290.021 292.354 290.438 292.562C290.854 292.771 291.083 292.896 291.125 292.938C291.208 292.938 291.271 292.979 291.312 293.062C292.229 293.396 293.042 293.854 293.75 294.438C294.5 294.979 295.292 295.479 296.125 295.938C296.417 296.104 296.771 296.271 297.188 296.438C297.646 296.604 298.083 296.792 298.5 297C298.958 297.167 299.375 297.354 299.75 297.562C300.167 297.771 300.479 298 300.688 298.25C301.146 298.708 301.542 299.042 301.875 299.25C302.25 299.417 302.604 299.625 302.938 299.875L303 301.562C303 301.854 302.958 302.125 302.875 302.375C302.833 302.625 302.812 302.896 302.812 303.188C302.812 303.396 302.854 303.625 302.938 303.875ZM294.375 302.25C293.917 302 293.458 301.771 293 301.562C292.542 301.312 292.146 300.979 291.812 300.562C291.521 300.479 291 300.292 290.25 300C289.5 299.667 288.729 299.333 287.938 299C287.188 298.625 286.479 298.312 285.812 298.062C285.188 297.771 284.833 297.625 284.75 297.625C284.625 297.667 284.562 297.938 284.562 298.438C284.562 298.938 284.562 299.479 284.562 300.062C284.562 300.646 284.562 301.208 284.562 301.75C284.562 302.292 284.562 302.625 284.562 302.75C284.562 303.542 284.542 304.312 284.5 305.062C284.458 305.812 284.396 306.583 284.312 307.375C284.229 307.5 284.167 307.625 284.125 307.75C284.083 307.833 284.042 307.938 284 308.062C283.917 308.646 283.875 309.417 283.875 310.375C283.875 311.333 283.875 312.104 283.875 312.688C283.875 312.979 283.875 313.25 283.875 313.5C283.875 313.75 283.896 314.042 283.938 314.375C284.146 314.375 284.292 314.333 284.375 314.25C284.458 314.125 284.604 314.021 284.812 313.938C285.354 313.354 285.896 312.792 286.438 312.25C286.979 311.708 287.542 311.146 288.125 310.562C288.375 310.312 288.625 310.042 288.875 309.75C289.125 309.458 289.396 309.208 289.688 309C289.896 308.75 290.083 308.521 290.25 308.312C290.417 308.062 290.604 307.833 290.812 307.625C291.396 307 292 306.396 292.625 305.812C293.25 305.188 293.771 304.5 294.188 303.75C294.479 303.542 294.75 303.208 295 302.75C294.708 302.708 294.5 302.542 294.375 302.25ZM330.875 325.25C331.208 325.792 331.458 326.312 331.625 326.812C331.792 327.312 331.875 327.667 331.875 327.875C331.875 328.167 331.812 328.417 331.688 328.625C331.604 328.792 331.479 328.979 331.312 329.188C329.646 329.896 327.979 330.562 326.312 331.188C324.688 331.771 323.021 332.354 321.312 332.938C320.896 333.062 320.479 333.208 320.062 333.375C319.688 333.5 319.271 333.604 318.812 333.688C318.729 333.771 318.583 333.854 318.375 333.938C318.167 334.021 317.917 334.104 317.625 334.188C317.375 334.271 317.125 334.333 316.875 334.375C316.625 334.458 316.458 334.5 316.375 334.5C316.292 334.292 316.208 334.167 316.125 334.125C316.042 334.083 315.958 334.042 315.875 334C315.667 334 315.521 334.062 315.438 334.188C315.396 334.354 315.271 334.479 315.062 334.562C314.854 334.562 314.667 334.562 314.5 334.562C314.333 334.604 314.188 334.583 314.062 334.5C313.729 334.583 313.417 334.729 313.125 334.938C312.875 335.146 312.583 335.292 312.25 335.375C311.625 335.208 311.229 335.125 311.062 335.125C310.938 335.167 310.792 335.208 310.625 335.25C310.333 335 310.188 334.646 310.188 334.188C310.229 333.729 310.125 333.354 309.875 333.062C309.875 332.521 309.833 332.229 309.75 332.188C309.667 332.104 309.625 332.021 309.625 331.938C309.625 331.646 309.646 331.375 309.688 331.125C309.729 330.875 309.708 330.604 309.625 330.312C309.792 329.604 309.854 328.917 309.812 328.25C309.771 327.583 309.792 326.917 309.875 326.25C309.875 326.042 309.875 325.854 309.875 325.688C309.917 325.479 309.938 325.271 309.938 325.062C309.938 324.438 309.979 324.062 310.062 323.938C310.146 323.771 310.188 323.583 310.188 323.375C310.188 323.083 310.167 322.812 310.125 322.562C310.125 322.271 310.125 321.958 310.125 321.625C310.125 321.042 310.125 320.479 310.125 319.938C310.167 319.354 310.188 318.75 310.188 318.125C310.188 316.542 310.083 314.958 309.875 313.375C309.667 311.792 309.562 310.208 309.562 308.625C309.562 306.708 309.458 304.812 309.25 302.938C309.042 301.062 308.938 299.167 308.938 297.25C308.938 296.917 308.938 296.458 308.938 295.875C308.938 295.25 308.938 294.625 308.938 294C308.938 293.333 308.938 292.708 308.938 292.125C308.979 291.542 309.021 291.125 309.062 290.875C309.062 290.833 309.188 290.771 309.438 290.688C309.688 290.604 309.854 290.562 309.938 290.562C310.146 290.562 310.312 290.625 310.438 290.75C310.562 290.833 310.708 290.917 310.875 291C311.625 290.917 312.062 290.854 312.188 290.812C312.354 290.729 312.479 290.688 312.562 290.688C312.812 290.688 313 290.75 313.125 290.875C313.292 291 313.417 291.062 313.5 291.062C314.208 290.896 314.583 290.875 314.625 291C314.708 291.125 314.854 291.188 315.062 291.188C315.604 291.021 315.938 290.958 316.062 291C316.188 291.042 316.312 291.062 316.438 291.062C316.646 291.062 316.875 291 317.125 290.875C317.375 290.708 317.604 290.583 317.812 290.5C318.521 290.292 319.104 290.083 319.562 289.875C320.188 289.5 320.646 289.25 320.938 289.125C321.271 289 321.604 288.854 321.938 288.688C322.646 288.396 323.312 288.104 323.938 287.812C324.604 287.479 325.292 287.146 326 286.812C326.125 286.812 326.25 286.812 326.375 286.812C326.542 286.771 326.667 286.708 326.75 286.625C326.875 286.667 327 286.688 327.125 286.688C327.292 286.688 327.438 286.688 327.562 286.688C327.979 286.854 328.25 286.958 328.375 287C328.542 287.25 328.688 287.5 328.812 287.75C328.979 287.958 329.167 288.167 329.375 288.375C329.583 288.75 329.75 288.938 329.875 288.938C329.875 289.062 329.812 289.208 329.688 289.375C329.562 289.5 329.5 289.625 329.5 289.75C329.833 290.333 330.104 290.875 330.312 291.375C330.521 291.875 330.625 292.229 330.625 292.438C330.625 292.729 330.583 292.979 330.5 293.188C330.417 293.354 330.312 293.542 330.188 293.75C328.604 294.5 327 295.25 325.375 296C323.792 296.708 322.167 297.417 320.5 298.125C320.083 298.292 319.688 298.479 319.312 298.688C318.938 298.854 318.521 298.979 318.062 299.062C317.979 299.146 317.792 299.229 317.5 299.312C317.208 299.354 316.979 299.375 316.812 299.375C316.896 300.083 316.938 300.792 316.938 301.5C316.979 302.167 317.021 302.854 317.062 303.562C317.104 304.146 317.167 304.771 317.25 305.438C317.375 306.062 317.479 306.688 317.562 307.312C318.938 306.729 320.292 306.146 321.625 305.562C323 304.979 324.375 304.396 325.75 303.812C326 303.854 326.25 303.896 326.5 303.938C326.792 303.979 327.062 304.042 327.312 304.125C327.396 304.208 327.479 304.312 327.562 304.438C327.646 304.562 327.75 304.667 327.875 304.75C327.833 304.958 327.958 305.271 328.25 305.688C328.583 306.104 328.75 306.417 328.75 306.625C328.75 306.958 328.792 307.167 328.875 307.25C328.958 307.292 329.042 307.458 329.125 307.75C329.167 308.167 329.167 308.396 329.125 308.438C329.333 308.646 329.5 308.854 329.625 309.062C329.75 309.271 329.812 309.521 329.812 309.812C329.229 310.521 328.646 311 328.062 311.25C327.479 311.458 326.896 311.688 326.312 311.938C326.104 312.021 325.875 312.146 325.625 312.312C325.417 312.438 325.208 312.542 325 312.625C324.667 312.75 324.333 312.875 324 313C323.708 313.083 323.396 313.208 323.062 313.375C322.521 313.667 321.958 314 321.375 314.375C320.833 314.708 320.271 314.938 319.688 315.062C319.229 315.188 318.917 315.333 318.75 315.5C318.625 315.625 318.396 315.812 318.062 316.062V317.75V320.875C318.062 321.292 318.062 321.729 318.062 322.188C318.062 322.604 318.042 323.042 318 323.5C317.917 323.917 317.875 324.271 317.875 324.562V325.562C318.083 325.479 318.292 325.417 318.5 325.375C318.708 325.292 318.917 325.208 319.125 325.125C319.292 325.083 319.438 325.062 319.562 325.062C319.729 325.062 319.896 325.021 320.062 324.938C320.271 324.896 320.438 324.854 320.562 324.812C320.688 324.771 320.833 324.708 321 324.625C321.625 324.292 322.104 324.083 322.438 324C322.771 323.875 323.104 323.75 323.438 323.625C324.146 323.375 324.833 323.125 325.5 322.875C326.167 322.583 326.833 322.312 327.5 322.062C327.917 322.146 328.208 322.083 328.375 321.875C328.583 321.917 328.75 321.958 328.875 322C329.042 322.042 329.229 322.062 329.438 322.062C329.938 322.521 330.25 322.875 330.375 323.125C330.5 323.375 330.667 323.604 330.875 323.812C331.083 324.188 331.229 324.375 331.312 324.375C331.312 324.458 331.25 324.604 331.125 324.812C331 324.979 330.917 325.125 330.875 325.25ZM374.438 287.938C374.604 288.229 374.812 288.354 375.062 288.312C375.354 288.271 375.646 288.292 375.938 288.375L376.625 288.625C376.875 288.667 377.062 288.729 377.188 288.812C377.312 288.854 377.438 288.917 377.562 289C377.979 288.958 378.458 289.083 379 289.375C379.583 289.625 379.917 289.812 380 289.938C379.5 291.688 378.979 293.396 378.438 295.062C377.938 296.688 377.458 298.333 377 300C376.875 300.375 376.729 300.854 376.562 301.438C376.438 301.979 376.292 302.562 376.125 303.188C376 303.771 375.854 304.333 375.688 304.875C375.521 305.375 375.375 305.771 375.25 306.062L374.938 307C374.188 310 373.417 312.979 372.625 315.938C371.833 318.854 370.958 321.812 370 324.812C369.667 325.771 369.396 326.771 369.188 327.812C369.021 328.812 368.792 329.812 368.5 330.812C368.167 331.312 367.979 331.75 367.938 332.125C367.938 332.5 367.917 332.875 367.875 333.25C367.833 333.625 367.75 333.979 367.625 334.312C367.542 334.646 367.375 334.875 367.125 335C367.125 335.333 367.042 335.583 366.875 335.75C366.75 335.917 366.646 336.104 366.562 336.312C366.229 336.312 365.875 336.167 365.5 335.875C365.167 335.583 364.854 335.312 364.562 335.062C364.354 334.729 364.167 334.375 364 334C363.833 333.583 363.708 333.188 363.625 332.812C363.25 331.104 362.854 329.417 362.438 327.75C362.021 326.083 361.604 324.417 361.188 322.75C361.188 322.625 361.146 322.417 361.062 322.125C361.021 321.833 360.958 321.521 360.875 321.188C360.792 320.854 360.708 320.562 360.625 320.312C360.583 320.062 360.542 319.896 360.5 319.812C360.25 318.229 359.917 316.667 359.5 315.125C359.125 313.542 358.646 312.021 358.062 310.562C358.062 310.312 358.021 310.062 357.938 309.812C357.854 309.562 357.812 309.312 357.812 309.062C357.729 308.896 357.667 308.688 357.625 308.438C357.583 308.188 357.479 308.021 357.312 307.938C357.104 307.938 356.979 308.062 356.938 308.312C356.938 308.562 356.938 308.792 356.938 309C356.646 309.958 356.417 310.75 356.25 311.375C356.083 312 355.979 312.625 355.938 313.25C355.688 313.708 355.562 314.25 355.562 314.875C355.438 315.083 355.354 315.333 355.312 315.625C355.271 315.917 355.208 316.188 355.125 316.438C354.417 319.104 353.667 321.646 352.875 324.062C352.792 324.354 352.729 324.667 352.688 325C352.646 325.292 352.583 325.604 352.5 325.938C352.25 327.021 352.042 328.083 351.875 329.125C351.708 330.167 351.542 331.229 351.375 332.312C351.292 332.688 351.208 332.938 351.125 333.062C351.042 333.188 350.958 333.271 350.875 333.312C350.792 333.354 350.708 333.396 350.625 333.438C350.583 333.438 350.562 333.5 350.562 333.625C350.354 333.958 350.292 334.167 350.375 334.25C350.458 334.333 350.5 334.417 350.5 334.5C350.5 334.583 350.375 334.625 350.125 334.625C349.917 334.667 349.771 334.688 349.688 334.688C349.354 334.562 349.083 334.583 348.875 334.75C348.708 334.917 348.562 335 348.438 335C348.312 334.792 348.167 334.604 348 334.438C347.833 334.312 347.708 334.292 347.625 334.375C347.208 334.167 346.938 334.042 346.812 334C346.729 333.958 346.646 333.896 346.562 333.812C346.479 333.271 346.312 332.75 346.062 332.25C345.854 331.708 345.667 331.188 345.5 330.688C345.333 330.104 345.208 329.521 345.125 328.938C345.042 328.312 344.938 327.688 344.812 327.062C344.729 326.771 344.604 326.417 344.438 326C344.312 325.583 344.25 325.25 344.25 325C344.167 324.5 344.104 324.167 344.062 324C344.062 323.833 344.021 323.688 343.938 323.562C343.938 322.896 343.792 322.146 343.5 321.312C343.208 320.438 343 319.646 342.875 318.938C342.417 316.521 341.917 314.229 341.375 312.062C341.292 311.729 341.188 311.417 341.062 311.125C340.938 310.833 340.812 310.521 340.688 310.188C340.479 309.562 340.292 308.938 340.125 308.312C339.958 307.646 339.771 306.979 339.562 306.312C339.396 305.771 339.229 305.25 339.062 304.75C338.938 304.208 338.792 303.646 338.625 303.062C338.542 302.812 338.438 302.562 338.312 302.312C338.188 302.062 338.062 301.792 337.938 301.5C337.771 300.917 337.625 300.375 337.5 299.875C337.375 299.333 337.229 298.812 337.062 298.312C336.729 297.188 336.375 296.083 336 295C335.667 293.875 335.333 292.75 335 291.625C335 291.333 334.979 291.125 334.938 291C334.896 290.833 334.896 290.646 334.938 290.438C334.854 290.271 334.792 290.083 334.75 289.875C334.75 289.667 334.75 289.458 334.75 289.25V288.375C334.958 288.292 335.292 288.188 335.75 288.062C336.208 287.896 336.542 287.812 336.75 287.812C337.292 287.854 337.688 287.854 337.938 287.812C338.188 287.771 338.396 287.667 338.562 287.5C338.688 287.5 338.792 287.521 338.875 287.562C339 287.604 339.125 287.625 339.25 287.625C339.75 287.5 340.042 287.479 340.125 287.562C340.292 287.521 340.417 287.458 340.5 287.375C340.583 287.25 340.729 287.188 340.938 287.188C341.021 287.188 341.125 287.292 341.25 287.5C341.375 287.708 341.479 287.854 341.562 287.938C341.646 288.146 341.729 288.354 341.812 288.562C341.896 288.729 341.979 288.917 342.062 289.125C342.312 289.75 342.521 290.458 342.688 291.25C342.896 292.042 343.125 292.792 343.375 293.5C343.583 293.958 343.75 294.458 343.875 295C344 295.5 344.146 296 344.312 296.5C344.396 296.708 344.479 296.917 344.562 297.125C344.646 297.333 344.729 297.542 344.812 297.75C344.938 298.25 345.062 298.729 345.188 299.188C345.354 299.604 345.5 300.042 345.625 300.5C346.125 301.958 346.583 303.438 347 304.938C347.458 306.396 347.854 307.854 348.188 309.312C348.271 309.729 348.375 310.208 348.5 310.75C348.625 311.292 348.812 311.729 349.062 312.062C349.229 311.938 349.333 311.708 349.375 311.375C349.458 311.042 349.542 310.771 349.625 310.562C349.708 310.312 349.771 310.062 349.812 309.812C349.896 309.562 349.979 309.312 350.062 309.062C350.188 308.479 350.312 307.938 350.438 307.438C350.562 306.896 350.708 306.354 350.875 305.812C351.083 304.896 351.292 303.979 351.5 303.062C351.708 302.104 351.938 301.146 352.188 300.188C352.354 299.604 352.521 299 352.688 298.375C352.854 297.75 353.021 297.146 353.188 296.562C353.271 296.271 353.333 295.979 353.375 295.688C353.458 295.396 353.542 295.083 353.625 294.75C353.75 294.417 353.875 294.083 354 293.75C354.167 293.417 354.292 293.083 354.375 292.75C354.667 291.917 354.938 291.083 355.188 290.25C355.438 289.375 355.75 288.562 356.125 287.812C356.208 287.729 356.292 287.667 356.375 287.625C356.458 287.542 356.562 287.458 356.688 287.375C357.062 287.708 357.312 287.979 357.438 288.188C357.562 288.354 357.771 288.438 358.062 288.438C358.229 288.562 358.333 288.729 358.375 288.938C358.458 289.104 358.625 289.167 358.875 289.125C359 289.208 359.083 289.333 359.125 289.5C359.208 289.625 359.333 289.729 359.5 289.812C359.667 290.188 359.771 290.354 359.812 290.312C359.854 290.271 359.938 290.271 360.062 290.312C360.146 290.438 360.375 290.583 360.75 290.75C361.167 290.917 361.458 291.042 361.625 291.125C361.625 291.292 361.646 291.438 361.688 291.562C361.771 291.688 361.812 291.833 361.812 292C361.812 292.208 361.729 292.562 361.562 293.062C361.438 293.562 361.333 293.958 361.25 294.25C361.458 294.333 361.604 294.375 361.688 294.375C361.771 294.333 361.854 294.312 361.938 294.312C362.354 295.021 362.604 295.812 362.688 296.688C362.812 297.521 362.917 298.292 363 299C363.083 299.333 363.146 299.667 363.188 300C363.271 300.292 363.354 300.604 363.438 300.938C363.646 301.771 363.833 302.604 364 303.438C364.208 304.229 364.417 305.042 364.625 305.875C364.625 306.083 364.708 306.312 364.875 306.562C364.875 306.812 364.938 307.229 365.062 307.812C365.229 308.354 365.396 308.938 365.562 309.562C365.729 310.146 365.917 310.708 366.125 311.25C366.333 311.792 366.5 312.188 366.625 312.438C366.833 312.312 366.958 312.021 367 311.562C367.042 311.104 367.146 310.771 367.312 310.562C367.812 308.354 368.333 306.167 368.875 304C369.458 301.833 370.042 299.625 370.625 297.375C371 295.875 371.375 294.438 371.75 293.062C372.167 291.688 372.646 290.271 373.188 288.812C373.271 288.646 373.312 288.396 373.312 288.062C373.812 287.938 374.167 287.979 374.375 288.188L374.438 287.938Z" fill="white"/>
</svg>
